G04 #@! TF.GenerationSoftware,KiCad,Pcbnew,(6.0.9)*
G04 #@! TF.CreationDate,2022-12-31T07:10:18+09:00*
G04 #@! TF.ProjectId,osso,6f73736f-2e6b-4696-9361-645f70636258,rev?*
G04 #@! TF.SameCoordinates,Original*
G04 #@! TF.FileFunction,Copper,L4,Bot*
G04 #@! TF.FilePolarity,Positive*
%FSLAX46Y46*%
G04 Gerber Fmt 4.6, Leading zero omitted, Abs format (unit mm)*
G04 Created by KiCad (PCBNEW (6.0.9)) date 2022-12-31 07:10:18*
%MOMM*%
%LPD*%
G01*
G04 APERTURE LIST*
G04 Aperture macros list*
%AMOutline5P*
0 Free polygon, 5 corners , with rotation*
0 The origin of the aperture is its center*
0 number of corners: always 5*
0 $1 to $10 corner X, Y*
0 $11 Rotation angle, in degrees counterclockwise*
0 create outline with 5 corners*
4,1,5,$1,$2,$3,$4,$5,$6,$7,$8,$9,$10,$1,$2,$11*%
%AMOutline6P*
0 Free polygon, 6 corners , with rotation*
0 The origin of the aperture is its center*
0 number of corners: always 6*
0 $1 to $12 corner X, Y*
0 $13 Rotation angle, in degrees counterclockwise*
0 create outline with 6 corners*
4,1,6,$1,$2,$3,$4,$5,$6,$7,$8,$9,$10,$11,$12,$1,$2,$13*%
%AMOutline7P*
0 Free polygon, 7 corners , with rotation*
0 The origin of the aperture is its center*
0 number of corners: always 7*
0 $1 to $14 corner X, Y*
0 $15 Rotation angle, in degrees counterclockwise*
0 create outline with 7 corners*
4,1,7,$1,$2,$3,$4,$5,$6,$7,$8,$9,$10,$11,$12,$13,$14,$1,$2,$15*%
%AMOutline8P*
0 Free polygon, 8 corners , with rotation*
0 The origin of the aperture is its center*
0 number of corners: always 8*
0 $1 to $16 corner X, Y*
0 $17 Rotation angle, in degrees counterclockwise*
0 create outline with 8 corners*
4,1,8,$1,$2,$3,$4,$5,$6,$7,$8,$9,$10,$11,$12,$13,$14,$15,$16,$1,$2,$17*%
G04 Aperture macros list end*
G04 #@! TA.AperFunction,ComponentPad*
%ADD10Outline8P,-0.609600X0.252505X-0.252505X0.609600X0.252505X0.609600X0.609600X0.252505X0.609600X-0.252505X0.252505X-0.609600X-0.252505X-0.609600X-0.609600X-0.252505X270.000000*%
G04 #@! TD*
G04 #@! TA.AperFunction,ComponentPad*
%ADD11Outline8P,-0.800100X0.331412X-0.331412X0.800100X0.331412X0.800100X0.800100X0.331412X0.800100X-0.331412X0.331412X-0.800100X-0.331412X-0.800100X-0.800100X-0.331412X180.000000*%
G04 #@! TD*
G04 #@! TA.AperFunction,ComponentPad*
%ADD12Outline8P,-0.654000X0.270896X-0.270896X0.654000X0.270896X0.654000X0.654000X0.270896X0.654000X-0.270896X0.270896X-0.654000X-0.270896X-0.654000X-0.654000X-0.270896X0.000000*%
G04 #@! TD*
G04 #@! TA.AperFunction,ComponentPad*
%ADD13Outline8P,-0.800100X0.331412X-0.331412X0.800100X0.331412X0.800100X0.800100X0.331412X0.800100X-0.331412X0.331412X-0.800100X-0.331412X-0.800100X-0.800100X-0.331412X90.000000*%
G04 #@! TD*
G04 #@! TA.AperFunction,ComponentPad*
%ADD14Outline8P,-0.800100X0.331412X-0.331412X0.800100X0.331412X0.800100X0.800100X0.331412X0.800100X-0.331412X0.331412X-0.800100X-0.331412X-0.800100X-0.800100X-0.331412X270.000000*%
G04 #@! TD*
G04 #@! TA.AperFunction,ComponentPad*
%ADD15O,1.790700X3.581400*%
G04 #@! TD*
G04 #@! TA.AperFunction,ComponentPad*
%ADD16Outline8P,-0.609600X0.252505X-0.252505X0.609600X0.252505X0.609600X0.609600X0.252505X0.609600X-0.252505X0.252505X-0.609600X-0.252505X-0.609600X-0.609600X-0.252505X0.000000*%
G04 #@! TD*
G04 #@! TA.AperFunction,ComponentPad*
%ADD17O,1.219200X2.438400*%
G04 #@! TD*
G04 #@! TA.AperFunction,ComponentPad*
%ADD18Outline8P,-0.609600X0.252505X-0.252505X0.609600X0.252505X0.609600X0.609600X0.252505X0.609600X-0.252505X0.252505X-0.609600X-0.252505X-0.609600X-0.609600X-0.252505X90.000000*%
G04 #@! TD*
G04 #@! TA.AperFunction,ComponentPad*
%ADD19O,1.981200X3.962400*%
G04 #@! TD*
G04 #@! TA.AperFunction,ComponentPad*
%ADD20O,3.581400X1.790700*%
G04 #@! TD*
G04 #@! TA.AperFunction,ComponentPad*
%ADD21R,1.200000X1.200000*%
G04 #@! TD*
G04 #@! TA.AperFunction,ComponentPad*
%ADD22C,1.200000*%
G04 #@! TD*
G04 #@! TA.AperFunction,ComponentPad*
%ADD23Outline8P,-0.800100X0.331412X-0.331412X0.800100X0.331412X0.800100X0.800100X0.331412X0.800100X-0.331412X0.331412X-0.800100X-0.331412X-0.800100X-0.800100X-0.331412X0.000000*%
G04 #@! TD*
G04 #@! TA.AperFunction,ComponentPad*
%ADD24Outline8P,-0.609600X0.252505X-0.252505X0.609600X0.252505X0.609600X0.609600X0.252505X0.609600X-0.252505X0.252505X-0.609600X-0.252505X-0.609600X-0.609600X-0.252505X180.000000*%
G04 #@! TD*
G04 #@! TA.AperFunction,ComponentPad*
%ADD25O,3.352800X1.676400*%
G04 #@! TD*
G04 #@! TA.AperFunction,ComponentPad*
%ADD26O,2.743200X1.371600*%
G04 #@! TD*
G04 #@! TA.AperFunction,ComponentPad*
%ADD27R,1.500000X1.500000*%
G04 #@! TD*
G04 #@! TA.AperFunction,ComponentPad*
%ADD28C,1.500000*%
G04 #@! TD*
G04 #@! TA.AperFunction,ViaPad*
%ADD29C,0.904800*%
G04 #@! TD*
G04 #@! TA.AperFunction,Conductor*
%ADD30C,0.152400*%
G04 #@! TD*
G04 #@! TA.AperFunction,Conductor*
%ADD31C,0.254000*%
G04 #@! TD*
G04 #@! TA.AperFunction,Conductor*
%ADD32C,0.406400*%
G04 #@! TD*
G04 #@! TA.AperFunction,Conductor*
%ADD33C,0.508000*%
G04 #@! TD*
G04 #@! TA.AperFunction,Conductor*
%ADD34C,1.016000*%
G04 #@! TD*
G04 #@! TA.AperFunction,Conductor*
%ADD35C,0.381000*%
G04 #@! TD*
G04 #@! TA.AperFunction,Conductor*
%ADD36C,0.762000*%
G04 #@! TD*
G04 #@! TA.AperFunction,Conductor*
%ADD37C,1.676400*%
G04 #@! TD*
G04 APERTURE END LIST*
D10*
X155797100Y-97671850D03*
X155797100Y-105291850D03*
D11*
X200755100Y-86241850D03*
X195675100Y-86241850D03*
D12*
X222472100Y-84463850D03*
D13*
X87090100Y-109736850D03*
X87090100Y-104656850D03*
D12*
X222472100Y-125103850D03*
X203295100Y-85352850D03*
D14*
X109569100Y-90813850D03*
X109569100Y-95893850D03*
D12*
X222472100Y-79383850D03*
X222472100Y-81923850D03*
X216630100Y-84463850D03*
X168370100Y-117483850D03*
D10*
X150717100Y-97925850D03*
X150717100Y-105545850D03*
D12*
X216630100Y-92083850D03*
X83915100Y-104656850D03*
X168370100Y-92083850D03*
X222472100Y-97163850D03*
X174466100Y-81923850D03*
D15*
X154741100Y-66429850D03*
X149741100Y-66429850D03*
D12*
X174466100Y-92083850D03*
X174466100Y-84463850D03*
D13*
X187293100Y-95258850D03*
X187293100Y-90178850D03*
D12*
X167227100Y-122563850D03*
X216630100Y-127643850D03*
X216630100Y-89543850D03*
X216630100Y-97163850D03*
D15*
X164901100Y-66429850D03*
X159901100Y-66429850D03*
D12*
X222472100Y-127643850D03*
D14*
X211296100Y-88781850D03*
X211296100Y-93861850D03*
D15*
X77010100Y-143538850D03*
X82010100Y-143538850D03*
X87010100Y-143538850D03*
X175061100Y-66429850D03*
X170061100Y-66429850D03*
D16*
X176117100Y-72906850D03*
X183737100Y-72906850D03*
D12*
X174466100Y-120023850D03*
D17*
X165957100Y-85632250D03*
X163417100Y-85632250D03*
X160877100Y-85632250D03*
X158337100Y-85632250D03*
X155797100Y-85632250D03*
X153257100Y-85632250D03*
X150717100Y-85632250D03*
X148177100Y-85632250D03*
X148177100Y-94471450D03*
X150717100Y-94471450D03*
X153257100Y-94471450D03*
X155797100Y-94471450D03*
X158337100Y-94471450D03*
X160877100Y-94471450D03*
X163417100Y-94471450D03*
X165957100Y-94471450D03*
D12*
X216630100Y-79383850D03*
D18*
X187801100Y-134247850D03*
X187801100Y-126627850D03*
D12*
X167227100Y-114943850D03*
D15*
X185221100Y-66429850D03*
X180221100Y-66429850D03*
D12*
X174466100Y-104783850D03*
D10*
X177387100Y-77986850D03*
X177387100Y-85606850D03*
D12*
X174466100Y-114943850D03*
X222472100Y-94623850D03*
D15*
X170061100Y-143518850D03*
X175061100Y-143518850D03*
D12*
X216630100Y-102243850D03*
X216630100Y-81923850D03*
D15*
X123586100Y-66409850D03*
X118586100Y-66409850D03*
X113586100Y-66409850D03*
D12*
X83915100Y-112403850D03*
D10*
X149701100Y-75065850D03*
X149701100Y-82685850D03*
D19*
X87979100Y-88400850D03*
X76041100Y-88400850D03*
X76041100Y-76208850D03*
X82010100Y-90432850D03*
X87979100Y-76208850D03*
D15*
X159901100Y-143518850D03*
X164901100Y-143518850D03*
D12*
X222472100Y-76843850D03*
D14*
X164433100Y-124214850D03*
X164433100Y-129294850D03*
D10*
X158845100Y-75065850D03*
X158845100Y-82685850D03*
D15*
X113840100Y-143538850D03*
X118840100Y-143538850D03*
X123840100Y-143538850D03*
D12*
X167227100Y-104402850D03*
D16*
X180181100Y-136660850D03*
X187801100Y-136660850D03*
D12*
X83915100Y-102497850D03*
X168370100Y-84463850D03*
X222472100Y-107323850D03*
X222472100Y-87003850D03*
D19*
X94329100Y-121547850D03*
X106267100Y-121547850D03*
X106267100Y-133739850D03*
X100298100Y-119515850D03*
X94329100Y-133739850D03*
D15*
X132001100Y-143538850D03*
X137001100Y-143538850D03*
X142001100Y-143538850D03*
D12*
X216630100Y-76843850D03*
X222472100Y-74303850D03*
D17*
X182340100Y-121014450D03*
X184880100Y-121014450D03*
X187420100Y-121014450D03*
X189960100Y-121014450D03*
X192500100Y-121014450D03*
X195040100Y-121014450D03*
X197580100Y-121014450D03*
X200120100Y-121014450D03*
X200120100Y-112175250D03*
X197580100Y-112175250D03*
X195040100Y-112175250D03*
X192500100Y-112175250D03*
X189960100Y-112175250D03*
X187420100Y-112175250D03*
X184880100Y-112175250D03*
X182340100Y-112175250D03*
D12*
X168370100Y-89543850D03*
D15*
X149741100Y-143518850D03*
X154741100Y-143518850D03*
D19*
X124555100Y-88400850D03*
X112617100Y-88400850D03*
X112617100Y-76208850D03*
X118586100Y-90432850D03*
X124555100Y-76208850D03*
D15*
X212606100Y-143518850D03*
X217606100Y-143518850D03*
D12*
X216630100Y-87003850D03*
X167227100Y-99703850D03*
D15*
X220527100Y-66429850D03*
X215527100Y-66429850D03*
D12*
X166973100Y-106307850D03*
X174466100Y-97163850D03*
D15*
X95298100Y-143538850D03*
X100298100Y-143538850D03*
X105298100Y-143538850D03*
X141874100Y-66409850D03*
X136874100Y-66409850D03*
X131874100Y-66409850D03*
D20*
X78581100Y-102330850D03*
X78581100Y-97330850D03*
D12*
X222472100Y-102243850D03*
D19*
X112871100Y-121801850D03*
X124809100Y-121801850D03*
X124809100Y-133993850D03*
X118840100Y-119769850D03*
X112871100Y-133993850D03*
D12*
X174466100Y-89543850D03*
D21*
X161639100Y-116975850D03*
D22*
X161639100Y-114435850D03*
X161639100Y-111895850D03*
D17*
X108045100Y-103386850D03*
X105505100Y-103386850D03*
X102965100Y-103386850D03*
X100425100Y-103386850D03*
X97885100Y-103386850D03*
X95345100Y-103386850D03*
X92805100Y-103386850D03*
X90265100Y-103386850D03*
X90265100Y-111006850D03*
X92805100Y-111006850D03*
X95345100Y-111006850D03*
X97885100Y-111006850D03*
X100425100Y-111006850D03*
X102965100Y-111006850D03*
X105505100Y-111006850D03*
X108045100Y-111006850D03*
D23*
X193135100Y-139708850D03*
X198215100Y-139708850D03*
D13*
X109569100Y-119134850D03*
X109569100Y-114054850D03*
D12*
X216630100Y-114943850D03*
D18*
X153384100Y-128024850D03*
X153384100Y-120404850D03*
D20*
X78581100Y-112490850D03*
X78581100Y-107490850D03*
D11*
X210915100Y-85987850D03*
X205835100Y-85987850D03*
D16*
X159988100Y-136660850D03*
X167608100Y-136660850D03*
D12*
X167227100Y-81923850D03*
D14*
X135096100Y-101227850D03*
X135096100Y-106307850D03*
D12*
X216630100Y-120023850D03*
X216630100Y-107323850D03*
X222472100Y-92083850D03*
X166973100Y-108339850D03*
D16*
X149701100Y-136660850D03*
X157321100Y-136660850D03*
D12*
X168370100Y-94623850D03*
X216630100Y-104783850D03*
D11*
X193262100Y-86241850D03*
X188182100Y-86241850D03*
D19*
X130905100Y-121547850D03*
X142843100Y-121547850D03*
X142843100Y-133739850D03*
X136874100Y-119515850D03*
X130905100Y-133739850D03*
D18*
X182340100Y-109355850D03*
X182340100Y-101735850D03*
D12*
X216630100Y-94623850D03*
D19*
X76041100Y-121547850D03*
X87979100Y-121547850D03*
X87979100Y-133739850D03*
X82010100Y-119515850D03*
X76041100Y-133739850D03*
D10*
X164687100Y-97798850D03*
X164687100Y-105418850D03*
D12*
X222472100Y-120023850D03*
X174466100Y-122563850D03*
D21*
X160496100Y-129929850D03*
D22*
X160496100Y-127389850D03*
X160496100Y-124849850D03*
D12*
X174466100Y-112403850D03*
D18*
X177768100Y-133612850D03*
X177768100Y-125992850D03*
D24*
X166465100Y-72652850D03*
X158845100Y-72652850D03*
D12*
X222472100Y-104783850D03*
X216630100Y-74303850D03*
X168370100Y-87003850D03*
D15*
X105298100Y-66409850D03*
X100298100Y-66409850D03*
X95298100Y-66409850D03*
D25*
X205835100Y-143518850D03*
X193135100Y-143518850D03*
D21*
X138779100Y-99830850D03*
D22*
X138779100Y-102370850D03*
X138779100Y-104910850D03*
X138779100Y-107450850D03*
X138779100Y-109990850D03*
D12*
X83915100Y-107450850D03*
D18*
X166973100Y-134374850D03*
X166973100Y-126754850D03*
D26*
X165957100Y-117483850D03*
X165957100Y-120023850D03*
D12*
X222472100Y-89543850D03*
D15*
X180221100Y-143518850D03*
X185221100Y-143518850D03*
D12*
X174466100Y-87003850D03*
D16*
X170148100Y-136660850D03*
X177768100Y-136660850D03*
D12*
X216630100Y-125103850D03*
D24*
X206597100Y-72652850D03*
X198977100Y-72652850D03*
D17*
X114141100Y-107704850D03*
X116681100Y-107704850D03*
X119221100Y-107704850D03*
X121761100Y-107704850D03*
X124301100Y-107704850D03*
X126841100Y-107704850D03*
X129381100Y-107704850D03*
X131921100Y-107704850D03*
X131921100Y-100084850D03*
X129381100Y-100084850D03*
X126841100Y-100084850D03*
X124301100Y-100084850D03*
X121761100Y-100084850D03*
X119221100Y-100084850D03*
X116681100Y-100084850D03*
X114141100Y-100084850D03*
D12*
X174466100Y-94623850D03*
D10*
X183737100Y-77986850D03*
X183737100Y-85606850D03*
D12*
X216630100Y-99830850D03*
D17*
X208375100Y-88781850D03*
X205835100Y-88781850D03*
X203295100Y-88781850D03*
X200755100Y-88781850D03*
X198215100Y-88781850D03*
X195675100Y-88781850D03*
X193135100Y-88781850D03*
X190595100Y-88781850D03*
X190595100Y-96401850D03*
X193135100Y-96401850D03*
X195675100Y-96401850D03*
X198215100Y-96401850D03*
X200755100Y-96401850D03*
X203295100Y-96401850D03*
X205835100Y-96401850D03*
X208375100Y-96401850D03*
D15*
X195381100Y-66429850D03*
X190381100Y-66429850D03*
D24*
X185134100Y-75446850D03*
X177514100Y-75446850D03*
D15*
X87010100Y-66409850D03*
X82010100Y-66409850D03*
X77010100Y-66409850D03*
D19*
X142843100Y-88400850D03*
X130905100Y-88400850D03*
X130905100Y-76208850D03*
X136874100Y-90432850D03*
X142843100Y-76208850D03*
X106267100Y-88400850D03*
X94329100Y-88400850D03*
X94329100Y-76208850D03*
X100298100Y-90432850D03*
X106267100Y-76208850D03*
D24*
X156051100Y-72652850D03*
X148431100Y-72652850D03*
D18*
X192500100Y-109355850D03*
X192500100Y-101735850D03*
D15*
X210454100Y-66409850D03*
X205454100Y-66409850D03*
X200454100Y-66409850D03*
D17*
X198215100Y-83066850D03*
X200755100Y-83066850D03*
X203295100Y-83066850D03*
X205835100Y-83066850D03*
X205835100Y-75446850D03*
X203295100Y-75446850D03*
X200755100Y-75446850D03*
X198215100Y-75446850D03*
D18*
X187420100Y-109355850D03*
X187420100Y-101735850D03*
X197580100Y-109355850D03*
X197580100Y-101735850D03*
D10*
X160369100Y-97671850D03*
X160369100Y-105291850D03*
D27*
X218408100Y-130564850D03*
D28*
X220948100Y-130564850D03*
X218408100Y-128024850D03*
X220948100Y-128024850D03*
X218408100Y-125484850D03*
X220948100Y-125484850D03*
X218408100Y-122944850D03*
X220948100Y-122944850D03*
X218408100Y-120404850D03*
X220948100Y-120404850D03*
X218408100Y-117864850D03*
X220948100Y-117864850D03*
X218408100Y-115324850D03*
X220948100Y-115324850D03*
X218408100Y-112784850D03*
X220948100Y-112784850D03*
X218408100Y-110244850D03*
X220948100Y-110244850D03*
X218408100Y-107704850D03*
X220948100Y-107704850D03*
X218408100Y-105164850D03*
X220948100Y-105164850D03*
X218408100Y-102624850D03*
X220948100Y-102624850D03*
X218408100Y-100084850D03*
X220948100Y-100084850D03*
X218408100Y-97544850D03*
X220948100Y-97544850D03*
X218408100Y-95004850D03*
X220948100Y-95004850D03*
X218408100Y-92464850D03*
X220948100Y-92464850D03*
X218408100Y-89924850D03*
X220948100Y-89924850D03*
X218408100Y-87384850D03*
X220948100Y-87384850D03*
X218408100Y-84844850D03*
X220948100Y-84844850D03*
X218408100Y-82304850D03*
X220948100Y-82304850D03*
X218408100Y-79764850D03*
X220948100Y-79764850D03*
X218408100Y-77224850D03*
X220948100Y-77224850D03*
X218408100Y-74684850D03*
X220948100Y-74684850D03*
D27*
X170148100Y-130564850D03*
D28*
X172688100Y-130564850D03*
X170148100Y-128024850D03*
X172688100Y-128024850D03*
X170148100Y-125484850D03*
X172688100Y-125484850D03*
X170148100Y-122944850D03*
X172688100Y-122944850D03*
X170148100Y-120404850D03*
X172688100Y-120404850D03*
X170148100Y-117864850D03*
X172688100Y-117864850D03*
X170148100Y-115324850D03*
X172688100Y-115324850D03*
X170148100Y-112784850D03*
X172688100Y-112784850D03*
X170148100Y-110244850D03*
X172688100Y-110244850D03*
X170148100Y-107704850D03*
X172688100Y-107704850D03*
X170148100Y-105164850D03*
X172688100Y-105164850D03*
X170148100Y-102624850D03*
X172688100Y-102624850D03*
X170148100Y-100084850D03*
X172688100Y-100084850D03*
X170148100Y-97544850D03*
X172688100Y-97544850D03*
X170148100Y-95004850D03*
X172688100Y-95004850D03*
X170148100Y-92464850D03*
X172688100Y-92464850D03*
X170148100Y-89924850D03*
X172688100Y-89924850D03*
X170148100Y-87384850D03*
X172688100Y-87384850D03*
X170148100Y-84844850D03*
X172688100Y-84844850D03*
X170148100Y-82304850D03*
X172688100Y-82304850D03*
X170148100Y-79764850D03*
X172688100Y-79764850D03*
X170148100Y-77224850D03*
X172688100Y-77224850D03*
X170148100Y-74684850D03*
X172688100Y-74684850D03*
D29*
X178403100Y-115197850D03*
X144621100Y-103640850D03*
X162147100Y-103640850D03*
X145256100Y-100719850D03*
X145764100Y-98814850D03*
X143986100Y-106688850D03*
X174847100Y-102116850D03*
X174974100Y-106815850D03*
X165322100Y-100973850D03*
D30*
X205835100Y-75573850D02*
X205835100Y-75446850D01*
X131921100Y-107577850D02*
X131921100Y-107704850D01*
D31*
X200755100Y-83193850D02*
X199231100Y-84717850D01*
D32*
X220527100Y-66596850D02*
X217011100Y-70112850D01*
D33*
X220948100Y-130564850D02*
X218408100Y-130564850D01*
D32*
X213963100Y-70112850D02*
X211804100Y-72271850D01*
D34*
X212606100Y-143518850D02*
X213074100Y-143518850D01*
D31*
X177387100Y-81415850D02*
X172815100Y-76843850D01*
X194151100Y-113800850D02*
X199485100Y-113800850D01*
D33*
X90265100Y-103513850D02*
X90265100Y-103386850D01*
X206597100Y-77097850D02*
X202279100Y-81415850D01*
X206343100Y-75573850D02*
X205835100Y-75446850D01*
D30*
X200755100Y-82939850D02*
X200755100Y-83066850D01*
D35*
X198342100Y-139835850D02*
X198215100Y-139708850D01*
D32*
X217011100Y-70112850D02*
X213963100Y-70112850D01*
D35*
X172815100Y-77097850D02*
X172688100Y-77224850D01*
D33*
X200755100Y-83193850D02*
X200755100Y-83066850D01*
D31*
X199231100Y-84717850D02*
X189833100Y-84717850D01*
X185896100Y-113800850D02*
X184880100Y-112784850D01*
D30*
X87217100Y-104529850D02*
X87090100Y-104656850D01*
D34*
X213074100Y-143518850D02*
X213582100Y-143010850D01*
X211296100Y-139835850D02*
X212566100Y-141105850D01*
D33*
X206597100Y-75573850D02*
X206597100Y-77097850D01*
D31*
X194151100Y-113800850D02*
X195040100Y-112784850D01*
X149193100Y-92845850D02*
X148177100Y-93861850D01*
D36*
X87217100Y-104529850D02*
X89122100Y-104529850D01*
D34*
X212566100Y-143478850D02*
X212606100Y-143518850D01*
D31*
X162401100Y-92845850D02*
X163417100Y-93861850D01*
X199485100Y-113800850D02*
X200120100Y-112784850D01*
D34*
X213582100Y-137041850D02*
X218408100Y-132215850D01*
D36*
X89122100Y-104529850D02*
X90265100Y-103386850D01*
D30*
X188309100Y-86241850D02*
X188182100Y-86241850D01*
D31*
X189960100Y-112784850D02*
X189071100Y-113800850D01*
D36*
X133191100Y-106307850D02*
X131921100Y-107577850D01*
D31*
X157321100Y-92845850D02*
X158337100Y-93861850D01*
D32*
X209010100Y-72271850D02*
X205835100Y-75446850D01*
D33*
X206343100Y-75573850D02*
X206597100Y-75573850D01*
D31*
X189071100Y-113800850D02*
X194151100Y-113800850D01*
X189071100Y-113800850D02*
X185896100Y-113800850D01*
D30*
X198215100Y-139581850D02*
X198215100Y-139708850D01*
D34*
X198342100Y-139835850D02*
X211296100Y-139835850D01*
X212566100Y-141105850D02*
X212566100Y-143478850D01*
D35*
X172815100Y-76843850D02*
X172815100Y-77097850D01*
D31*
X153257100Y-93861850D02*
X152241100Y-92845850D01*
D34*
X218408100Y-132215850D02*
X218408100Y-130564850D01*
D31*
X202279100Y-81415850D02*
X177387100Y-81415850D01*
X202279100Y-81415850D02*
X200755100Y-82939850D01*
X152241100Y-92845850D02*
X149193100Y-92845850D01*
X157321100Y-92845850D02*
X162401100Y-92845850D01*
X152241100Y-92845850D02*
X157321100Y-92845850D01*
D33*
X133191100Y-106307850D02*
X135096100Y-106307850D01*
D32*
X211804100Y-72271850D02*
X209010100Y-72271850D01*
D31*
X189833100Y-84717850D02*
X188309100Y-86241850D01*
D34*
X213582100Y-143010850D02*
X213582100Y-137041850D01*
D33*
X205835100Y-75573850D02*
X206343100Y-75573850D01*
D32*
X220527100Y-66429850D02*
X220527100Y-66596850D01*
D35*
X161766100Y-132723850D02*
X161766100Y-131199850D01*
X116681100Y-98052850D02*
X123412100Y-98052850D01*
X124682100Y-89543850D02*
X124682100Y-88527850D01*
D30*
X160623100Y-129929850D02*
X160496100Y-129929850D01*
D32*
X93567100Y-113927850D02*
X94329100Y-114689850D01*
X94456100Y-120785850D02*
X94583100Y-120658850D01*
D35*
X142843100Y-88527850D02*
X142843100Y-95766850D01*
X165830100Y-138184850D02*
X168370100Y-138184850D01*
D32*
X95980100Y-112911850D02*
X104870100Y-112911850D01*
D35*
X186404100Y-138692850D02*
X192246100Y-138692850D01*
D32*
X76041100Y-115832850D02*
X77946100Y-113927850D01*
D30*
X193135100Y-139581850D02*
X193135100Y-139708850D01*
D33*
X158845100Y-82685850D02*
X149701100Y-82685850D01*
D30*
X109315100Y-119388850D02*
X109569100Y-119007850D01*
D35*
X141192100Y-97417850D02*
X138906100Y-97417850D01*
X126333100Y-91194850D02*
X124682100Y-89543850D01*
D33*
X163671100Y-126881850D02*
X160623100Y-129929850D01*
X166973100Y-126881850D02*
X166973100Y-126754850D01*
D32*
X94456100Y-121547850D02*
X94456100Y-121293850D01*
X112871100Y-119388850D02*
X112871100Y-121801850D01*
D33*
X166973100Y-126881850D02*
X163671100Y-126881850D01*
D35*
X123412100Y-98052850D02*
X126333100Y-95131850D01*
D32*
X94329100Y-121420850D02*
X94456100Y-121547850D01*
D35*
X169513100Y-135263850D02*
X182975100Y-135263850D01*
D30*
X109569100Y-119007850D02*
X109569100Y-119134850D01*
X124555100Y-88527850D02*
X124555100Y-88400850D01*
D35*
X168878100Y-135898850D02*
X169513100Y-135263850D01*
D33*
X178403100Y-126627850D02*
X177768100Y-125992850D01*
D31*
X192627100Y-139073850D02*
X193135100Y-139581850D01*
D35*
X168370100Y-138184850D02*
X168878100Y-137676850D01*
D32*
X94583100Y-120658850D02*
X94583100Y-121166850D01*
D33*
X153511100Y-120277850D02*
X158337100Y-120277850D01*
D32*
X107283100Y-88527850D02*
X109569100Y-90813850D01*
D30*
X106267100Y-88527850D02*
X107283100Y-88527850D01*
D35*
X164814100Y-135771850D02*
X161766100Y-132723850D01*
D33*
X158337100Y-129929850D02*
X158337100Y-120277850D01*
D34*
X193135100Y-143518850D02*
X193135100Y-139708850D01*
D30*
X107791100Y-117229850D02*
X109315100Y-119388850D01*
D35*
X109569100Y-90940850D02*
X116681100Y-98052850D01*
X138906100Y-97417850D02*
X135096100Y-101227850D01*
D30*
X94329100Y-121420850D02*
X94329100Y-121547850D01*
D35*
X109569100Y-90813850D02*
X109569100Y-90940850D01*
X182975100Y-135263850D02*
X186404100Y-138692850D01*
D32*
X106140100Y-114181850D02*
X106140100Y-115705850D01*
D33*
X132937100Y-101227850D02*
X131921100Y-100211850D01*
D32*
X94329100Y-114689850D02*
X94329100Y-121420850D01*
D35*
X124682100Y-88527850D02*
X124555100Y-88400850D01*
D32*
X94583100Y-121166850D02*
X94456100Y-121293850D01*
D30*
X142843100Y-88527850D02*
X142843100Y-88400850D01*
D32*
X77946100Y-113927850D02*
X93567100Y-113927850D01*
D33*
X142843100Y-86368850D02*
X142843100Y-88400850D01*
X160496100Y-129929850D02*
X158337100Y-129929850D01*
D35*
X164814100Y-135771850D02*
X164814100Y-137168850D01*
D33*
X131921100Y-95893850D02*
X124555100Y-88527850D01*
D35*
X126333100Y-95131850D02*
X126333100Y-91194850D01*
D32*
X109315100Y-119388850D02*
X112871100Y-119388850D01*
D33*
X135096100Y-101227850D02*
X132937100Y-101227850D01*
X131921100Y-100084850D02*
X131921100Y-95893850D01*
X147161100Y-82685850D02*
X142843100Y-86368850D01*
X187801100Y-126627850D02*
X178403100Y-126627850D01*
X149701100Y-82685850D02*
X147161100Y-82685850D01*
D32*
X94329100Y-114689850D02*
X94329100Y-114562850D01*
D35*
X192246100Y-138692850D02*
X192627100Y-139073850D01*
X168878100Y-137676850D02*
X168878100Y-135898850D01*
D32*
X76041100Y-121547850D02*
X76041100Y-115832850D01*
D30*
X153511100Y-120277850D02*
X153384100Y-120404850D01*
D32*
X106140100Y-115705850D02*
X109569100Y-119134850D01*
D30*
X106267100Y-88527850D02*
X106267100Y-88400850D01*
D32*
X94329100Y-114562850D02*
X95980100Y-112911850D01*
D30*
X131921100Y-100211850D02*
X131921100Y-100084850D01*
D33*
X158337100Y-120277850D02*
X161639100Y-116975850D01*
D32*
X104870100Y-112911850D02*
X106140100Y-114181850D01*
D35*
X161766100Y-131199850D02*
X160496100Y-129929850D01*
X142843100Y-95766850D02*
X141192100Y-97417850D01*
X164814100Y-137168850D02*
X165830100Y-138184850D01*
D32*
X94456100Y-121293850D02*
X94456100Y-120785850D01*
D30*
X187293100Y-95131850D02*
X187293100Y-95258850D01*
D31*
X173450100Y-119134850D02*
X174974100Y-117610850D01*
D33*
X203803100Y-70112850D02*
X198215100Y-75319850D01*
X210407100Y-66429850D02*
X207105100Y-70112850D01*
X161131100Y-124341850D02*
X160623100Y-124849850D01*
D31*
X206597100Y-94623850D02*
X187801100Y-94623850D01*
D36*
X210407100Y-66429850D02*
X210454100Y-66409850D01*
D31*
X171545100Y-123833850D02*
X170275100Y-125103850D01*
D30*
X164433100Y-124341850D02*
X164433100Y-124214850D01*
D31*
X171545100Y-119261850D02*
X171672100Y-119134850D01*
X171672100Y-119134850D02*
X173450100Y-119134850D01*
D33*
X198215100Y-75319850D02*
X198215100Y-75446850D01*
X207105100Y-70112850D02*
X203803100Y-70112850D01*
D30*
X160623100Y-124849850D02*
X160496100Y-124849850D01*
D31*
X174974100Y-117610850D02*
X175990100Y-117610850D01*
D30*
X187801100Y-94623850D02*
X187293100Y-95131850D01*
D31*
X208375100Y-96401850D02*
X206597100Y-94623850D01*
X175990100Y-117610850D02*
X178403100Y-115197850D01*
D30*
X187293100Y-95385850D02*
X187293100Y-95258850D01*
D31*
X171545100Y-123833850D02*
X171545100Y-119261850D01*
D30*
X170275100Y-125103850D02*
X170148100Y-125484850D01*
D33*
X164433100Y-124341850D02*
X161131100Y-124341850D01*
D37*
X142843100Y-66409850D02*
X142843100Y-76208850D01*
X141874100Y-66409850D02*
X142843100Y-66409850D01*
X136874100Y-66409850D02*
X136874100Y-90432850D01*
X130905100Y-66409850D02*
X130905100Y-76208850D01*
X131874100Y-66409850D02*
X130905100Y-66409850D01*
X77010100Y-143538850D02*
X76041100Y-143538850D01*
X76041100Y-143538850D02*
X76041100Y-133739850D01*
X82010100Y-143538850D02*
X82010100Y-119515850D01*
X87010100Y-143538850D02*
X87979100Y-143538850D01*
X87979100Y-143538850D02*
X87979100Y-133739850D01*
X124428100Y-76208850D02*
X124428100Y-66302850D01*
D31*
X124428100Y-76208850D02*
X124555100Y-76208850D01*
D37*
X124428100Y-66302850D02*
X123586100Y-66302850D01*
X123586100Y-66302850D02*
X123586100Y-66409850D01*
X118586100Y-90432850D02*
X118586100Y-66409850D01*
X112617100Y-76208850D02*
X113586100Y-76208850D01*
X113586100Y-76208850D02*
X113586100Y-66409850D01*
X95298100Y-143538850D02*
X94329100Y-143538850D01*
X94329100Y-143538850D02*
X94329100Y-133739850D01*
X100552100Y-119007850D02*
X100298100Y-119007850D01*
X100552100Y-143538850D02*
X100552100Y-119007850D01*
X100298100Y-143538850D02*
X100552100Y-143538850D01*
X100298100Y-119007850D02*
X100298100Y-119515850D01*
X105298100Y-143538850D02*
X106267100Y-143538850D01*
X106267100Y-143538850D02*
X106267100Y-133739850D01*
X106267100Y-76208850D02*
X105298100Y-76208850D01*
X105298100Y-76208850D02*
X105298100Y-66409850D01*
X100298100Y-90432850D02*
X100298100Y-66409850D01*
X95298100Y-76208850D02*
X95298100Y-66409850D01*
X94329100Y-76208850D02*
X95298100Y-76208850D01*
X87979100Y-76208850D02*
X87010100Y-76208850D01*
X87010100Y-76208850D02*
X87010100Y-66409850D01*
X82010100Y-90432850D02*
X82010100Y-66409850D01*
X77010100Y-76208850D02*
X77010100Y-66409850D01*
X76041100Y-76208850D02*
X77010100Y-76208850D01*
X130905100Y-143538850D02*
X130905100Y-133739850D01*
X132001100Y-143538850D02*
X130905100Y-143538850D01*
X136874100Y-143538850D02*
X136874100Y-119515850D01*
X137001100Y-143538850D02*
X136874100Y-143538850D01*
X142843100Y-143538850D02*
X142843100Y-133739850D01*
X142001100Y-143538850D02*
X142843100Y-143538850D01*
D33*
X116681100Y-99957850D02*
X116681100Y-100084850D01*
D30*
X94329100Y-88527850D02*
X94329100Y-88400850D01*
D35*
X111093100Y-94369850D02*
X111220100Y-94496850D01*
X111220100Y-94496850D02*
X116681100Y-99957850D01*
X106267100Y-97544850D02*
X106267100Y-97036850D01*
X108934100Y-94369850D02*
X111093100Y-94369850D01*
X105505100Y-98306850D02*
X106267100Y-97544850D01*
X106267100Y-97036850D02*
X108934100Y-94369850D01*
X94329100Y-88527850D02*
X94329100Y-96274850D01*
X96361100Y-98306850D02*
X105505100Y-98306850D01*
X94329100Y-96274850D02*
X96361100Y-98306850D01*
X85693100Y-102243850D02*
X88487100Y-102243850D01*
X90519100Y-100338850D02*
X96234100Y-100338850D01*
X76041100Y-91448850D02*
X81502100Y-96909850D01*
D30*
X114141100Y-99957850D02*
X114141100Y-100084850D01*
D35*
X96234100Y-100338850D02*
X96615100Y-99957850D01*
D30*
X76041100Y-88527850D02*
X76041100Y-88400850D01*
D35*
X76041100Y-88527850D02*
X76041100Y-91448850D01*
X88487100Y-102243850D02*
X90519100Y-100338850D01*
X81502100Y-98433850D02*
X85693100Y-102243850D01*
X96615100Y-99957850D02*
X114141100Y-99957850D01*
X81502100Y-96909850D02*
X81502100Y-98433850D01*
X109061100Y-115959850D02*
X105505100Y-112276850D01*
X114141100Y-115959850D02*
X109061100Y-115959850D01*
X124301100Y-121039850D02*
X124301100Y-117229850D01*
X120491100Y-113419850D02*
X116681100Y-113419850D01*
D32*
X116681100Y-113419850D02*
X114141100Y-115959850D01*
D35*
X124301100Y-117229850D02*
X120491100Y-113419850D01*
D33*
X105505100Y-112276850D02*
X105505100Y-111006850D01*
D30*
X124301100Y-121039850D02*
X124809100Y-121801850D01*
D32*
X142402334Y-111783791D02*
X142843100Y-112149850D01*
D30*
X142081100Y-121039850D02*
X142843100Y-121547850D01*
D35*
X112998100Y-111006850D02*
X114014100Y-112022850D01*
X114014100Y-112022850D02*
X133445100Y-112022850D01*
X133953100Y-111768850D02*
X142387393Y-111768850D01*
X133445100Y-112022850D02*
X133953100Y-111768850D01*
D32*
X142843100Y-112149850D02*
X142843100Y-121547850D01*
D35*
X108045100Y-111006850D02*
X112998100Y-111006850D01*
X142387393Y-111768850D02*
X142402334Y-111783791D01*
D31*
X130651100Y-109736850D02*
X135985100Y-109736850D01*
X137255100Y-108466850D02*
X140557100Y-108466850D01*
X141827100Y-109736850D02*
X161131100Y-109736850D01*
X166084100Y-116213850D02*
X168878100Y-116213850D01*
X165703100Y-114308850D02*
X161131100Y-109736850D01*
X171418100Y-116594850D02*
X172688100Y-117864850D01*
X140557100Y-108466850D02*
X141827100Y-109736850D01*
X165703100Y-115832850D02*
X165703100Y-114308850D01*
X130651100Y-109736850D02*
X129127100Y-108212850D01*
X169259100Y-116594850D02*
X171418100Y-116594850D01*
X168878100Y-116213850D02*
X169259100Y-116594850D01*
X129127100Y-107958850D02*
X129381100Y-107704850D01*
X129127100Y-108212850D02*
X129127100Y-107958850D01*
X135985100Y-109736850D02*
X137255100Y-108466850D01*
X166084100Y-116213850D02*
X165703100Y-115832850D01*
D35*
X170148100Y-112784850D02*
X165195100Y-112784850D01*
X124301100Y-106180850D02*
X124301100Y-107704850D01*
D31*
X125444100Y-105037850D02*
X135731100Y-105037850D01*
X165195100Y-112784850D02*
X161512100Y-109101850D01*
X135731100Y-105037850D02*
X137128100Y-106434850D01*
X140303100Y-106434850D02*
X142970100Y-109101850D01*
X161512100Y-109101850D02*
X142970100Y-109101850D01*
X137128100Y-106434850D02*
X140303100Y-106434850D01*
D35*
X125444100Y-105037850D02*
X124301100Y-106180850D01*
X165322100Y-102624850D02*
X170148100Y-102624850D01*
D31*
X142335100Y-105926850D02*
X143986100Y-104275850D01*
D35*
X119221100Y-106434850D02*
X121380100Y-104275850D01*
X143986100Y-104275850D02*
X144621100Y-103640850D01*
D31*
X137763100Y-105926850D02*
X142335100Y-105926850D01*
X121380100Y-104275850D02*
X136112100Y-104275850D01*
X136112100Y-104275850D02*
X137763100Y-105926850D01*
D35*
X119221100Y-107704850D02*
X119221100Y-106434850D01*
X164306100Y-103640850D02*
X165322100Y-102624850D01*
X162147100Y-103640850D02*
X164306100Y-103640850D01*
X177387100Y-121039850D02*
X177387100Y-121801850D01*
X147923100Y-113165850D02*
X145256100Y-110498850D01*
X164052100Y-120912850D02*
X164052100Y-113800850D01*
D31*
X145129100Y-110371850D02*
X145256100Y-110498850D01*
D35*
X169005100Y-125103850D02*
X168243100Y-124341850D01*
D31*
X116427100Y-110498850D02*
X136366100Y-110498850D01*
D35*
X167481100Y-124341850D02*
X164052100Y-120912850D01*
X173958100Y-129294850D02*
X169767100Y-129294850D01*
X217138100Y-118626850D02*
X202533100Y-118626850D01*
X168243100Y-124341850D02*
X167481100Y-124341850D01*
X218408100Y-120404850D02*
X218408100Y-119896850D01*
D31*
X140049100Y-108974850D02*
X141446100Y-110371850D01*
X136366100Y-110498850D02*
X137890100Y-108974850D01*
D35*
X169005100Y-128532850D02*
X169005100Y-125103850D01*
X180181100Y-118245850D02*
X177387100Y-121039850D01*
X218408100Y-119896850D02*
X217138100Y-118626850D01*
D31*
X137890100Y-108974850D02*
X140049100Y-108974850D01*
D35*
X114268100Y-108339850D02*
X114268100Y-107831850D01*
X202533100Y-118626850D02*
X202152100Y-118245850D01*
X116427100Y-110498850D02*
X114268100Y-108339850D01*
X174593100Y-128659850D02*
X173958100Y-129294850D01*
X169767100Y-129294850D02*
X169005100Y-128532850D01*
D31*
X141446100Y-110371850D02*
X145129100Y-110371850D01*
D35*
X177387100Y-121801850D02*
X174593100Y-124595850D01*
X114268100Y-107831850D02*
X114141100Y-107704850D01*
X164052100Y-113800850D02*
X163417100Y-113165850D01*
X163417100Y-113165850D02*
X147923100Y-113165850D01*
X202152100Y-118245850D02*
X180181100Y-118245850D01*
X174593100Y-124595850D02*
X174593100Y-128659850D01*
D31*
X145764100Y-93353850D02*
X145764100Y-97163850D01*
X137890100Y-101354850D02*
X141573100Y-101354850D01*
X95599100Y-103132850D02*
X95345100Y-103386850D01*
X164687100Y-96020850D02*
X164687100Y-92083850D01*
X112236100Y-102497850D02*
X110585100Y-100846850D01*
X147542100Y-91575850D02*
X145764100Y-93353850D01*
X110585100Y-100846850D02*
X96742100Y-100846850D01*
X145764100Y-97163850D02*
X141573100Y-101354850D01*
X166211100Y-97163850D02*
X165576100Y-96528850D01*
X165576100Y-96528850D02*
X165195100Y-96528850D01*
X112236100Y-102497850D02*
X136747100Y-102497850D01*
X96742100Y-100846850D02*
X95599100Y-101989850D01*
X165195100Y-96528850D02*
X164687100Y-96020850D01*
X164179100Y-91575850D02*
X147542100Y-91575850D01*
X136747100Y-102497850D02*
X137890100Y-101354850D01*
X170148100Y-97544850D02*
X166211100Y-97163850D01*
X95599100Y-101989850D02*
X95599100Y-103132850D01*
X164687100Y-92083850D02*
X164179100Y-91575850D01*
X100425100Y-103259850D02*
X102203100Y-101481850D01*
X142081100Y-103894850D02*
X145256100Y-100719850D01*
X137128100Y-103640850D02*
X137382100Y-103894850D01*
X107283100Y-105164850D02*
X114395100Y-105164850D01*
X102203100Y-101481850D02*
X106521100Y-101481850D01*
X106775100Y-101735850D02*
X106775100Y-104656850D01*
X137382100Y-103894850D02*
X142081100Y-103894850D01*
X106775100Y-104656850D02*
X107283100Y-105164850D01*
X114395100Y-105164850D02*
X115919100Y-103640850D01*
X115919100Y-103640850D02*
X137128100Y-103640850D01*
X106521100Y-101481850D02*
X106775100Y-101735850D01*
D35*
X178149100Y-122182850D02*
X175609100Y-124722850D01*
X204946100Y-122563850D02*
X201263100Y-118880850D01*
X114522100Y-111133850D02*
X110839100Y-107450850D01*
D31*
X218027100Y-122563850D02*
X218408100Y-122944850D01*
D35*
X201263100Y-118880850D02*
X180689100Y-118880850D01*
X143605100Y-111133850D02*
X114522100Y-111133850D01*
X165703100Y-123452850D02*
X163417100Y-121166850D01*
X163417100Y-121166850D02*
X163417100Y-115959850D01*
X148050100Y-115578850D02*
X143605100Y-111133850D01*
X169005100Y-131834850D02*
X168370100Y-131199850D01*
X105505100Y-104275850D02*
X105505100Y-103386850D01*
X163036100Y-115578850D02*
X148050100Y-115578850D01*
X173958100Y-131834850D02*
X169005100Y-131834850D01*
X165703100Y-124087850D02*
X165703100Y-123452850D01*
X167862100Y-125103850D02*
X166719100Y-125103850D01*
D32*
X204946100Y-122563850D02*
X218027100Y-122563850D01*
D35*
X108680100Y-107450850D02*
X105505100Y-104275850D01*
X163417100Y-115959850D02*
X163036100Y-115578850D01*
X168370100Y-131199850D02*
X168370100Y-125611850D01*
X180689100Y-118880850D02*
X178149100Y-121420850D01*
X178149100Y-121420850D02*
X178149100Y-122182850D01*
X175609100Y-124722850D02*
X175609100Y-130183850D01*
X166719100Y-125103850D02*
X165703100Y-124087850D01*
X175609100Y-130183850D02*
X173958100Y-131834850D01*
X168370100Y-125611850D02*
X167862100Y-125103850D01*
X110839100Y-107450850D02*
X108680100Y-107450850D01*
D31*
X141319100Y-103386850D02*
X142589100Y-102116850D01*
X142589100Y-102116850D02*
X142589100Y-101481850D01*
X137890100Y-103386850D02*
X141319100Y-103386850D01*
X108426100Y-103386850D02*
X108807100Y-103005850D01*
X108807100Y-103005850D02*
X137509100Y-103005850D01*
X145256100Y-98814850D02*
X145764100Y-98814850D01*
X142589100Y-101481850D02*
X145256100Y-98814850D01*
X137509100Y-103005850D02*
X137890100Y-103386850D01*
X108045100Y-103386850D02*
X108426100Y-103386850D01*
X176879100Y-77986850D02*
X174339100Y-75954850D01*
X171291100Y-85606850D02*
X171291100Y-85225850D01*
X166973100Y-85733850D02*
X169005100Y-85733850D01*
X177387100Y-77986850D02*
X176879100Y-77986850D01*
X170783100Y-86114850D02*
X171291100Y-85606850D01*
X172053100Y-75954850D02*
X171418100Y-76589850D01*
X166211100Y-85987850D02*
X165957100Y-86241850D01*
X166973100Y-85733850D02*
X166719100Y-85987850D01*
X169386100Y-86114850D02*
X170783100Y-86114850D01*
X171418100Y-76589850D02*
X171418100Y-85098850D01*
X174339100Y-75954850D02*
X172053100Y-75954850D01*
X169005100Y-85733850D02*
X169386100Y-86114850D01*
X171291100Y-85225850D02*
X171418100Y-85098850D01*
X166719100Y-85987850D02*
X166211100Y-85987850D01*
X177387100Y-73795850D02*
X177006100Y-74176850D01*
X174847100Y-74049850D02*
X173323100Y-72525850D01*
X178657100Y-73795850D02*
X177387100Y-73795850D01*
X183737100Y-77986850D02*
X182848100Y-77986850D01*
X168370100Y-75192850D02*
X160877100Y-82685850D01*
X160877100Y-82685850D02*
X160877100Y-86241850D01*
X169132100Y-72525850D02*
X168370100Y-73287850D01*
X173323100Y-72525850D02*
X169132100Y-72525850D01*
X174974100Y-74049850D02*
X174847100Y-74049850D01*
X168370100Y-73287850D02*
X168370100Y-75192850D01*
X175101100Y-74176850D02*
X174974100Y-74049850D01*
X182848100Y-77986850D02*
X178657100Y-73795850D01*
X177006100Y-74176850D02*
X175101100Y-74176850D01*
D32*
X159901100Y-136747850D02*
X159988100Y-136660850D01*
X159901100Y-143518850D02*
X159901100Y-136747850D01*
X170061100Y-143518850D02*
X170061100Y-136747850D01*
X170061100Y-136747850D02*
X170148100Y-136660850D01*
X180221100Y-136700850D02*
X180181100Y-136660850D01*
X180221100Y-143518850D02*
X180221100Y-136700850D01*
D31*
X147796100Y-108339850D02*
X146145100Y-106688850D01*
X164941100Y-111514850D02*
X161766100Y-108339850D01*
X172688100Y-110244850D02*
X171418100Y-111514850D01*
X171418100Y-111514850D02*
X164941100Y-111514850D01*
X146145100Y-106688850D02*
X143986100Y-106688850D01*
X161766100Y-108339850D02*
X147796100Y-108339850D01*
X148431100Y-107831850D02*
X146653100Y-106053850D01*
X144367100Y-102370850D02*
X141827100Y-104910850D01*
X169640100Y-110371850D02*
X164687100Y-110371850D01*
X141827100Y-104910850D02*
X138779100Y-104910850D01*
X170148100Y-110244850D02*
X169640100Y-110371850D01*
X162147100Y-107831850D02*
X148431100Y-107831850D01*
X146653100Y-102878850D02*
X146145100Y-102370850D01*
X164687100Y-110371850D02*
X162147100Y-107831850D01*
X146653100Y-106053850D02*
X146653100Y-102878850D01*
X146145100Y-102370850D02*
X144367100Y-102370850D01*
D33*
X175355100Y-98941850D02*
X173704100Y-98941850D01*
X188563100Y-83193850D02*
X186277100Y-85987850D01*
D30*
X172815100Y-99703850D02*
X172688100Y-100084850D01*
D33*
X186277100Y-85987850D02*
X175355100Y-98941850D01*
X173704100Y-98941850D02*
X172815100Y-99703850D01*
X198215100Y-83193850D02*
X198215100Y-83066850D01*
X198215100Y-83193850D02*
X188563100Y-83193850D01*
D31*
X172688100Y-101735850D02*
X173704100Y-100719850D01*
D33*
X172688100Y-101735850D02*
X172688100Y-102624850D01*
D31*
X191357100Y-100719850D02*
X195675100Y-96401850D01*
X173704100Y-100719850D02*
X191357100Y-100719850D01*
D35*
X179292100Y-106561850D02*
X174847100Y-102116850D01*
X218408100Y-112784850D02*
X212566100Y-112784850D01*
X210153100Y-115197850D02*
X182975100Y-115197850D01*
X179292100Y-111514850D02*
X179292100Y-106561850D01*
X212566100Y-112784850D02*
X210153100Y-115197850D01*
X182975100Y-115197850D02*
X179292100Y-111514850D01*
D33*
X155797100Y-105291850D02*
X150971100Y-105291850D01*
D31*
X176371100Y-101227850D02*
X174085100Y-101227850D01*
X173958100Y-103513850D02*
X173577100Y-103894850D01*
D33*
X150971100Y-105291850D02*
X150717100Y-105545850D01*
X160369100Y-105291850D02*
X164687100Y-105291850D01*
D31*
X169132100Y-103894850D02*
X168497100Y-103259850D01*
X168497100Y-103259850D02*
X166465100Y-103259850D01*
X164941100Y-105164850D02*
X164687100Y-105418850D01*
X164941100Y-104783850D02*
X164941100Y-105164850D01*
D35*
X187420100Y-101735850D02*
X182340100Y-101735850D01*
D31*
X173958100Y-101354850D02*
X173958100Y-103513850D01*
X173577100Y-103894850D02*
X169132100Y-103894850D01*
X166465100Y-103259850D02*
X164941100Y-104783850D01*
X174085100Y-101227850D02*
X173958100Y-101354850D01*
D30*
X164687100Y-105291850D02*
X164687100Y-105418850D01*
D31*
X176879100Y-101735850D02*
X176371100Y-101227850D01*
D33*
X197580100Y-101735850D02*
X192500100Y-101735850D01*
D31*
X182340100Y-101735850D02*
X176879100Y-101735850D01*
D35*
X164941100Y-109609850D02*
X162655100Y-107323850D01*
X159226100Y-96528850D02*
X160369100Y-97671850D01*
X168878100Y-108974850D02*
X168243100Y-109609850D01*
X147415100Y-105545850D02*
X147415100Y-98687850D01*
X168243100Y-109609850D02*
X164941100Y-109609850D01*
X173577100Y-108974850D02*
X168878100Y-108974850D01*
D31*
X218027100Y-117483850D02*
X218408100Y-117864850D01*
D35*
X149574100Y-96528850D02*
X159226100Y-96528850D01*
X149193100Y-107323850D02*
X147415100Y-105545850D01*
D32*
X182213100Y-117483850D02*
X218027100Y-117483850D01*
D35*
X147415100Y-98687850D02*
X149574100Y-96528850D01*
X182213100Y-117483850D02*
X173577100Y-108974850D01*
X162655100Y-107323850D02*
X149193100Y-107323850D01*
X156051100Y-101862850D02*
X154527100Y-101862850D01*
X168878100Y-106434850D02*
X167989100Y-107323850D01*
X216757100Y-116594850D02*
X216630100Y-116721850D01*
X167989100Y-107323850D02*
X164306100Y-107323850D01*
X154527100Y-101862850D02*
X150717100Y-97925850D01*
X158718100Y-104529850D02*
X156051100Y-101862850D01*
X173958100Y-108085850D02*
X173958100Y-106434850D01*
X159607100Y-106561850D02*
X158718100Y-105672850D01*
X163544100Y-106561850D02*
X159607100Y-106561850D01*
X219932100Y-116594850D02*
X216757100Y-116594850D01*
X182594100Y-116721850D02*
X173958100Y-108085850D01*
X158718100Y-105672850D02*
X158718100Y-104529850D01*
X216630100Y-116721850D02*
X182594100Y-116721850D01*
X173958100Y-106434850D02*
X168878100Y-106434850D01*
X220948100Y-117864850D02*
X220821100Y-117483850D01*
X220821100Y-117483850D02*
X219932100Y-116594850D01*
X164306100Y-107323850D02*
X163544100Y-106561850D01*
X182340100Y-112784850D02*
X183737100Y-114435850D01*
D33*
X219678100Y-111514850D02*
X220821100Y-112403850D01*
D35*
X183737100Y-114435850D02*
X206978100Y-114435850D01*
D30*
X220821100Y-112403850D02*
X220948100Y-112784850D01*
D35*
X219678100Y-111514850D02*
X209899100Y-111514850D01*
X209899100Y-111514850D02*
X206978100Y-114435850D01*
D31*
X188563100Y-110371850D02*
X217773100Y-110371850D01*
D30*
X187547100Y-109355850D02*
X187420100Y-109355850D01*
D31*
X187547100Y-109355850D02*
X188563100Y-110371850D01*
X218281100Y-109863850D02*
X218408100Y-110244850D01*
X217773100Y-110371850D02*
X218281100Y-109863850D01*
D35*
X210788100Y-109101850D02*
X203803100Y-109101850D01*
D30*
X192627100Y-109355850D02*
X192500100Y-109355850D01*
D35*
X210915100Y-108974850D02*
X210788100Y-109101850D01*
X194278100Y-107577850D02*
X192500100Y-109355850D01*
X202279100Y-107577850D02*
X194278100Y-107577850D01*
X203803100Y-109101850D02*
X202279100Y-107577850D01*
D31*
X219932100Y-108974850D02*
X220821100Y-109863850D01*
X192627100Y-109355850D02*
X194405100Y-107577850D01*
D35*
X210915100Y-108974850D02*
X219932100Y-108974850D01*
D31*
X220821100Y-109863850D02*
X220948100Y-110244850D01*
D30*
X83915100Y-104529850D02*
X83915100Y-104656850D01*
D33*
X78581100Y-102497850D02*
X81883100Y-102497850D01*
X81883100Y-102497850D02*
X83915100Y-104529850D01*
D30*
X78581100Y-102497850D02*
X78581100Y-102330850D01*
X78581100Y-97417850D02*
X78581100Y-97330850D01*
X78581100Y-97417850D02*
X78835100Y-97417850D01*
D33*
X78835100Y-97417850D02*
X83915100Y-102497850D01*
D35*
X217392100Y-113673850D02*
X217773100Y-114054850D01*
X220948100Y-115324850D02*
X220821100Y-114943850D01*
X178276100Y-111514850D02*
X178276100Y-110117850D01*
X215487100Y-113673850D02*
X217392100Y-113673850D01*
X178276100Y-110117850D02*
X174974100Y-106815850D01*
X219678100Y-114054850D02*
X220948100Y-115324850D01*
X159099100Y-100973850D02*
X155797100Y-97671850D01*
X182721100Y-115959850D02*
X178276100Y-111514850D01*
X165322100Y-100973850D02*
X159099100Y-100973850D01*
X217773100Y-114054850D02*
X219678100Y-114054850D01*
X215487100Y-113673850D02*
X213201100Y-115959850D01*
X213201100Y-115959850D02*
X182721100Y-115959850D01*
D31*
X167227100Y-81923850D02*
X170148100Y-82304850D01*
D35*
X167227100Y-99703850D02*
X170148100Y-100084850D01*
X167227100Y-114943850D02*
X170148100Y-115324850D01*
X168370100Y-117483850D02*
X170148100Y-117864850D01*
X217646100Y-96020850D02*
X217900100Y-96274850D01*
X203422100Y-82939850D02*
X203295100Y-83066850D01*
X213836100Y-84844850D02*
X210153100Y-81161850D01*
X213836100Y-93988850D02*
X213836100Y-84844850D01*
X217392100Y-95893850D02*
X217519100Y-96020850D01*
X203422100Y-82177850D02*
X203422100Y-82939850D01*
X204438100Y-81161850D02*
X203422100Y-82177850D01*
X215741100Y-95893850D02*
X217392100Y-95893850D01*
X217900100Y-96274850D02*
X219932100Y-96274850D01*
X219932100Y-96274850D02*
X220694100Y-97036850D01*
X210153100Y-81161850D02*
X204438100Y-81161850D01*
X220948100Y-97544850D02*
X220821100Y-97163850D01*
X220694100Y-97036850D02*
X220694100Y-97290850D01*
X220694100Y-97290850D02*
X220948100Y-97544850D01*
X217519100Y-96020850D02*
X217646100Y-96020850D01*
X222472100Y-97163850D02*
X220948100Y-97544850D01*
X215741100Y-95893850D02*
X213836100Y-93988850D01*
D33*
X211296100Y-88781850D02*
X208375100Y-88781850D01*
X211296100Y-93861850D02*
X208375100Y-93861850D01*
X208375100Y-93861850D02*
X203295100Y-88781850D01*
D31*
X195675100Y-86241850D02*
X198215100Y-88781850D01*
D30*
X220821100Y-122563850D02*
X220948100Y-122944850D01*
D33*
X219932100Y-121674850D02*
X217773100Y-121674850D01*
X220821100Y-122563850D02*
X219932100Y-121674850D01*
D30*
X216757100Y-120658850D02*
X216630100Y-120023850D01*
D33*
X217773100Y-121674850D02*
X216757100Y-120658850D01*
D30*
X87217100Y-109863850D02*
X87090100Y-109736850D01*
D36*
X87217100Y-109863850D02*
X89249100Y-109863850D01*
D33*
X90265100Y-110879850D02*
X90265100Y-111006850D01*
D36*
X89249100Y-109863850D02*
X90265100Y-110879850D01*
D37*
X112871100Y-143538850D02*
X112871100Y-133993850D01*
D32*
X113840100Y-143538850D02*
X112871100Y-143538850D01*
D37*
X118840100Y-143538850D02*
X118840100Y-119769850D01*
D32*
X123840100Y-143538850D02*
X124809100Y-143538850D01*
D37*
X124809100Y-143538850D02*
X124809100Y-133993850D01*
M02*
