G04 #@! TF.GenerationSoftware,KiCad,Pcbnew,(6.0.9)*
G04 #@! TF.CreationDate,2022-12-31T07:10:20+09:00*
G04 #@! TF.ProjectId,osso,6f73736f-2e6b-4696-9361-645f70636258,rev?*
G04 #@! TF.SameCoordinates,Original*
G04 #@! TF.FileFunction,AssemblyDrawing,Bot*
%FSLAX46Y46*%
G04 Gerber Fmt 4.6, Leading zero omitted, Abs format (unit mm)*
G04 Created by KiCad (PCBNEW (6.0.9)) date 2022-12-31 07:10:20*
%MOMM*%
%LPD*%
G01*
G04 APERTURE LIST*
%ADD10C,0.101600*%
%ADD11C,0.127000*%
G04 APERTURE END LIST*
D10*
X173925442Y-132568547D02*
X173981080Y-132735461D01*
X174036719Y-132791099D01*
X174147995Y-132846737D01*
X174314909Y-132846737D01*
X174426185Y-132791099D01*
X174481823Y-132735461D01*
X174537461Y-132624185D01*
X174537461Y-132179080D01*
X173369061Y-132179080D01*
X173369061Y-132568547D01*
X173424700Y-132679823D01*
X173480338Y-132735461D01*
X173591614Y-132791099D01*
X173702890Y-132791099D01*
X173814166Y-132735461D01*
X173869804Y-132679823D01*
X173925442Y-132568547D01*
X173925442Y-132179080D01*
X173925442Y-133347480D02*
X173925442Y-133736947D01*
X174537461Y-133903861D02*
X174537461Y-133347480D01*
X173369061Y-133347480D01*
X173369061Y-133903861D01*
X174203633Y-134348966D02*
X174203633Y-134905347D01*
X174537461Y-134237690D02*
X173369061Y-134627156D01*
X174537461Y-135016623D01*
X173424700Y-136018109D02*
X173369061Y-135906832D01*
X173369061Y-135739918D01*
X173424700Y-135573004D01*
X173535976Y-135461728D01*
X173647252Y-135406090D01*
X173869804Y-135350451D01*
X174036719Y-135350451D01*
X174259271Y-135406090D01*
X174370547Y-135461728D01*
X174481823Y-135573004D01*
X174537461Y-135739918D01*
X174537461Y-135851194D01*
X174481823Y-136018109D01*
X174426185Y-136073747D01*
X174036719Y-136073747D01*
X174036719Y-135851194D01*
X174537461Y-137130870D02*
X174537461Y-136574490D01*
X173369061Y-136574490D01*
X173925442Y-137520337D02*
X173925442Y-137909804D01*
X174537461Y-138076718D02*
X174537461Y-137520337D01*
X173369061Y-137520337D01*
X173369061Y-138076718D01*
X173925442Y-138966928D02*
X173981080Y-139133842D01*
X174036719Y-139189480D01*
X174147995Y-139245118D01*
X174314909Y-139245118D01*
X174426185Y-139189480D01*
X174481823Y-139133842D01*
X174537461Y-139022566D01*
X174537461Y-138577461D01*
X173369061Y-138577461D01*
X173369061Y-138966928D01*
X173424700Y-139078204D01*
X173480338Y-139133842D01*
X173591614Y-139189480D01*
X173702890Y-139189480D01*
X173814166Y-139133842D01*
X173869804Y-139078204D01*
X173925442Y-138966928D01*
X173925442Y-138577461D01*
X173369061Y-139968413D02*
X173369061Y-140190966D01*
X173424700Y-140302242D01*
X173535976Y-140413518D01*
X173758528Y-140469156D01*
X174147995Y-140469156D01*
X174370547Y-140413518D01*
X174481823Y-140302242D01*
X174537461Y-140190966D01*
X174537461Y-139968413D01*
X174481823Y-139857137D01*
X174370547Y-139745861D01*
X174147995Y-139690223D01*
X173758528Y-139690223D01*
X173535976Y-139745861D01*
X173424700Y-139857137D01*
X173369061Y-139968413D01*
X174537461Y-140969899D02*
X173369061Y-140969899D01*
X174537461Y-141637556D01*
X173369061Y-141637556D01*
X173925442Y-142193937D02*
X173925442Y-142583404D01*
X174537461Y-142750318D02*
X174537461Y-142193937D01*
X173369061Y-142193937D01*
X173369061Y-142750318D01*
X174648738Y-142972870D02*
X174648738Y-143863080D01*
X173369061Y-144363823D02*
X173369061Y-144586375D01*
X173424700Y-144697651D01*
X173535976Y-144808928D01*
X173758528Y-144864566D01*
X174147995Y-144864566D01*
X174370547Y-144808928D01*
X174481823Y-144697651D01*
X174537461Y-144586375D01*
X174537461Y-144363823D01*
X174481823Y-144252547D01*
X174370547Y-144141270D01*
X174147995Y-144085632D01*
X173758528Y-144085632D01*
X173535976Y-144141270D01*
X173424700Y-144252547D01*
X173369061Y-144363823D01*
X173369061Y-145365309D02*
X174314909Y-145365309D01*
X174426185Y-145420947D01*
X174481823Y-145476585D01*
X174537461Y-145587861D01*
X174537461Y-145810413D01*
X174481823Y-145921690D01*
X174426185Y-145977328D01*
X174314909Y-146032966D01*
X173369061Y-146032966D01*
X173369061Y-146422432D02*
X173369061Y-147090090D01*
X174537461Y-146756261D02*
X173369061Y-146756261D01*
X174537461Y-148035937D02*
X174537461Y-147479556D01*
X173369061Y-147479556D01*
X174537461Y-148425404D02*
X173369061Y-148425404D01*
X174537461Y-148981785D02*
X173369061Y-148981785D01*
X174537461Y-149649442D01*
X173369061Y-149649442D01*
X173925442Y-150205823D02*
X173925442Y-150595290D01*
X174537461Y-150762204D02*
X174537461Y-150205823D01*
X173369061Y-150205823D01*
X173369061Y-150762204D01*
X171708869Y-72089211D02*
X171708869Y-70920811D01*
X171263764Y-70920811D01*
X171152488Y-70976450D01*
X171096850Y-71032088D01*
X171041212Y-71143364D01*
X171041212Y-71310278D01*
X171096850Y-71421554D01*
X171152488Y-71477192D01*
X171263764Y-71532830D01*
X171708869Y-71532830D01*
X170484831Y-72089211D02*
X170262279Y-72089211D01*
X170151002Y-72033573D01*
X170095364Y-71977935D01*
X169984088Y-71811021D01*
X169928450Y-71588469D01*
X169928450Y-71143364D01*
X169984088Y-71032088D01*
X170039726Y-70976450D01*
X170151002Y-70920811D01*
X170373555Y-70920811D01*
X170484831Y-70976450D01*
X170540469Y-71032088D01*
X170596107Y-71143364D01*
X170596107Y-71421554D01*
X170540469Y-71532830D01*
X170484831Y-71588469D01*
X170373555Y-71644107D01*
X170151002Y-71644107D01*
X170039726Y-71588469D01*
X169984088Y-71532830D01*
X169928450Y-71421554D01*
X219968869Y-72089211D02*
X219968869Y-70920811D01*
X219523764Y-70920811D01*
X219412488Y-70976450D01*
X219356850Y-71032088D01*
X219301212Y-71143364D01*
X219301212Y-71310278D01*
X219356850Y-71421554D01*
X219412488Y-71477192D01*
X219523764Y-71532830D01*
X219968869Y-71532830D01*
X218633555Y-71421554D02*
X218744831Y-71365916D01*
X218800469Y-71310278D01*
X218856107Y-71199002D01*
X218856107Y-71143364D01*
X218800469Y-71032088D01*
X218744831Y-70976450D01*
X218633555Y-70920811D01*
X218411002Y-70920811D01*
X218299726Y-70976450D01*
X218244088Y-71032088D01*
X218188450Y-71143364D01*
X218188450Y-71199002D01*
X218244088Y-71310278D01*
X218299726Y-71365916D01*
X218411002Y-71421554D01*
X218633555Y-71421554D01*
X218744831Y-71477192D01*
X218800469Y-71532830D01*
X218856107Y-71644107D01*
X218856107Y-71866659D01*
X218800469Y-71977935D01*
X218744831Y-72033573D01*
X218633555Y-72089211D01*
X218411002Y-72089211D01*
X218299726Y-72033573D01*
X218244088Y-71977935D01*
X218188450Y-71866659D01*
X218188450Y-71644107D01*
X218244088Y-71532830D01*
X218299726Y-71477192D01*
X218411002Y-71421554D01*
D11*
X210153100Y-63254850D02*
X180943100Y-63254850D01*
X216503100Y-149614850D02*
X174593100Y-149614850D01*
X204438100Y-129294850D02*
X186658100Y-129294850D01*
X180943100Y-135009850D02*
X168243100Y-135009850D01*
X222853100Y-135009850D02*
X210153100Y-135009850D01*
X168243100Y-135009850D02*
X168243100Y-143264850D01*
X168243100Y-75954850D02*
X168243100Y-135009850D01*
X222853100Y-135009850D02*
X222853100Y-143264850D01*
X222853100Y-75954850D02*
X222853100Y-135009850D01*
X180943100Y-63254850D02*
G75*
G03*
X168243100Y-75954850I0J-12700000D01*
G01*
X216503100Y-149614850D02*
G75*
G03*
X222853100Y-143264850I0J6350000D01*
G01*
X186658100Y-129294850D02*
G75*
G03*
X180943100Y-135009850I0J-5715000D01*
G01*
X168243100Y-143264850D02*
G75*
G03*
X174593100Y-149614850I6350000J0D01*
G01*
X222853100Y-75954850D02*
G75*
G03*
X210153100Y-63254850I-12700000J0D01*
G01*
X210153100Y-135009850D02*
G75*
G03*
X204438100Y-129294850I-5715000J0D01*
G01*
G36*
X221202100Y-110498850D02*
G01*
X220694100Y-110498850D01*
X220694100Y-109990850D01*
X221202100Y-109990850D01*
X221202100Y-110498850D01*
G37*
G36*
X172942100Y-95258850D02*
G01*
X172434100Y-95258850D01*
X172434100Y-94750850D01*
X172942100Y-94750850D01*
X172942100Y-95258850D01*
G37*
G36*
X172942100Y-97798850D02*
G01*
X172434100Y-97798850D01*
X172434100Y-97290850D01*
X172942100Y-97290850D01*
X172942100Y-97798850D01*
G37*
G36*
X172942100Y-125738850D02*
G01*
X172434100Y-125738850D01*
X172434100Y-125230850D01*
X172942100Y-125230850D01*
X172942100Y-125738850D01*
G37*
G36*
X218662100Y-92718850D02*
G01*
X218154100Y-92718850D01*
X218154100Y-92210850D01*
X218662100Y-92210850D01*
X218662100Y-92718850D01*
G37*
G36*
X170402100Y-118118850D02*
G01*
X169894100Y-118118850D01*
X169894100Y-117610850D01*
X170402100Y-117610850D01*
X170402100Y-118118850D01*
G37*
G36*
X221202100Y-74938850D02*
G01*
X220694100Y-74938850D01*
X220694100Y-74430850D01*
X221202100Y-74430850D01*
X221202100Y-74938850D01*
G37*
G36*
X172942100Y-100338850D02*
G01*
X172434100Y-100338850D01*
X172434100Y-99830850D01*
X172942100Y-99830850D01*
X172942100Y-100338850D01*
G37*
G36*
X170402100Y-92718850D02*
G01*
X169894100Y-92718850D01*
X169894100Y-92210850D01*
X170402100Y-92210850D01*
X170402100Y-92718850D01*
G37*
G36*
X172942100Y-128278850D02*
G01*
X172434100Y-128278850D01*
X172434100Y-127770850D01*
X172942100Y-127770850D01*
X172942100Y-128278850D01*
G37*
G36*
X221202100Y-115578850D02*
G01*
X220694100Y-115578850D01*
X220694100Y-115070850D01*
X221202100Y-115070850D01*
X221202100Y-115578850D01*
G37*
G36*
X172942100Y-77478850D02*
G01*
X172434100Y-77478850D01*
X172434100Y-76970850D01*
X172942100Y-76970850D01*
X172942100Y-77478850D01*
G37*
G36*
X170402100Y-105418850D02*
G01*
X169894100Y-105418850D01*
X169894100Y-104910850D01*
X170402100Y-104910850D01*
X170402100Y-105418850D01*
G37*
G36*
X172942100Y-87638850D02*
G01*
X172434100Y-87638850D01*
X172434100Y-87130850D01*
X172942100Y-87130850D01*
X172942100Y-87638850D01*
G37*
G36*
X170402100Y-107958850D02*
G01*
X169894100Y-107958850D01*
X169894100Y-107450850D01*
X170402100Y-107450850D01*
X170402100Y-107958850D01*
G37*
G36*
X221202100Y-80018850D02*
G01*
X220694100Y-80018850D01*
X220694100Y-79510850D01*
X221202100Y-79510850D01*
X221202100Y-80018850D01*
G37*
G36*
X170402100Y-90178850D02*
G01*
X169894100Y-90178850D01*
X169894100Y-89670850D01*
X170402100Y-89670850D01*
X170402100Y-90178850D01*
G37*
G36*
X218662100Y-128278850D02*
G01*
X218154100Y-128278850D01*
X218154100Y-127770850D01*
X218662100Y-127770850D01*
X218662100Y-128278850D01*
G37*
G36*
X221202100Y-87638850D02*
G01*
X220694100Y-87638850D01*
X220694100Y-87130850D01*
X221202100Y-87130850D01*
X221202100Y-87638850D01*
G37*
G36*
X218662100Y-74938850D02*
G01*
X218154100Y-74938850D01*
X218154100Y-74430850D01*
X218662100Y-74430850D01*
X218662100Y-74938850D01*
G37*
G36*
X218662100Y-87638850D02*
G01*
X218154100Y-87638850D01*
X218154100Y-87130850D01*
X218662100Y-87130850D01*
X218662100Y-87638850D01*
G37*
G36*
X170402100Y-82558850D02*
G01*
X169894100Y-82558850D01*
X169894100Y-82050850D01*
X170402100Y-82050850D01*
X170402100Y-82558850D01*
G37*
G36*
X170402100Y-85098850D02*
G01*
X169894100Y-85098850D01*
X169894100Y-84590850D01*
X170402100Y-84590850D01*
X170402100Y-85098850D01*
G37*
G36*
X218662100Y-105418850D02*
G01*
X218154100Y-105418850D01*
X218154100Y-104910850D01*
X218662100Y-104910850D01*
X218662100Y-105418850D01*
G37*
G36*
X221202100Y-118118850D02*
G01*
X220694100Y-118118850D01*
X220694100Y-117610850D01*
X221202100Y-117610850D01*
X221202100Y-118118850D01*
G37*
G36*
X218662100Y-102878850D02*
G01*
X218154100Y-102878850D01*
X218154100Y-102370850D01*
X218662100Y-102370850D01*
X218662100Y-102878850D01*
G37*
G36*
X218662100Y-80018850D02*
G01*
X218154100Y-80018850D01*
X218154100Y-79510850D01*
X218662100Y-79510850D01*
X218662100Y-80018850D01*
G37*
G36*
X221202100Y-85098850D02*
G01*
X220694100Y-85098850D01*
X220694100Y-84590850D01*
X221202100Y-84590850D01*
X221202100Y-85098850D01*
G37*
G36*
X221202100Y-102878850D02*
G01*
X220694100Y-102878850D01*
X220694100Y-102370850D01*
X221202100Y-102370850D01*
X221202100Y-102878850D01*
G37*
G36*
X221202100Y-107958850D02*
G01*
X220694100Y-107958850D01*
X220694100Y-107450850D01*
X221202100Y-107450850D01*
X221202100Y-107958850D01*
G37*
G36*
X172942100Y-130818850D02*
G01*
X172434100Y-130818850D01*
X172434100Y-130310850D01*
X172942100Y-130310850D01*
X172942100Y-130818850D01*
G37*
G36*
X170402100Y-130818850D02*
G01*
X169894100Y-130818850D01*
X169894100Y-130310850D01*
X170402100Y-130310850D01*
X170402100Y-130818850D01*
G37*
G36*
X172942100Y-113038850D02*
G01*
X172434100Y-113038850D01*
X172434100Y-112530850D01*
X172942100Y-112530850D01*
X172942100Y-113038850D01*
G37*
G36*
X221202100Y-125738850D02*
G01*
X220694100Y-125738850D01*
X220694100Y-125230850D01*
X221202100Y-125230850D01*
X221202100Y-125738850D01*
G37*
G36*
X221202100Y-92718850D02*
G01*
X220694100Y-92718850D01*
X220694100Y-92210850D01*
X221202100Y-92210850D01*
X221202100Y-92718850D01*
G37*
G36*
X170402100Y-102878850D02*
G01*
X169894100Y-102878850D01*
X169894100Y-102370850D01*
X170402100Y-102370850D01*
X170402100Y-102878850D01*
G37*
G36*
X218662100Y-77478850D02*
G01*
X218154100Y-77478850D01*
X218154100Y-76970850D01*
X218662100Y-76970850D01*
X218662100Y-77478850D01*
G37*
G36*
X172942100Y-118118850D02*
G01*
X172434100Y-118118850D01*
X172434100Y-117610850D01*
X172942100Y-117610850D01*
X172942100Y-118118850D01*
G37*
G36*
X221202100Y-113038850D02*
G01*
X220694100Y-113038850D01*
X220694100Y-112530850D01*
X221202100Y-112530850D01*
X221202100Y-113038850D01*
G37*
G36*
X172942100Y-105418850D02*
G01*
X172434100Y-105418850D01*
X172434100Y-104910850D01*
X172942100Y-104910850D01*
X172942100Y-105418850D01*
G37*
G36*
X172942100Y-123198850D02*
G01*
X172434100Y-123198850D01*
X172434100Y-122690850D01*
X172942100Y-122690850D01*
X172942100Y-123198850D01*
G37*
G36*
X221202100Y-82558850D02*
G01*
X220694100Y-82558850D01*
X220694100Y-82050850D01*
X221202100Y-82050850D01*
X221202100Y-82558850D01*
G37*
G36*
X172942100Y-102878850D02*
G01*
X172434100Y-102878850D01*
X172434100Y-102370850D01*
X172942100Y-102370850D01*
X172942100Y-102878850D01*
G37*
G36*
X170402100Y-125738850D02*
G01*
X169894100Y-125738850D01*
X169894100Y-125230850D01*
X170402100Y-125230850D01*
X170402100Y-125738850D01*
G37*
G36*
X170402100Y-123198850D02*
G01*
X169894100Y-123198850D01*
X169894100Y-122690850D01*
X170402100Y-122690850D01*
X170402100Y-123198850D01*
G37*
G36*
X218662100Y-130818850D02*
G01*
X218154100Y-130818850D01*
X218154100Y-130310850D01*
X218662100Y-130310850D01*
X218662100Y-130818850D01*
G37*
G36*
X172942100Y-115578850D02*
G01*
X172434100Y-115578850D01*
X172434100Y-115070850D01*
X172942100Y-115070850D01*
X172942100Y-115578850D01*
G37*
G36*
X218662100Y-118118850D02*
G01*
X218154100Y-118118850D01*
X218154100Y-117610850D01*
X218662100Y-117610850D01*
X218662100Y-118118850D01*
G37*
G36*
X221202100Y-130818850D02*
G01*
X220694100Y-130818850D01*
X220694100Y-130310850D01*
X221202100Y-130310850D01*
X221202100Y-130818850D01*
G37*
G36*
X218662100Y-90178850D02*
G01*
X218154100Y-90178850D01*
X218154100Y-89670850D01*
X218662100Y-89670850D01*
X218662100Y-90178850D01*
G37*
G36*
X218662100Y-100338850D02*
G01*
X218154100Y-100338850D01*
X218154100Y-99830850D01*
X218662100Y-99830850D01*
X218662100Y-100338850D01*
G37*
G36*
X170402100Y-100338850D02*
G01*
X169894100Y-100338850D01*
X169894100Y-99830850D01*
X170402100Y-99830850D01*
X170402100Y-100338850D01*
G37*
G36*
X218662100Y-120658850D02*
G01*
X218154100Y-120658850D01*
X218154100Y-120150850D01*
X218662100Y-120150850D01*
X218662100Y-120658850D01*
G37*
G36*
X172942100Y-80018850D02*
G01*
X172434100Y-80018850D01*
X172434100Y-79510850D01*
X172942100Y-79510850D01*
X172942100Y-80018850D01*
G37*
G36*
X172942100Y-120658850D02*
G01*
X172434100Y-120658850D01*
X172434100Y-120150850D01*
X172942100Y-120150850D01*
X172942100Y-120658850D01*
G37*
G36*
X218662100Y-85098850D02*
G01*
X218154100Y-85098850D01*
X218154100Y-84590850D01*
X218662100Y-84590850D01*
X218662100Y-85098850D01*
G37*
G36*
X218662100Y-107958850D02*
G01*
X218154100Y-107958850D01*
X218154100Y-107450850D01*
X218662100Y-107450850D01*
X218662100Y-107958850D01*
G37*
G36*
X170402100Y-80018850D02*
G01*
X169894100Y-80018850D01*
X169894100Y-79510850D01*
X170402100Y-79510850D01*
X170402100Y-80018850D01*
G37*
G36*
X172942100Y-85098850D02*
G01*
X172434100Y-85098850D01*
X172434100Y-84590850D01*
X172942100Y-84590850D01*
X172942100Y-85098850D01*
G37*
G36*
X221202100Y-90178850D02*
G01*
X220694100Y-90178850D01*
X220694100Y-89670850D01*
X221202100Y-89670850D01*
X221202100Y-90178850D01*
G37*
G36*
X172942100Y-107958850D02*
G01*
X172434100Y-107958850D01*
X172434100Y-107450850D01*
X172942100Y-107450850D01*
X172942100Y-107958850D01*
G37*
G36*
X170402100Y-113038850D02*
G01*
X169894100Y-113038850D01*
X169894100Y-112530850D01*
X170402100Y-112530850D01*
X170402100Y-113038850D01*
G37*
G36*
X221202100Y-97798850D02*
G01*
X220694100Y-97798850D01*
X220694100Y-97290850D01*
X221202100Y-97290850D01*
X221202100Y-97798850D01*
G37*
G36*
X170402100Y-128278850D02*
G01*
X169894100Y-128278850D01*
X169894100Y-127770850D01*
X170402100Y-127770850D01*
X170402100Y-128278850D01*
G37*
G36*
X170402100Y-115578850D02*
G01*
X169894100Y-115578850D01*
X169894100Y-115070850D01*
X170402100Y-115070850D01*
X170402100Y-115578850D01*
G37*
G36*
X218662100Y-110498850D02*
G01*
X218154100Y-110498850D01*
X218154100Y-109990850D01*
X218662100Y-109990850D01*
X218662100Y-110498850D01*
G37*
G36*
X172942100Y-74938850D02*
G01*
X172434100Y-74938850D01*
X172434100Y-74430850D01*
X172942100Y-74430850D01*
X172942100Y-74938850D01*
G37*
G36*
X170402100Y-97798850D02*
G01*
X169894100Y-97798850D01*
X169894100Y-97290850D01*
X170402100Y-97290850D01*
X170402100Y-97798850D01*
G37*
G36*
X218662100Y-97798850D02*
G01*
X218154100Y-97798850D01*
X218154100Y-97290850D01*
X218662100Y-97290850D01*
X218662100Y-97798850D01*
G37*
G36*
X172942100Y-82558850D02*
G01*
X172434100Y-82558850D01*
X172434100Y-82050850D01*
X172942100Y-82050850D01*
X172942100Y-82558850D01*
G37*
G36*
X221202100Y-95258850D02*
G01*
X220694100Y-95258850D01*
X220694100Y-94750850D01*
X221202100Y-94750850D01*
X221202100Y-95258850D01*
G37*
G36*
X170402100Y-120658850D02*
G01*
X169894100Y-120658850D01*
X169894100Y-120150850D01*
X170402100Y-120150850D01*
X170402100Y-120658850D01*
G37*
G36*
X218662100Y-123198850D02*
G01*
X218154100Y-123198850D01*
X218154100Y-122690850D01*
X218662100Y-122690850D01*
X218662100Y-123198850D01*
G37*
G36*
X170402100Y-110498850D02*
G01*
X169894100Y-110498850D01*
X169894100Y-109990850D01*
X170402100Y-109990850D01*
X170402100Y-110498850D01*
G37*
G36*
X218662100Y-95258850D02*
G01*
X218154100Y-95258850D01*
X218154100Y-94750850D01*
X218662100Y-94750850D01*
X218662100Y-95258850D01*
G37*
G36*
X221202100Y-105418850D02*
G01*
X220694100Y-105418850D01*
X220694100Y-104910850D01*
X221202100Y-104910850D01*
X221202100Y-105418850D01*
G37*
G36*
X221202100Y-123198850D02*
G01*
X220694100Y-123198850D01*
X220694100Y-122690850D01*
X221202100Y-122690850D01*
X221202100Y-123198850D01*
G37*
G36*
X172942100Y-110498850D02*
G01*
X172434100Y-110498850D01*
X172434100Y-109990850D01*
X172942100Y-109990850D01*
X172942100Y-110498850D01*
G37*
G36*
X221202100Y-100338850D02*
G01*
X220694100Y-100338850D01*
X220694100Y-99830850D01*
X221202100Y-99830850D01*
X221202100Y-100338850D01*
G37*
G36*
X218662100Y-82558850D02*
G01*
X218154100Y-82558850D01*
X218154100Y-82050850D01*
X218662100Y-82050850D01*
X218662100Y-82558850D01*
G37*
G36*
X221202100Y-120658850D02*
G01*
X220694100Y-120658850D01*
X220694100Y-120150850D01*
X221202100Y-120150850D01*
X221202100Y-120658850D01*
G37*
G36*
X218662100Y-125738850D02*
G01*
X218154100Y-125738850D01*
X218154100Y-125230850D01*
X218662100Y-125230850D01*
X218662100Y-125738850D01*
G37*
G36*
X218662100Y-113038850D02*
G01*
X218154100Y-113038850D01*
X218154100Y-112530850D01*
X218662100Y-112530850D01*
X218662100Y-113038850D01*
G37*
G36*
X221202100Y-77478850D02*
G01*
X220694100Y-77478850D01*
X220694100Y-76970850D01*
X221202100Y-76970850D01*
X221202100Y-77478850D01*
G37*
G36*
X221202100Y-128278850D02*
G01*
X220694100Y-128278850D01*
X220694100Y-127770850D01*
X221202100Y-127770850D01*
X221202100Y-128278850D01*
G37*
G36*
X172942100Y-92718850D02*
G01*
X172434100Y-92718850D01*
X172434100Y-92210850D01*
X172942100Y-92210850D01*
X172942100Y-92718850D01*
G37*
G36*
X170402100Y-77478850D02*
G01*
X169894100Y-77478850D01*
X169894100Y-76970850D01*
X170402100Y-76970850D01*
X170402100Y-77478850D01*
G37*
G36*
X218662100Y-115578850D02*
G01*
X218154100Y-115578850D01*
X218154100Y-115070850D01*
X218662100Y-115070850D01*
X218662100Y-115578850D01*
G37*
G36*
X170402100Y-95258850D02*
G01*
X169894100Y-95258850D01*
X169894100Y-94750850D01*
X170402100Y-94750850D01*
X170402100Y-95258850D01*
G37*
G36*
X170402100Y-87638850D02*
G01*
X169894100Y-87638850D01*
X169894100Y-87130850D01*
X170402100Y-87130850D01*
X170402100Y-87638850D01*
G37*
G36*
X170402100Y-74938850D02*
G01*
X169894100Y-74938850D01*
X169894100Y-74430850D01*
X170402100Y-74430850D01*
X170402100Y-74938850D01*
G37*
G36*
X172942100Y-90178850D02*
G01*
X172434100Y-90178850D01*
X172434100Y-89670850D01*
X172942100Y-89670850D01*
X172942100Y-90178850D01*
G37*
M02*
