M48
INCH,TZ
T1C0.0236
T2C0.0315
T3C0.0320
T4C0.0360
T5C0.0394
T6C0.0440
T7C0.0470
T8C0.0520
%
G90
G05
T1
X56687Y-42003
X56937Y-40803
X57187Y-39653
X57387Y-38903
X63837Y-40803
X65087Y-39753
X68837Y-40203
X68887Y-42053
X70237Y-45353
T2
X33037Y-40353
X33037Y-41203
X33037Y-42303
X33037Y-44253
X54637Y-39303
X54637Y-40303
X54637Y-41303
X54637Y-42303
X54637Y-43303
X63187Y-49153
X63187Y-50153
X63187Y-51153
X63637Y-44053
X63637Y-45053
X63637Y-46053
X65737Y-41853
X65737Y-42653
X65837Y-32253
X65837Y-39253
X65837Y-41103
X65837Y-45253
X65837Y-48253
X66287Y-33253
X66287Y-34253
X66287Y-35253
X66287Y-36253
X66287Y-37253
X66287Y-46253
X68687Y-32253
X68687Y-33253
X68687Y-34253
X68687Y-35253
X68687Y-36253
X68687Y-37253
X68687Y-38253
X68687Y-41253
X68687Y-44253
X68687Y-45253
X68687Y-47253
X68687Y-48253
X80037Y-33603
X85287Y-29253
X85287Y-30253
X85287Y-31253
X85287Y-32253
X85287Y-33253
X85287Y-34253
X85287Y-35253
X85287Y-36253
X85287Y-37253
X85287Y-38253
X85287Y-39303
X85287Y-40253
X85287Y-41253
X85287Y-42253
X85287Y-45253
X85287Y-47253
X85287Y-49253
X85287Y-50253
X87587Y-29253
X87587Y-30253
X87587Y-31253
X87587Y-32253
X87587Y-33253
X87587Y-34253
X87587Y-35253
X87587Y-36253
X87587Y-37253
X87587Y-38253
X87587Y-40253
X87587Y-41253
X87587Y-42253
X87587Y-47253
X87587Y-49253
X87587Y-50253
T3
X34287Y-41203
X34287Y-43203
X35537Y-40703
X35537Y-43703
X36537Y-40703
X36537Y-43703
X37537Y-40703
X37537Y-43703
X38537Y-40703
X38537Y-43703
X39537Y-40703
X39537Y-43703
X40537Y-40703
X40537Y-43703
X41537Y-40703
X41537Y-43703
X42537Y-40703
X42537Y-43703
X43137Y-35753
X43137Y-37753
X43137Y-44903
X43137Y-46903
X44937Y-39403
X44937Y-42403
X45937Y-39403
X45937Y-42403
X46937Y-39403
X46937Y-42403
X47937Y-39403
X47937Y-42403
X48937Y-39403
X48937Y-42403
X49937Y-39403
X49937Y-42403
X50937Y-39403
X50937Y-42403
X51937Y-39403
X51937Y-42403
X53187Y-39853
X53187Y-41853
X58337Y-33953
X58337Y-36953
X58437Y-28603
X58937Y-29553
X58937Y-32553
X58937Y-53803
X59337Y-33953
X59337Y-36953
X59337Y-38553
X59337Y-41553
X60337Y-33953
X60337Y-36953
X60387Y-47403
X60387Y-50403
X61337Y-33953
X61337Y-36953
X61337Y-38453
X61337Y-41453
X61437Y-28603
X61937Y-53803
X62337Y-33953
X62337Y-36953
X62537Y-28603
X62537Y-29553
X62537Y-32553
X62987Y-53803
X63137Y-38453
X63137Y-41453
X63337Y-33953
X63337Y-36953
X64337Y-33953
X64337Y-36953
X64737Y-48903
X64737Y-50903
X64837Y-38503
X64837Y-41503
X65337Y-33953
X65337Y-36953
X65537Y-28603
X65737Y-49903
X65737Y-52903
X65987Y-53803
X66987Y-53803
X69337Y-28703
X69837Y-30703
X69837Y-33703
X69887Y-29703
X69987Y-49603
X69987Y-52603
X69987Y-53803
X70937Y-53803
X71787Y-40053
X71787Y-43053
X71787Y-44403
X71787Y-47403
X72337Y-28703
X72337Y-30703
X72337Y-33703
X72787Y-44403
X72787Y-47403
X72887Y-29703
X73737Y-35503
X73737Y-37503
X73787Y-40053
X73787Y-43053
X73787Y-44403
X73787Y-47403
X73937Y-49853
X73937Y-52853
X73937Y-53803
X74087Y-33953
X74787Y-44403
X74787Y-47403
X75037Y-34953
X75037Y-37953
X75787Y-40053
X75787Y-43053
X75787Y-44403
X75787Y-47403
X76037Y-34953
X76037Y-37953
X76037Y-55003
X76087Y-33953
X76787Y-44403
X76787Y-47403
X77037Y-33953
X77037Y-34953
X77037Y-37953
X77787Y-40053
X77787Y-43053
X77787Y-44403
X77787Y-47403
X78037Y-29703
X78037Y-32703
X78037Y-34953
X78037Y-37953
X78037Y-55003
X78337Y-28603
X78787Y-44403
X78787Y-47403
X79037Y-29703
X79037Y-32703
X79037Y-33953
X79037Y-34953
X79037Y-37953
X80037Y-29703
X80037Y-32703
X80037Y-34953
X80037Y-37953
X81037Y-29703
X81037Y-32703
X81037Y-33853
X81037Y-34953
X81037Y-37953
X81337Y-28603
X82037Y-34953
X82037Y-37953
X83037Y-33853
X83187Y-34953
X83187Y-36953
T4
X65337Y-46253
X65337Y-47253
T5
X66987Y-29403
X66987Y-30403
X66987Y-31403
X66987Y-32403
X66987Y-33403
X66987Y-34403
X66987Y-35403
X66987Y-36403
X66987Y-37403
X66987Y-38403
X66987Y-39403
X66987Y-40403
X66987Y-41403
X66987Y-42403
X66987Y-43403
X66987Y-44403
X66987Y-45403
X66987Y-46403
X66987Y-47403
X66987Y-48403
X66987Y-49403
X66987Y-50403
X66987Y-51403
X67987Y-29403
X67987Y-30403
X67987Y-31403
X67987Y-32403
X67987Y-33403
X67987Y-34403
X67987Y-35403
X67987Y-36403
X67987Y-37403
X67987Y-38403
X67987Y-39403
X67987Y-40403
X67987Y-41403
X67987Y-42403
X67987Y-43403
X67987Y-44403
X67987Y-45403
X67987Y-46403
X67987Y-47403
X67987Y-48403
X67987Y-49403
X67987Y-50403
X67987Y-51403
X85987Y-29403
X85987Y-30403
X85987Y-31403
X85987Y-32403
X85987Y-33403
X85987Y-34403
X85987Y-35403
X85987Y-36403
X85987Y-37403
X85987Y-38403
X85987Y-39403
X85987Y-40403
X85987Y-41403
X85987Y-42403
X85987Y-43403
X85987Y-44403
X85987Y-45403
X85987Y-46403
X85987Y-47403
X85987Y-48403
X85987Y-49403
X85987Y-50403
X85987Y-51403
X86987Y-29403
X86987Y-30403
X86987Y-31403
X86987Y-32403
X86987Y-33403
X86987Y-34403
X86987Y-35403
X86987Y-36403
X86987Y-37403
X86987Y-38403
X86987Y-39403
X86987Y-40403
X86987Y-41403
X86987Y-42403
X86987Y-43403
X86987Y-44403
X86987Y-45403
X86987Y-46403
X86987Y-47403
X86987Y-48403
X86987Y-49403
X86987Y-50403
X86987Y-51403
T6
X76037Y-56503
X81037Y-56503
T7
X30319Y-26146
X30319Y-56511
X30937Y-38319
X30937Y-40288
X30937Y-42319
X30937Y-44288
X32287Y-26146
X32287Y-56511
X34256Y-26146
X34256Y-56511
X37519Y-26146
X37519Y-56511
X39487Y-26146
X39487Y-56511
X41456Y-26146
X41456Y-56511
X44719Y-26146
X44819Y-56511
X46687Y-26146
X46787Y-56511
X48656Y-26146
X48756Y-56511
X51919Y-26146
X51969Y-56511
X53887Y-26146
X53937Y-56511
X55856Y-26146
X55906Y-56511
X58953Y-26153
X58953Y-56503
X60922Y-26153
X60922Y-56503
X62953Y-26153
X62953Y-56503
X64922Y-26153
X64922Y-56503
X66953Y-26153
X66953Y-56503
X68922Y-26153
X68922Y-56503
X70953Y-26153
X70953Y-56503
X72922Y-26153
X72922Y-56503
X74953Y-26153
X76922Y-26153
X78919Y-26146
X80887Y-26146
X82856Y-26146
X83703Y-56503
X84853Y-26153
X85672Y-56503
X86822Y-26153
T8
X29937Y-30003
X29937Y-34803
X29937Y-47853
X29937Y-52653
X32287Y-35603
X32287Y-47053
X34637Y-30003
X34637Y-34803
X34637Y-47853
X34637Y-52653
X37137Y-30003
X37137Y-34803
X37137Y-47853
X37137Y-52653
X39487Y-35603
X39487Y-47053
X41837Y-30003
X41837Y-34803
X41837Y-47853
X41837Y-52653
X44337Y-30003
X44337Y-34803
X44437Y-47953
X44437Y-52753
X46687Y-35603
X46787Y-47153
X49037Y-30003
X49037Y-34803
X49137Y-47953
X49137Y-52753
X51537Y-30003
X51537Y-34803
X51537Y-47853
X51537Y-52653
X53887Y-35603
X53887Y-47053
X56237Y-30003
X56237Y-34803
X56237Y-47853
X56237Y-52653
T0
M30
