G04 #@! TF.GenerationSoftware,KiCad,Pcbnew,(6.0.9)*
G04 #@! TF.CreationDate,2022-12-31T07:10:18+09:00*
G04 #@! TF.ProjectId,osso,6f73736f-2e6b-4696-9361-645f70636258,rev?*
G04 #@! TF.SameCoordinates,Original*
G04 #@! TF.FileFunction,Copper,L1,Top*
G04 #@! TF.FilePolarity,Positive*
%FSLAX46Y46*%
G04 Gerber Fmt 4.6, Leading zero omitted, Abs format (unit mm)*
G04 Created by KiCad (PCBNEW (6.0.9)) date 2022-12-31 07:10:18*
%MOMM*%
%LPD*%
G01*
G04 APERTURE LIST*
G04 Aperture macros list*
%AMOutline5P*
0 Free polygon, 5 corners , with rotation*
0 The origin of the aperture is its center*
0 number of corners: always 5*
0 $1 to $10 corner X, Y*
0 $11 Rotation angle, in degrees counterclockwise*
0 create outline with 5 corners*
4,1,5,$1,$2,$3,$4,$5,$6,$7,$8,$9,$10,$1,$2,$11*%
%AMOutline6P*
0 Free polygon, 6 corners , with rotation*
0 The origin of the aperture is its center*
0 number of corners: always 6*
0 $1 to $12 corner X, Y*
0 $13 Rotation angle, in degrees counterclockwise*
0 create outline with 6 corners*
4,1,6,$1,$2,$3,$4,$5,$6,$7,$8,$9,$10,$11,$12,$1,$2,$13*%
%AMOutline7P*
0 Free polygon, 7 corners , with rotation*
0 The origin of the aperture is its center*
0 number of corners: always 7*
0 $1 to $14 corner X, Y*
0 $15 Rotation angle, in degrees counterclockwise*
0 create outline with 7 corners*
4,1,7,$1,$2,$3,$4,$5,$6,$7,$8,$9,$10,$11,$12,$13,$14,$1,$2,$15*%
%AMOutline8P*
0 Free polygon, 8 corners , with rotation*
0 The origin of the aperture is its center*
0 number of corners: always 8*
0 $1 to $16 corner X, Y*
0 $17 Rotation angle, in degrees counterclockwise*
0 create outline with 8 corners*
4,1,8,$1,$2,$3,$4,$5,$6,$7,$8,$9,$10,$11,$12,$13,$14,$15,$16,$1,$2,$17*%
G04 Aperture macros list end*
G04 #@! TA.AperFunction,ComponentPad*
%ADD10Outline8P,-0.609600X0.252505X-0.252505X0.609600X0.252505X0.609600X0.609600X0.252505X0.609600X-0.252505X0.252505X-0.609600X-0.252505X-0.609600X-0.609600X-0.252505X270.000000*%
G04 #@! TD*
G04 #@! TA.AperFunction,ComponentPad*
%ADD11Outline8P,-0.800100X0.331412X-0.331412X0.800100X0.331412X0.800100X0.800100X0.331412X0.800100X-0.331412X0.331412X-0.800100X-0.331412X-0.800100X-0.800100X-0.331412X180.000000*%
G04 #@! TD*
G04 #@! TA.AperFunction,ComponentPad*
%ADD12Outline8P,-0.654000X0.270896X-0.270896X0.654000X0.270896X0.654000X0.654000X0.270896X0.654000X-0.270896X0.270896X-0.654000X-0.270896X-0.654000X-0.654000X-0.270896X0.000000*%
G04 #@! TD*
G04 #@! TA.AperFunction,ComponentPad*
%ADD13Outline8P,-0.800100X0.331412X-0.331412X0.800100X0.331412X0.800100X0.800100X0.331412X0.800100X-0.331412X0.331412X-0.800100X-0.331412X-0.800100X-0.800100X-0.331412X90.000000*%
G04 #@! TD*
G04 #@! TA.AperFunction,ComponentPad*
%ADD14Outline8P,-0.800100X0.331412X-0.331412X0.800100X0.331412X0.800100X0.800100X0.331412X0.800100X-0.331412X0.331412X-0.800100X-0.331412X-0.800100X-0.800100X-0.331412X270.000000*%
G04 #@! TD*
G04 #@! TA.AperFunction,ComponentPad*
%ADD15O,1.790700X3.581400*%
G04 #@! TD*
G04 #@! TA.AperFunction,ComponentPad*
%ADD16Outline8P,-0.609600X0.252505X-0.252505X0.609600X0.252505X0.609600X0.609600X0.252505X0.609600X-0.252505X0.252505X-0.609600X-0.252505X-0.609600X-0.609600X-0.252505X0.000000*%
G04 #@! TD*
G04 #@! TA.AperFunction,ComponentPad*
%ADD17O,1.219200X2.438400*%
G04 #@! TD*
G04 #@! TA.AperFunction,ComponentPad*
%ADD18Outline8P,-0.609600X0.252505X-0.252505X0.609600X0.252505X0.609600X0.609600X0.252505X0.609600X-0.252505X0.252505X-0.609600X-0.252505X-0.609600X-0.609600X-0.252505X90.000000*%
G04 #@! TD*
G04 #@! TA.AperFunction,ComponentPad*
%ADD19O,1.981200X3.962400*%
G04 #@! TD*
G04 #@! TA.AperFunction,ComponentPad*
%ADD20O,3.581400X1.790700*%
G04 #@! TD*
G04 #@! TA.AperFunction,ComponentPad*
%ADD21R,1.200000X1.200000*%
G04 #@! TD*
G04 #@! TA.AperFunction,ComponentPad*
%ADD22C,1.200000*%
G04 #@! TD*
G04 #@! TA.AperFunction,ComponentPad*
%ADD23Outline8P,-0.800100X0.331412X-0.331412X0.800100X0.331412X0.800100X0.800100X0.331412X0.800100X-0.331412X0.331412X-0.800100X-0.331412X-0.800100X-0.800100X-0.331412X0.000000*%
G04 #@! TD*
G04 #@! TA.AperFunction,ComponentPad*
%ADD24Outline8P,-0.609600X0.252505X-0.252505X0.609600X0.252505X0.609600X0.609600X0.252505X0.609600X-0.252505X0.252505X-0.609600X-0.252505X-0.609600X-0.609600X-0.252505X180.000000*%
G04 #@! TD*
G04 #@! TA.AperFunction,ComponentPad*
%ADD25O,3.352800X1.676400*%
G04 #@! TD*
G04 #@! TA.AperFunction,ComponentPad*
%ADD26O,2.743200X1.371600*%
G04 #@! TD*
G04 #@! TA.AperFunction,ComponentPad*
%ADD27R,1.500000X1.500000*%
G04 #@! TD*
G04 #@! TA.AperFunction,ComponentPad*
%ADD28C,1.500000*%
G04 #@! TD*
G04 #@! TA.AperFunction,ViaPad*
%ADD29C,0.904800*%
G04 #@! TD*
G04 #@! TA.AperFunction,Conductor*
%ADD30C,0.762000*%
G04 #@! TD*
G04 #@! TA.AperFunction,Conductor*
%ADD31C,0.254000*%
G04 #@! TD*
G04 #@! TA.AperFunction,Conductor*
%ADD32C,0.508000*%
G04 #@! TD*
G04 #@! TA.AperFunction,Conductor*
%ADD33C,0.381000*%
G04 #@! TD*
G04 #@! TA.AperFunction,Conductor*
%ADD34C,0.152400*%
G04 #@! TD*
G04 #@! TA.AperFunction,Conductor*
%ADD35C,0.406400*%
G04 #@! TD*
G04 #@! TA.AperFunction,Conductor*
%ADD36C,1.016000*%
G04 #@! TD*
G04 APERTURE END LIST*
D10*
X155797100Y-97671850D03*
X155797100Y-105291850D03*
D11*
X200755100Y-86241850D03*
X195675100Y-86241850D03*
D12*
X222472100Y-84463850D03*
D13*
X87090100Y-109736850D03*
X87090100Y-104656850D03*
D12*
X222472100Y-125103850D03*
X203295100Y-85352850D03*
D14*
X109569100Y-90813850D03*
X109569100Y-95893850D03*
D12*
X222472100Y-79383850D03*
X222472100Y-81923850D03*
X216630100Y-84463850D03*
X168370100Y-117483850D03*
D10*
X150717100Y-97925850D03*
X150717100Y-105545850D03*
D12*
X216630100Y-92083850D03*
X83915100Y-104656850D03*
X168370100Y-92083850D03*
X222472100Y-97163850D03*
X174466100Y-81923850D03*
D15*
X154741100Y-66429850D03*
X149741100Y-66429850D03*
D12*
X174466100Y-92083850D03*
X174466100Y-84463850D03*
D13*
X187293100Y-95258850D03*
X187293100Y-90178850D03*
D12*
X167227100Y-122563850D03*
X216630100Y-127643850D03*
X216630100Y-89543850D03*
X216630100Y-97163850D03*
D15*
X164901100Y-66429850D03*
X159901100Y-66429850D03*
D12*
X222472100Y-127643850D03*
D14*
X211296100Y-88781850D03*
X211296100Y-93861850D03*
D15*
X77010100Y-143538850D03*
X82010100Y-143538850D03*
X87010100Y-143538850D03*
X175061100Y-66429850D03*
X170061100Y-66429850D03*
D16*
X176117100Y-72906850D03*
X183737100Y-72906850D03*
D12*
X174466100Y-120023850D03*
D17*
X165957100Y-85632250D03*
X163417100Y-85632250D03*
X160877100Y-85632250D03*
X158337100Y-85632250D03*
X155797100Y-85632250D03*
X153257100Y-85632250D03*
X150717100Y-85632250D03*
X148177100Y-85632250D03*
X148177100Y-94471450D03*
X150717100Y-94471450D03*
X153257100Y-94471450D03*
X155797100Y-94471450D03*
X158337100Y-94471450D03*
X160877100Y-94471450D03*
X163417100Y-94471450D03*
X165957100Y-94471450D03*
D12*
X216630100Y-79383850D03*
D18*
X187801100Y-134247850D03*
X187801100Y-126627850D03*
D12*
X167227100Y-114943850D03*
D15*
X185221100Y-66429850D03*
X180221100Y-66429850D03*
D12*
X174466100Y-104783850D03*
D10*
X177387100Y-77986850D03*
X177387100Y-85606850D03*
D12*
X174466100Y-114943850D03*
X222472100Y-94623850D03*
D15*
X170061100Y-143518850D03*
X175061100Y-143518850D03*
D12*
X216630100Y-102243850D03*
X216630100Y-81923850D03*
D15*
X123586100Y-66409850D03*
X118586100Y-66409850D03*
X113586100Y-66409850D03*
D12*
X83915100Y-112403850D03*
D10*
X149701100Y-75065850D03*
X149701100Y-82685850D03*
D19*
X87979100Y-88400850D03*
X76041100Y-88400850D03*
X76041100Y-76208850D03*
X82010100Y-90432850D03*
X87979100Y-76208850D03*
D15*
X159901100Y-143518850D03*
X164901100Y-143518850D03*
D12*
X222472100Y-76843850D03*
D14*
X164433100Y-124214850D03*
X164433100Y-129294850D03*
D10*
X158845100Y-75065850D03*
X158845100Y-82685850D03*
D15*
X113840100Y-143538850D03*
X118840100Y-143538850D03*
X123840100Y-143538850D03*
D12*
X167227100Y-104402850D03*
D16*
X180181100Y-136660850D03*
X187801100Y-136660850D03*
D12*
X83915100Y-102497850D03*
X168370100Y-84463850D03*
X222472100Y-107323850D03*
X222472100Y-87003850D03*
D19*
X94329100Y-121547850D03*
X106267100Y-121547850D03*
X106267100Y-133739850D03*
X100298100Y-119515850D03*
X94329100Y-133739850D03*
D15*
X132001100Y-143538850D03*
X137001100Y-143538850D03*
X142001100Y-143538850D03*
D12*
X216630100Y-76843850D03*
X222472100Y-74303850D03*
D17*
X182340100Y-121014450D03*
X184880100Y-121014450D03*
X187420100Y-121014450D03*
X189960100Y-121014450D03*
X192500100Y-121014450D03*
X195040100Y-121014450D03*
X197580100Y-121014450D03*
X200120100Y-121014450D03*
X200120100Y-112175250D03*
X197580100Y-112175250D03*
X195040100Y-112175250D03*
X192500100Y-112175250D03*
X189960100Y-112175250D03*
X187420100Y-112175250D03*
X184880100Y-112175250D03*
X182340100Y-112175250D03*
D12*
X168370100Y-89543850D03*
D15*
X149741100Y-143518850D03*
X154741100Y-143518850D03*
D19*
X124555100Y-88400850D03*
X112617100Y-88400850D03*
X112617100Y-76208850D03*
X118586100Y-90432850D03*
X124555100Y-76208850D03*
D15*
X212606100Y-143518850D03*
X217606100Y-143518850D03*
D12*
X216630100Y-87003850D03*
X167227100Y-99703850D03*
D15*
X220527100Y-66429850D03*
X215527100Y-66429850D03*
D12*
X166973100Y-106307850D03*
X174466100Y-97163850D03*
D15*
X95298100Y-143538850D03*
X100298100Y-143538850D03*
X105298100Y-143538850D03*
X141874100Y-66409850D03*
X136874100Y-66409850D03*
X131874100Y-66409850D03*
D20*
X78581100Y-102330850D03*
X78581100Y-97330850D03*
D12*
X222472100Y-102243850D03*
D19*
X112871100Y-121801850D03*
X124809100Y-121801850D03*
X124809100Y-133993850D03*
X118840100Y-119769850D03*
X112871100Y-133993850D03*
D12*
X174466100Y-89543850D03*
D21*
X161639100Y-116975850D03*
D22*
X161639100Y-114435850D03*
X161639100Y-111895850D03*
D17*
X108045100Y-103386850D03*
X105505100Y-103386850D03*
X102965100Y-103386850D03*
X100425100Y-103386850D03*
X97885100Y-103386850D03*
X95345100Y-103386850D03*
X92805100Y-103386850D03*
X90265100Y-103386850D03*
X90265100Y-111006850D03*
X92805100Y-111006850D03*
X95345100Y-111006850D03*
X97885100Y-111006850D03*
X100425100Y-111006850D03*
X102965100Y-111006850D03*
X105505100Y-111006850D03*
X108045100Y-111006850D03*
D23*
X193135100Y-139708850D03*
X198215100Y-139708850D03*
D13*
X109569100Y-119134850D03*
X109569100Y-114054850D03*
D12*
X216630100Y-114943850D03*
D18*
X153384100Y-128024850D03*
X153384100Y-120404850D03*
D20*
X78581100Y-112490850D03*
X78581100Y-107490850D03*
D11*
X210915100Y-85987850D03*
X205835100Y-85987850D03*
D16*
X159988100Y-136660850D03*
X167608100Y-136660850D03*
D12*
X167227100Y-81923850D03*
D14*
X135096100Y-101227850D03*
X135096100Y-106307850D03*
D12*
X216630100Y-120023850D03*
X216630100Y-107323850D03*
X222472100Y-92083850D03*
X166973100Y-108339850D03*
D16*
X149701100Y-136660850D03*
X157321100Y-136660850D03*
D12*
X168370100Y-94623850D03*
X216630100Y-104783850D03*
D11*
X193262100Y-86241850D03*
X188182100Y-86241850D03*
D19*
X130905100Y-121547850D03*
X142843100Y-121547850D03*
X142843100Y-133739850D03*
X136874100Y-119515850D03*
X130905100Y-133739850D03*
D18*
X182340100Y-109355850D03*
X182340100Y-101735850D03*
D12*
X216630100Y-94623850D03*
D19*
X76041100Y-121547850D03*
X87979100Y-121547850D03*
X87979100Y-133739850D03*
X82010100Y-119515850D03*
X76041100Y-133739850D03*
D10*
X164687100Y-97798850D03*
X164687100Y-105418850D03*
D12*
X222472100Y-120023850D03*
X174466100Y-122563850D03*
D21*
X160496100Y-129929850D03*
D22*
X160496100Y-127389850D03*
X160496100Y-124849850D03*
D12*
X174466100Y-112403850D03*
D18*
X177768100Y-133612850D03*
X177768100Y-125992850D03*
D24*
X166465100Y-72652850D03*
X158845100Y-72652850D03*
D12*
X222472100Y-104783850D03*
X216630100Y-74303850D03*
X168370100Y-87003850D03*
D15*
X105298100Y-66409850D03*
X100298100Y-66409850D03*
X95298100Y-66409850D03*
D25*
X205835100Y-143518850D03*
X193135100Y-143518850D03*
D21*
X138779100Y-99830850D03*
D22*
X138779100Y-102370850D03*
X138779100Y-104910850D03*
X138779100Y-107450850D03*
X138779100Y-109990850D03*
D12*
X83915100Y-107450850D03*
D18*
X166973100Y-134374850D03*
X166973100Y-126754850D03*
D26*
X165957100Y-117483850D03*
X165957100Y-120023850D03*
D12*
X222472100Y-89543850D03*
D15*
X180221100Y-143518850D03*
X185221100Y-143518850D03*
D12*
X174466100Y-87003850D03*
D16*
X170148100Y-136660850D03*
X177768100Y-136660850D03*
D12*
X216630100Y-125103850D03*
D24*
X206597100Y-72652850D03*
X198977100Y-72652850D03*
D17*
X114141100Y-107704850D03*
X116681100Y-107704850D03*
X119221100Y-107704850D03*
X121761100Y-107704850D03*
X124301100Y-107704850D03*
X126841100Y-107704850D03*
X129381100Y-107704850D03*
X131921100Y-107704850D03*
X131921100Y-100084850D03*
X129381100Y-100084850D03*
X126841100Y-100084850D03*
X124301100Y-100084850D03*
X121761100Y-100084850D03*
X119221100Y-100084850D03*
X116681100Y-100084850D03*
X114141100Y-100084850D03*
D12*
X174466100Y-94623850D03*
D10*
X183737100Y-77986850D03*
X183737100Y-85606850D03*
D12*
X216630100Y-99830850D03*
D17*
X208375100Y-88781850D03*
X205835100Y-88781850D03*
X203295100Y-88781850D03*
X200755100Y-88781850D03*
X198215100Y-88781850D03*
X195675100Y-88781850D03*
X193135100Y-88781850D03*
X190595100Y-88781850D03*
X190595100Y-96401850D03*
X193135100Y-96401850D03*
X195675100Y-96401850D03*
X198215100Y-96401850D03*
X200755100Y-96401850D03*
X203295100Y-96401850D03*
X205835100Y-96401850D03*
X208375100Y-96401850D03*
D15*
X195381100Y-66429850D03*
X190381100Y-66429850D03*
D24*
X185134100Y-75446850D03*
X177514100Y-75446850D03*
D15*
X87010100Y-66409850D03*
X82010100Y-66409850D03*
X77010100Y-66409850D03*
D19*
X142843100Y-88400850D03*
X130905100Y-88400850D03*
X130905100Y-76208850D03*
X136874100Y-90432850D03*
X142843100Y-76208850D03*
X106267100Y-88400850D03*
X94329100Y-88400850D03*
X94329100Y-76208850D03*
X100298100Y-90432850D03*
X106267100Y-76208850D03*
D24*
X156051100Y-72652850D03*
X148431100Y-72652850D03*
D18*
X192500100Y-109355850D03*
X192500100Y-101735850D03*
D15*
X210454100Y-66409850D03*
X205454100Y-66409850D03*
X200454100Y-66409850D03*
D17*
X198215100Y-83066850D03*
X200755100Y-83066850D03*
X203295100Y-83066850D03*
X205835100Y-83066850D03*
X205835100Y-75446850D03*
X203295100Y-75446850D03*
X200755100Y-75446850D03*
X198215100Y-75446850D03*
D18*
X187420100Y-109355850D03*
X187420100Y-101735850D03*
X197580100Y-109355850D03*
X197580100Y-101735850D03*
D10*
X160369100Y-97671850D03*
X160369100Y-105291850D03*
D27*
X218408100Y-130564850D03*
D28*
X220948100Y-130564850D03*
X218408100Y-128024850D03*
X220948100Y-128024850D03*
X218408100Y-125484850D03*
X220948100Y-125484850D03*
X218408100Y-122944850D03*
X220948100Y-122944850D03*
X218408100Y-120404850D03*
X220948100Y-120404850D03*
X218408100Y-117864850D03*
X220948100Y-117864850D03*
X218408100Y-115324850D03*
X220948100Y-115324850D03*
X218408100Y-112784850D03*
X220948100Y-112784850D03*
X218408100Y-110244850D03*
X220948100Y-110244850D03*
X218408100Y-107704850D03*
X220948100Y-107704850D03*
X218408100Y-105164850D03*
X220948100Y-105164850D03*
X218408100Y-102624850D03*
X220948100Y-102624850D03*
X218408100Y-100084850D03*
X220948100Y-100084850D03*
X218408100Y-97544850D03*
X220948100Y-97544850D03*
X218408100Y-95004850D03*
X220948100Y-95004850D03*
X218408100Y-92464850D03*
X220948100Y-92464850D03*
X218408100Y-89924850D03*
X220948100Y-89924850D03*
X218408100Y-87384850D03*
X220948100Y-87384850D03*
X218408100Y-84844850D03*
X220948100Y-84844850D03*
X218408100Y-82304850D03*
X220948100Y-82304850D03*
X218408100Y-79764850D03*
X220948100Y-79764850D03*
X218408100Y-77224850D03*
X220948100Y-77224850D03*
X218408100Y-74684850D03*
X220948100Y-74684850D03*
D27*
X170148100Y-130564850D03*
D28*
X172688100Y-130564850D03*
X170148100Y-128024850D03*
X172688100Y-128024850D03*
X170148100Y-125484850D03*
X172688100Y-125484850D03*
X170148100Y-122944850D03*
X172688100Y-122944850D03*
X170148100Y-120404850D03*
X172688100Y-120404850D03*
X170148100Y-117864850D03*
X172688100Y-117864850D03*
X170148100Y-115324850D03*
X172688100Y-115324850D03*
X170148100Y-112784850D03*
X172688100Y-112784850D03*
X170148100Y-110244850D03*
X172688100Y-110244850D03*
X170148100Y-107704850D03*
X172688100Y-107704850D03*
X170148100Y-105164850D03*
X172688100Y-105164850D03*
X170148100Y-102624850D03*
X172688100Y-102624850D03*
X170148100Y-100084850D03*
X172688100Y-100084850D03*
X170148100Y-97544850D03*
X172688100Y-97544850D03*
X170148100Y-95004850D03*
X172688100Y-95004850D03*
X170148100Y-92464850D03*
X172688100Y-92464850D03*
X170148100Y-89924850D03*
X172688100Y-89924850D03*
X170148100Y-87384850D03*
X172688100Y-87384850D03*
X170148100Y-84844850D03*
X172688100Y-84844850D03*
X170148100Y-82304850D03*
X172688100Y-82304850D03*
X170148100Y-79764850D03*
X172688100Y-79764850D03*
X170148100Y-77224850D03*
X172688100Y-77224850D03*
X170148100Y-74684850D03*
X172688100Y-74684850D03*
D29*
X178403100Y-115197850D03*
X144621100Y-103640850D03*
X162147100Y-103640850D03*
X145256100Y-100719850D03*
X145764100Y-98814850D03*
X143986100Y-106688850D03*
X174847100Y-102116850D03*
X174974100Y-106815850D03*
X165322100Y-100973850D03*
D30*
X109569100Y-95893850D02*
X109569100Y-101354850D01*
D31*
X188055100Y-90051850D02*
X187293100Y-90051850D01*
X194405100Y-99830850D02*
X194405100Y-93861850D01*
D32*
X90265100Y-103259850D02*
X90265100Y-103386850D01*
D31*
X179165100Y-118245850D02*
X184880100Y-112784850D01*
X142843100Y-98560850D02*
X145891100Y-95512850D01*
D33*
X147669100Y-93861850D02*
X147669100Y-93988850D01*
D34*
X195167100Y-112657850D02*
X195040100Y-112784850D01*
X205835100Y-75319850D02*
X205835100Y-75446850D01*
D31*
X109569100Y-101354850D02*
X92170100Y-101354850D01*
D33*
X192246100Y-91702850D02*
X194405100Y-93861850D01*
D31*
X131921100Y-106053850D02*
X109569100Y-106053850D01*
D33*
X189833100Y-91702850D02*
X192246100Y-91702850D01*
D31*
X135096100Y-104021850D02*
X137128100Y-101989850D01*
D32*
X164687100Y-117483850D02*
X161639100Y-114435850D01*
D33*
X175863100Y-130183850D02*
X179165100Y-126881850D01*
D31*
X145891100Y-95512850D02*
X146145100Y-95512850D01*
X92170100Y-101354850D02*
X90265100Y-103259850D01*
D33*
X164433100Y-129294850D02*
X168878100Y-129294850D01*
D32*
X165957100Y-117483850D02*
X164687100Y-117483850D01*
D33*
X188182100Y-90051850D02*
X189833100Y-91702850D01*
D32*
X195167100Y-112657850D02*
X195167100Y-100338850D01*
D31*
X214725100Y-127389850D02*
X214725100Y-130564850D01*
D30*
X109569100Y-106053850D02*
X109569100Y-114054850D01*
D31*
X172942100Y-130564850D02*
X173323100Y-130183850D01*
X135096100Y-106307850D02*
X135096100Y-104021850D01*
D33*
X172688100Y-74684850D02*
X170148100Y-74684850D01*
D31*
X137128100Y-101989850D02*
X137128100Y-99195850D01*
X165957100Y-117483850D02*
X163163100Y-120277850D01*
X163417100Y-93861850D02*
X163417100Y-112657850D01*
D30*
X164433100Y-127389850D02*
X163163100Y-127389850D01*
D31*
X146145100Y-95512850D02*
X147669100Y-93988850D01*
D33*
X205835100Y-99195850D02*
X204692100Y-100338850D01*
D31*
X137763100Y-98560850D02*
X142843100Y-98560850D01*
D33*
X168878100Y-129294850D02*
X170148100Y-130564850D01*
D31*
X135096100Y-106307850D02*
X138779100Y-109990850D01*
D35*
X179165100Y-126881850D02*
X179165100Y-118245850D01*
D31*
X173323100Y-130183850D02*
X175863100Y-130183850D01*
D30*
X164433100Y-129294850D02*
X164433100Y-127389850D01*
D31*
X163163100Y-120277850D02*
X163163100Y-127389850D01*
X214725100Y-130564850D02*
X218408100Y-130564850D01*
D36*
X163163100Y-127389850D02*
X160496100Y-127389850D01*
D33*
X170148100Y-74684850D02*
X170148100Y-77224850D01*
D30*
X172688100Y-130564850D02*
X170148100Y-130564850D01*
D32*
X163417100Y-112657850D02*
X161639100Y-114435850D01*
D33*
X172688100Y-77224850D02*
X170148100Y-77224850D01*
D31*
X188055100Y-86241850D02*
X188055100Y-90051850D01*
D33*
X205835100Y-96401850D02*
X205835100Y-99195850D01*
D32*
X131921100Y-107704850D02*
X131921100Y-106053850D01*
D36*
X187293100Y-90051850D02*
X187293100Y-90178850D01*
D31*
X200120100Y-112784850D02*
X214725100Y-127389850D01*
X137128100Y-99195850D02*
X137763100Y-98560850D01*
D30*
X109569100Y-101354850D02*
X109569100Y-106053850D01*
D32*
X195167100Y-100338850D02*
X204692100Y-100338850D01*
X148177100Y-93861850D02*
X147669100Y-93861850D01*
D31*
X172688100Y-130564850D02*
X172942100Y-130564850D01*
D32*
X195167100Y-100338850D02*
X194405100Y-99830850D01*
D30*
X188055100Y-86241850D02*
X188182100Y-86241850D01*
D33*
X188055100Y-90051850D02*
X188182100Y-90051850D01*
D32*
X177641100Y-85987850D02*
X177387100Y-85733850D01*
X134969100Y-101227850D02*
X133699100Y-102243850D01*
D31*
X190722100Y-126627850D02*
X193770100Y-123579850D01*
D34*
X177641100Y-125865850D02*
X177768100Y-125992850D01*
D33*
X94456100Y-98560850D02*
X106267100Y-98560850D01*
D32*
X130651100Y-122309850D02*
X130905100Y-121547850D01*
D33*
X107029100Y-97798850D02*
X107029100Y-93353850D01*
D31*
X193770100Y-123579850D02*
X193770100Y-119134850D01*
X202660100Y-120150850D02*
X202660100Y-140216850D01*
D32*
X116681100Y-126119850D02*
X112871100Y-122309850D01*
D33*
X87979100Y-88400850D02*
X87979100Y-92083850D01*
D32*
X130651100Y-122309850D02*
X126841100Y-126119850D01*
X144621100Y-111641850D02*
X153384100Y-120404850D01*
D31*
X193770100Y-119134850D02*
X194024100Y-118880850D01*
X202660100Y-140216850D02*
X201009100Y-141867850D01*
D33*
X106267100Y-98560850D02*
X107029100Y-97798850D01*
D34*
X177387100Y-85479850D02*
X177387100Y-85606850D01*
D31*
X201390100Y-118880850D02*
X202660100Y-120150850D01*
D32*
X133699100Y-111641850D02*
X144621100Y-111641850D01*
D34*
X183737100Y-85479850D02*
X183737100Y-85606850D01*
D31*
X187801100Y-126627850D02*
X190722100Y-126627850D01*
D33*
X87979100Y-92083850D02*
X94456100Y-98560850D01*
D32*
X183737100Y-85479850D02*
X177387100Y-85479850D01*
D31*
X177641100Y-125865850D02*
X177641100Y-85987850D01*
X201009100Y-141867850D02*
X195421100Y-141867850D01*
D32*
X126841100Y-126119850D02*
X116681100Y-126119850D01*
D31*
X194024100Y-118880850D02*
X201390100Y-118880850D01*
D34*
X177387100Y-85733850D02*
X177387100Y-85606850D01*
D31*
X195421100Y-141867850D02*
X193770100Y-143518850D01*
D32*
X112871100Y-122309850D02*
X112871100Y-121801850D01*
X130905100Y-121547850D02*
X130905100Y-114435850D01*
X133699100Y-102243850D02*
X133699100Y-111641850D01*
X134969100Y-101227850D02*
X135096100Y-101227850D01*
D31*
X193770100Y-143518850D02*
X193135100Y-143518850D01*
D33*
X107029100Y-93353850D02*
X109569100Y-90813850D01*
D32*
X130905100Y-114435850D02*
X133699100Y-111641850D01*
D33*
X207359100Y-79256850D02*
X207359100Y-74303850D01*
D32*
X172688100Y-125484850D02*
X170148100Y-125484850D01*
D33*
X207359100Y-74303850D02*
X209264100Y-72398850D01*
D31*
X146399100Y-105164850D02*
X148177100Y-106942850D01*
X139414100Y-99830850D02*
X141573100Y-101989850D01*
X210915100Y-85987850D02*
X210407100Y-85479850D01*
D33*
X209772100Y-67953850D02*
X209772100Y-67108550D01*
D31*
X181197100Y-106434850D02*
X184626100Y-103005850D01*
X143859100Y-105164850D02*
X146399100Y-105164850D01*
X149320100Y-106942850D02*
X151606100Y-109228850D01*
X160623100Y-124849850D02*
X160623100Y-112911850D01*
D32*
X210915100Y-85987850D02*
X209772100Y-87003850D01*
D31*
X181197100Y-112403850D02*
X181197100Y-106434850D01*
D33*
X209772100Y-67108550D02*
X210028359Y-66852291D01*
D32*
X160623100Y-112911850D02*
X161639100Y-111895850D01*
D31*
X151606100Y-109228850D02*
X156940100Y-109228850D01*
D34*
X210407100Y-66429850D02*
X210454100Y-66409850D01*
D31*
X178403100Y-115197850D02*
X181197100Y-112403850D01*
X138779100Y-99830850D02*
X139414100Y-99830850D01*
X141573100Y-101989850D02*
X141573100Y-102878850D01*
D32*
X209772100Y-94877850D02*
X208375100Y-96401850D01*
D33*
X164433100Y-124214850D02*
X169259100Y-124214850D01*
X210028359Y-66835591D02*
X210454100Y-66409850D01*
D32*
X209772100Y-87003850D02*
X209772100Y-94877850D01*
D33*
X210407100Y-82304850D02*
X207359100Y-79256850D01*
D31*
X141573100Y-102878850D02*
X143859100Y-105164850D01*
X184626100Y-97925850D02*
X187293100Y-95258850D01*
D33*
X210407100Y-85479850D02*
X210407100Y-82304850D01*
X210028359Y-66852291D02*
X210028359Y-66835591D01*
D34*
X160623100Y-124849850D02*
X160496100Y-124849850D01*
D33*
X209264100Y-68461850D02*
X209772100Y-67953850D01*
X209264100Y-72398850D02*
X209264100Y-68461850D01*
D31*
X184626100Y-103005850D02*
X184626100Y-97925850D01*
X148177100Y-106942850D02*
X149320100Y-106942850D01*
X156940100Y-109228850D02*
X160623100Y-112911850D01*
D33*
X169259100Y-124214850D02*
X170148100Y-125484850D01*
D31*
X130905100Y-88400850D02*
X130905100Y-98433850D01*
X130905100Y-98433850D02*
X129381100Y-99957850D01*
D32*
X129381100Y-99957850D02*
X126841100Y-99957850D01*
X126841100Y-99957850D02*
X126841100Y-100084850D01*
D31*
X129381100Y-99957850D02*
X129381100Y-100084850D01*
D33*
X112617100Y-88400850D02*
X112617100Y-90813850D01*
X116554100Y-98179850D02*
X120999100Y-98179850D01*
X121888100Y-99957850D02*
X121761100Y-100084850D01*
D32*
X124301100Y-99957850D02*
X124301100Y-100084850D01*
D33*
X112617100Y-94242850D02*
X116554100Y-98179850D01*
X120999100Y-98179850D02*
X121888100Y-99068850D01*
D32*
X121761100Y-99957850D02*
X121761100Y-100084850D01*
D33*
X112617100Y-90813850D02*
X112617100Y-94242850D01*
D32*
X124301100Y-99957850D02*
X121761100Y-99957850D01*
D33*
X121888100Y-99068850D02*
X121888100Y-99957850D01*
D34*
X116681100Y-99957850D02*
X116681100Y-100084850D01*
D32*
X119221100Y-99957850D02*
X116681100Y-99957850D01*
X119221100Y-99957850D02*
X119221100Y-100084850D01*
D31*
X87979100Y-115959850D02*
X92805100Y-111133850D01*
D32*
X92805100Y-110879850D02*
X92805100Y-111006850D01*
X95345100Y-110879850D02*
X95345100Y-111006850D01*
X95345100Y-110879850D02*
X92805100Y-110879850D01*
D31*
X87979100Y-121547850D02*
X87979100Y-115959850D01*
D32*
X92805100Y-111133850D02*
X92805100Y-111006850D01*
X100425100Y-110879850D02*
X97885100Y-110879850D01*
D35*
X100425100Y-112657850D02*
X100679100Y-112911850D01*
X106267100Y-121547850D02*
X106267100Y-113038850D01*
D31*
X106267100Y-113038850D02*
X106267100Y-112784850D01*
D35*
X106140100Y-112911850D02*
X106267100Y-113038850D01*
D32*
X97885100Y-110879850D02*
X97885100Y-111006850D01*
D35*
X100679100Y-112911850D02*
X106140100Y-112911850D01*
X100425100Y-112657850D02*
X100425100Y-111006850D01*
D32*
X100425100Y-110879850D02*
X100425100Y-111006850D01*
X105505100Y-110879850D02*
X105505100Y-111006850D01*
X102965100Y-110879850D02*
X102965100Y-111006850D01*
X105505100Y-110879850D02*
X102965100Y-110879850D01*
X126841100Y-107577850D02*
X126841100Y-107704850D01*
X129381100Y-107577850D02*
X129381100Y-107704850D01*
X129381100Y-107577850D02*
X126841100Y-107577850D01*
X124301100Y-107577850D02*
X121761100Y-107577850D01*
D34*
X124301100Y-107577850D02*
X124301100Y-107704850D01*
D32*
X121761100Y-107577850D02*
X121761100Y-107704850D01*
X119221100Y-107577850D02*
X116681100Y-107577850D01*
D33*
X144621100Y-103640850D02*
X162147100Y-103640850D01*
D32*
X116681100Y-107577850D02*
X116681100Y-107704850D01*
D34*
X119221100Y-107577850D02*
X119221100Y-107704850D01*
D31*
X95599100Y-103132850D02*
X95472100Y-103132850D01*
D32*
X92805100Y-103259850D02*
X92805100Y-103386850D01*
D31*
X95345100Y-103259850D02*
X95472100Y-103259850D01*
X95218100Y-103386850D02*
X95472100Y-103386850D01*
X95472100Y-103132850D02*
X95218100Y-103386850D01*
X95472100Y-103259850D02*
X95599100Y-103132850D01*
D32*
X95345100Y-103259850D02*
X92805100Y-103259850D01*
X95345100Y-103259850D02*
X95345100Y-103386850D01*
D31*
X170148100Y-79764850D02*
X170148100Y-79637850D01*
D33*
X97885100Y-103259850D02*
X100298100Y-103259850D01*
X100298100Y-103259850D02*
X100425100Y-103386850D01*
D31*
X165068100Y-89289850D02*
X167227100Y-87130850D01*
X154527100Y-97036850D02*
X154527100Y-90686850D01*
X167227100Y-87130850D02*
X167227100Y-83701850D01*
X154527100Y-90686850D02*
X155924100Y-89289850D01*
X168751100Y-82177850D02*
X167227100Y-83701850D01*
X168751100Y-81034850D02*
X168751100Y-82177850D01*
X150844100Y-100719850D02*
X154527100Y-97036850D01*
D32*
X97885100Y-103259850D02*
X97885100Y-103386850D01*
D31*
X145256100Y-100719850D02*
X150844100Y-100719850D01*
X155924100Y-89289850D02*
X165068100Y-89289850D01*
X170148100Y-79637850D02*
X168751100Y-81034850D01*
X102965100Y-103259850D02*
X102965100Y-103386850D01*
X105505100Y-103259850D02*
X105505100Y-103386850D01*
D32*
X105505100Y-103259850D02*
X102965100Y-103259850D01*
D31*
X147161100Y-98814850D02*
X149447100Y-96528850D01*
X163290100Y-88273850D02*
X164687100Y-86876850D01*
X171418100Y-78494850D02*
X172688100Y-79764850D01*
X164687100Y-81669850D02*
X167862100Y-78494850D01*
X164687100Y-86876850D02*
X164687100Y-81669850D01*
X149447100Y-91194850D02*
X152368100Y-88273850D01*
X149447100Y-96528850D02*
X149447100Y-91194850D01*
X167862100Y-78494850D02*
X171418100Y-78494850D01*
X145764100Y-98814850D02*
X147161100Y-98814850D01*
X152368100Y-88273850D02*
X163290100Y-88273850D01*
X185261100Y-66429850D02*
X185261100Y-75319850D01*
D32*
X185261100Y-75319850D02*
X185134100Y-75446850D01*
D34*
X185261100Y-66429850D02*
X185221100Y-66429850D01*
D32*
X177387100Y-75573850D02*
X177514100Y-75446850D01*
X177387100Y-75573850D02*
X177387100Y-77986850D01*
D35*
X175101100Y-71763850D02*
X176117100Y-72779850D01*
D34*
X176117100Y-72779850D02*
X176117100Y-72906850D01*
D32*
X175101100Y-66429850D02*
X175061100Y-66429850D01*
D35*
X175101100Y-66429850D02*
X175101100Y-71763850D01*
D30*
X183737100Y-72906850D02*
X183737100Y-77986850D01*
D32*
X166465100Y-72525850D02*
X166465100Y-72652850D01*
X164941100Y-66429850D02*
X164901100Y-66429850D01*
X164941100Y-71001850D02*
X166465100Y-72525850D01*
X164941100Y-66429850D02*
X164941100Y-71001850D01*
D33*
X155797100Y-86241850D02*
X155797100Y-84971850D01*
D32*
X157321100Y-76589850D02*
X157321100Y-83447850D01*
X158845100Y-75065850D02*
X158845100Y-72652850D01*
X158845100Y-75065850D02*
X157321100Y-76589850D01*
X155797100Y-84971850D02*
X157321100Y-83447850D01*
X154781100Y-71255850D02*
X156051100Y-72525850D01*
D34*
X156051100Y-72525850D02*
X156051100Y-72652850D01*
D32*
X154781100Y-66429850D02*
X154781100Y-71255850D01*
D34*
X154781100Y-66429850D02*
X154741100Y-66429850D01*
D30*
X148431100Y-72779850D02*
X148431100Y-72652850D01*
D33*
X149701100Y-75065850D02*
X149701100Y-75192850D01*
D30*
X149701100Y-75065850D02*
X149701100Y-74049850D01*
D33*
X149701100Y-75192850D02*
X151225100Y-76716850D01*
X151225100Y-85733850D02*
X150717100Y-86241850D01*
D31*
X149701100Y-74049850D02*
X148431100Y-72779850D01*
D33*
X151225100Y-76716850D02*
X151225100Y-85733850D01*
D34*
X149701100Y-143391850D02*
X149741100Y-143518850D01*
D30*
X149701100Y-143391850D02*
X149701100Y-136660850D01*
D32*
X153511100Y-128151850D02*
X153384100Y-128024850D01*
D33*
X161131100Y-132088850D02*
X172942100Y-132088850D01*
D32*
X153511100Y-133993850D02*
X156305100Y-136660850D01*
D33*
X157321100Y-136660850D02*
X157321100Y-135898850D01*
X157321100Y-135898850D02*
X161131100Y-132088850D01*
X176625100Y-130818850D02*
X174212100Y-130818850D01*
D32*
X156305100Y-136660850D02*
X157321100Y-136660850D01*
D35*
X182340100Y-120404850D02*
X182340100Y-124976850D01*
D32*
X153511100Y-128151850D02*
X153511100Y-133993850D01*
D33*
X182340100Y-124976850D02*
X176625100Y-130818850D01*
X174212100Y-130818850D02*
X172942100Y-132088850D01*
D35*
X187420100Y-120404850D02*
X187420100Y-122690850D01*
D31*
X187420100Y-122690850D02*
X177768100Y-132088850D01*
D33*
X167481100Y-134882850D02*
X166973100Y-134374850D01*
D31*
X177768100Y-132088850D02*
X174847100Y-132088850D01*
X174847100Y-132088850D02*
X172815100Y-134120850D01*
X172815100Y-134120850D02*
X167227100Y-134120850D01*
D32*
X167481100Y-136533850D02*
X167481100Y-135009850D01*
D34*
X166973100Y-134501850D02*
X166973100Y-134374850D01*
X167481100Y-136533850D02*
X167608100Y-136660850D01*
D33*
X167481100Y-135009850D02*
X167481100Y-134882850D01*
D31*
X167227100Y-134120850D02*
X166973100Y-134374850D01*
D35*
X181959100Y-130818850D02*
X187166100Y-125357850D01*
X177768100Y-136660850D02*
X177768100Y-133612850D01*
X192500100Y-123325850D02*
X192500100Y-120404850D01*
X181959100Y-131707850D02*
X181959100Y-130818850D01*
X177768100Y-133612850D02*
X180054100Y-133612850D01*
X180054100Y-133612850D02*
X181959100Y-131707850D01*
X192500100Y-123325850D02*
X190214100Y-125357850D01*
X190214100Y-125357850D02*
X187166100Y-125357850D01*
D32*
X187801100Y-134247850D02*
X187801100Y-136660850D01*
D35*
X187801100Y-134247850D02*
X187801100Y-133993850D01*
X197707100Y-120531850D02*
X197580100Y-120404850D01*
X197580100Y-124214850D02*
X197580100Y-121547850D01*
X187801100Y-133993850D02*
X197580100Y-124214850D01*
X197580100Y-121547850D02*
X197707100Y-121420850D01*
X197707100Y-121420850D02*
X197707100Y-120531850D01*
X187039100Y-141232850D02*
X194786100Y-141232850D01*
X185221100Y-143050850D02*
X187039100Y-141232850D01*
X194786100Y-141232850D02*
X195548100Y-140470850D01*
X200120100Y-126373850D02*
X200120100Y-120404850D01*
X195548100Y-130945850D02*
X200120100Y-126373850D01*
X185221100Y-143518850D02*
X185221100Y-143050850D01*
X195548100Y-140470850D02*
X195548100Y-130945850D01*
X194786100Y-120658850D02*
X195040100Y-120404850D01*
X180816100Y-140089850D02*
X183991100Y-136914850D01*
X175061100Y-141145850D02*
X176117100Y-140089850D01*
X175061100Y-143518850D02*
X175061100Y-141145850D01*
X185007100Y-132596850D02*
X186531100Y-132596850D01*
X186531100Y-132596850D02*
X194786100Y-124341850D01*
X194786100Y-124341850D02*
X194786100Y-120658850D01*
X183991100Y-136914850D02*
X183991100Y-133612850D01*
X176117100Y-140089850D02*
X180816100Y-140089850D01*
X183991100Y-133612850D02*
X185007100Y-132596850D01*
D31*
X166211100Y-139962850D02*
X170656100Y-139962850D01*
D35*
X189960100Y-121801850D02*
X189071100Y-122690850D01*
D31*
X164901100Y-141272850D02*
X166211100Y-139962850D01*
X188690100Y-122690850D02*
X178784100Y-132596850D01*
X178784100Y-132596850D02*
X175736100Y-132596850D01*
X170656100Y-139962850D02*
X173196100Y-137422850D01*
X164901100Y-143518850D02*
X164901100Y-141272850D01*
D35*
X189960100Y-120404850D02*
X189960100Y-121801850D01*
X189071100Y-122690850D02*
X188690100Y-122690850D01*
D31*
X173196100Y-135136850D02*
X175736100Y-132596850D01*
X173196100Y-137422850D02*
X173196100Y-135136850D01*
D35*
X184880100Y-120404850D02*
X184880100Y-123960850D01*
D33*
X177133100Y-131453850D02*
X174466100Y-131453850D01*
X184880100Y-123960850D02*
X177133100Y-131453850D01*
X157067100Y-139708850D02*
X160877100Y-139708850D01*
X174466100Y-131453850D02*
X172942100Y-132977850D01*
X164814100Y-132977850D02*
X172942100Y-132977850D01*
X162274100Y-138311850D02*
X162274100Y-135517850D01*
X160877100Y-139708850D02*
X162274100Y-138311850D01*
X162274100Y-135517850D02*
X164814100Y-132977850D01*
X154741100Y-143518850D02*
X154741100Y-142034850D01*
X154741100Y-142034850D02*
X157067100Y-139708850D01*
D31*
X163544100Y-86114850D02*
X163417100Y-86241850D01*
X174847100Y-74049850D02*
X173323100Y-72525850D01*
X163417100Y-81288850D02*
X163417100Y-84971850D01*
X173323100Y-72525850D02*
X169513100Y-72525850D01*
X168624100Y-73414850D02*
X168624100Y-76081850D01*
X169513100Y-72525850D02*
X168624100Y-73414850D01*
X177006100Y-74049850D02*
X174847100Y-74049850D01*
X180221100Y-66429850D02*
X180221100Y-70834850D01*
X163544100Y-85098850D02*
X163544100Y-86114850D01*
X180221100Y-70834850D02*
X177006100Y-74049850D01*
X163417100Y-84971850D02*
X163544100Y-85098850D01*
X168624100Y-76081850D02*
X163417100Y-81288850D01*
X168243100Y-68207850D02*
X168243100Y-72271850D01*
X159861100Y-80653850D02*
X159861100Y-84717850D01*
X170021100Y-66429850D02*
X168243100Y-68207850D01*
D34*
X170021100Y-66429850D02*
X170061100Y-66429850D01*
D31*
X168243100Y-72271850D02*
X159861100Y-80653850D01*
X159861100Y-84717850D02*
X158337100Y-86241850D01*
D33*
X156940100Y-74049850D02*
X157448100Y-73541850D01*
D34*
X159861100Y-66429850D02*
X159901100Y-66429850D01*
D33*
X157448100Y-71636850D02*
X158210100Y-70874850D01*
X153257100Y-86241850D02*
X153257100Y-84844850D01*
D32*
X154781100Y-75319850D02*
X154781100Y-83320850D01*
X159861100Y-66429850D02*
X159861100Y-69858850D01*
D33*
X154781100Y-75192850D02*
X155924100Y-74049850D01*
X158845100Y-70874850D02*
X159861100Y-69858850D01*
X158210100Y-70874850D02*
X158845100Y-70874850D01*
X154781100Y-75319850D02*
X154781100Y-75192850D01*
D32*
X153257100Y-84844850D02*
X154781100Y-83320850D01*
D33*
X157448100Y-73541850D02*
X157448100Y-71636850D01*
X155924100Y-74049850D02*
X156940100Y-74049850D01*
D34*
X149828100Y-66429850D02*
X149741100Y-66429850D01*
D32*
X149828100Y-66429850D02*
X146780100Y-68715850D01*
X146780100Y-85479850D02*
X148177100Y-86241850D01*
X146780100Y-68715850D02*
X146780100Y-85479850D01*
D31*
X181324100Y-80018850D02*
X176371100Y-84971850D01*
X195167100Y-66429850D02*
X195167100Y-80018850D01*
X195167100Y-80018850D02*
X181324100Y-80018850D01*
X176371100Y-84971850D02*
X176371100Y-109228850D01*
D34*
X195167100Y-66429850D02*
X195381100Y-66429850D01*
D31*
X143986100Y-106688850D02*
X143097100Y-106688850D01*
X175355100Y-110244850D02*
X172688100Y-110244850D01*
X143097100Y-106688850D02*
X138779100Y-102370850D01*
X176371100Y-109228850D02*
X175355100Y-110244850D01*
D33*
X170910100Y-108974850D02*
X172434100Y-107450850D01*
X166973100Y-108339850D02*
X168497100Y-108339850D01*
X168497100Y-108339850D02*
X169132100Y-108974850D01*
X172561100Y-107450850D02*
X172688100Y-107704850D01*
X169132100Y-108974850D02*
X170910100Y-108974850D01*
X172434100Y-107450850D02*
X172561100Y-107450850D01*
D31*
X190341100Y-66429850D02*
X190341100Y-79002850D01*
X172053100Y-108974850D02*
X171291100Y-109863850D01*
X170402100Y-109863850D02*
X170148100Y-110244850D01*
X190341100Y-79002850D02*
X181324100Y-79002850D01*
X181324100Y-79002850D02*
X175863100Y-84463850D01*
X171291100Y-109863850D02*
X170402100Y-109863850D01*
D34*
X190341100Y-66429850D02*
X190381100Y-66429850D01*
D31*
X175863100Y-107958850D02*
X174847100Y-108974850D01*
X172053100Y-108974850D02*
X174847100Y-108974850D01*
X175863100Y-84463850D02*
X175863100Y-107958850D01*
D33*
X169132100Y-106307850D02*
X170148100Y-107704850D01*
X166973100Y-106307850D02*
X169132100Y-106307850D01*
D32*
X205581100Y-72779850D02*
X206597100Y-72779850D01*
D31*
X202279100Y-95385850D02*
X203295100Y-96401850D01*
X206597100Y-72779850D02*
X206597100Y-72652850D01*
X203295100Y-75573850D02*
X202279100Y-76589850D01*
D32*
X203295100Y-75446850D02*
X203295100Y-72779850D01*
D31*
X202279100Y-76589850D02*
X202279100Y-95385850D01*
D32*
X203295100Y-72779850D02*
X205581100Y-72779850D01*
D34*
X205581100Y-66429850D02*
X205454100Y-66409850D01*
D32*
X205581100Y-72779850D02*
X205581100Y-66429850D01*
D34*
X203295100Y-75573850D02*
X203295100Y-75446850D01*
X200247100Y-66429850D02*
X200454100Y-66409850D01*
D32*
X198977100Y-72652850D02*
X198977100Y-67699850D01*
X200755100Y-74557850D02*
X198977100Y-72779850D01*
X200755100Y-75446850D02*
X200755100Y-74557850D01*
D31*
X200755100Y-75573850D02*
X199485100Y-76843850D01*
D34*
X200755100Y-75573850D02*
X200755100Y-75446850D01*
X198977100Y-72779850D02*
X198977100Y-72652850D01*
D31*
X199485100Y-76843850D02*
X199485100Y-95131850D01*
D32*
X198977100Y-67699850D02*
X200247100Y-66429850D01*
D31*
X199485100Y-95131850D02*
X200755100Y-96401850D01*
X197199100Y-84209850D02*
X197199100Y-95385850D01*
X198215100Y-83193850D02*
X197199100Y-84209850D01*
X197199100Y-95385850D02*
X198215100Y-96401850D01*
D34*
X198215100Y-83193850D02*
X198215100Y-83066850D01*
D31*
X203930100Y-98814850D02*
X204692100Y-98052850D01*
D32*
X204692100Y-84209850D02*
X205835100Y-82685850D01*
D31*
X195675100Y-98814850D02*
X203930100Y-98814850D01*
X204692100Y-98052850D02*
X204692100Y-84209850D01*
X195675100Y-96401850D02*
X195675100Y-98814850D01*
D34*
X205835100Y-82685850D02*
X205835100Y-83066850D01*
D33*
X171418100Y-100592850D02*
X171418100Y-96655850D01*
D30*
X165957100Y-96274850D02*
X165957100Y-96401850D01*
D33*
X172180100Y-101354850D02*
X171418100Y-100592850D01*
X171037100Y-96274850D02*
X165957100Y-96274850D01*
D32*
X164687100Y-97671850D02*
X164687100Y-97798850D01*
D33*
X171418100Y-96655850D02*
X171037100Y-96274850D01*
D30*
X165957100Y-93861850D02*
X165957100Y-96274850D01*
D33*
X174847100Y-102116850D02*
X173831100Y-101354850D01*
X173831100Y-101354850D02*
X172180100Y-101354850D01*
D30*
X165957100Y-96401850D02*
X164687100Y-97671850D01*
D31*
X173450100Y-113927850D02*
X173577100Y-113800850D01*
X164687100Y-105418850D02*
X164687100Y-109990850D01*
X169132100Y-114054850D02*
X173196100Y-114054850D01*
D32*
X172688100Y-128024850D02*
X170148100Y-128024850D01*
D31*
X173323100Y-113927850D02*
X173450100Y-113927850D01*
X176625100Y-114816850D02*
X176625100Y-119261850D01*
X164687100Y-109990850D02*
X169132100Y-114054850D01*
X173196100Y-114054850D02*
X173323100Y-113927850D01*
X175990100Y-124214850D02*
X175609100Y-124595850D01*
X175609100Y-124722850D02*
X172688100Y-128024850D01*
D32*
X187420100Y-101735850D02*
X192500100Y-101735850D01*
D31*
X176625100Y-119261850D02*
X175990100Y-119896850D01*
X175482100Y-113673850D02*
X176625100Y-114816850D01*
D32*
X155797100Y-105291850D02*
X160369100Y-105291850D01*
D31*
X175609100Y-124595850D02*
X175609100Y-124722850D01*
X173831100Y-113673850D02*
X175482100Y-113673850D01*
X173577100Y-113800850D02*
X173704100Y-113800850D01*
X175990100Y-119896850D02*
X175990100Y-124214850D01*
X173704100Y-113800850D02*
X173831100Y-113673850D01*
D32*
X160877100Y-97163850D02*
X160369100Y-97671850D01*
X160877100Y-93861850D02*
X160877100Y-97163850D01*
X150717100Y-93861850D02*
X150717100Y-97925850D01*
D34*
X182467100Y-109355850D02*
X182340100Y-109355850D01*
D32*
X182467100Y-109355850D02*
X182467100Y-112657850D01*
D34*
X182467100Y-112657850D02*
X182340100Y-112784850D01*
X187547100Y-112657850D02*
X187420100Y-112784850D01*
X187547100Y-109355850D02*
X187420100Y-109355850D01*
D32*
X187547100Y-109355850D02*
X187547100Y-112657850D01*
X192627100Y-109355850D02*
X192627100Y-112657850D01*
D34*
X192627100Y-112657850D02*
X192500100Y-112784850D01*
X192627100Y-109355850D02*
X192500100Y-109355850D01*
D33*
X215614100Y-100973850D02*
X215741100Y-101100850D01*
X206343100Y-100973850D02*
X205073100Y-102243850D01*
X217265100Y-101100850D02*
X217519100Y-101354850D01*
X218916100Y-101354850D02*
X219805100Y-100465850D01*
X219805100Y-100465850D02*
X220567100Y-100465850D01*
X217519100Y-101354850D02*
X218916100Y-101354850D01*
X220567100Y-100465850D02*
X220948100Y-100084850D01*
X215614100Y-100973850D02*
X206343100Y-100973850D01*
X215741100Y-101100850D02*
X217265100Y-101100850D01*
D34*
X197707100Y-109355850D02*
X197580100Y-109355850D01*
D35*
X198977100Y-103132850D02*
X199866100Y-102243850D01*
D34*
X197707100Y-112657850D02*
X197580100Y-112784850D01*
D35*
X197707100Y-109355850D02*
X197707100Y-112657850D01*
D33*
X205073100Y-102243850D02*
X199866100Y-102243850D01*
D35*
X197707100Y-109355850D02*
X198977100Y-108085850D01*
X198977100Y-108085850D02*
X198977100Y-103132850D01*
D34*
X78581100Y-112403850D02*
X78581100Y-112490850D01*
D32*
X78581100Y-112403850D02*
X83915100Y-112403850D01*
D34*
X78581100Y-107323850D02*
X78581100Y-107490850D01*
D32*
X78581100Y-107323850D02*
X83915100Y-107323850D01*
D34*
X83915100Y-107323850D02*
X83915100Y-107450850D01*
D32*
X155797100Y-93861850D02*
X155797100Y-97671850D01*
D33*
X171418100Y-105926850D02*
X171418100Y-101862850D01*
X166084100Y-100973850D02*
X166465100Y-101354850D01*
X165322100Y-100973850D02*
X166084100Y-100973850D01*
X174974100Y-106815850D02*
X174593100Y-106434850D01*
X174593100Y-106434850D02*
X171926100Y-106434850D01*
X166465100Y-101354850D02*
X170910100Y-101354850D01*
X171418100Y-101862850D02*
X170910100Y-101354850D01*
X171926100Y-106434850D02*
X171418100Y-105926850D01*
D32*
X218408100Y-74684850D02*
X216630100Y-74303850D01*
X218408100Y-77224850D02*
X216630100Y-76843850D01*
X218408100Y-79764850D02*
X216630100Y-79383850D01*
X218408100Y-82304850D02*
X216630100Y-81923850D01*
X218408100Y-84844850D02*
X216630100Y-84463850D01*
X218408100Y-87384850D02*
X216630100Y-87003850D01*
X218408100Y-89924850D02*
X216630100Y-89543850D01*
X218408100Y-92464850D02*
X216630100Y-92083850D01*
X218408100Y-95004850D02*
X216630100Y-94623850D01*
X218408100Y-97544850D02*
X216630100Y-97163850D01*
X218408100Y-100084850D02*
X216757100Y-99703850D01*
D34*
X216757100Y-99703850D02*
X216630100Y-99830850D01*
D32*
X218408100Y-102624850D02*
X216630100Y-102243850D01*
X218408100Y-105164850D02*
X216630100Y-104783850D01*
X218408100Y-107704850D02*
X216630100Y-107323850D01*
X218408100Y-128024850D02*
X216630100Y-127643850D01*
X218408100Y-125484850D02*
X216630100Y-125103850D01*
X218408100Y-115324850D02*
X216630100Y-114943850D01*
D31*
X168370100Y-84463850D02*
X170148100Y-84844850D01*
X168370100Y-87003850D02*
X170148100Y-87384850D01*
X168370100Y-89543850D02*
X170148100Y-89924850D01*
X168370100Y-92083850D02*
X170148100Y-92464850D01*
X168370100Y-94623850D02*
X170148100Y-95004850D01*
D33*
X167227100Y-104402850D02*
X169767100Y-104402850D01*
X169767100Y-104402850D02*
X170148100Y-105164850D01*
X167227100Y-122563850D02*
X170148100Y-122944850D01*
D32*
X172688100Y-122944850D02*
X174466100Y-122563850D01*
X172688100Y-120404850D02*
X174466100Y-120023850D01*
X172688100Y-115324850D02*
X174466100Y-114943850D01*
X172688100Y-112784850D02*
X174466100Y-112403850D01*
X172688100Y-97544850D02*
X174466100Y-97163850D01*
X172688100Y-105164850D02*
X174466100Y-104783850D01*
X172688100Y-95004850D02*
X174466100Y-94623850D01*
X172688100Y-92464850D02*
X174466100Y-92083850D01*
X172688100Y-89924850D02*
X174466100Y-89543850D01*
X172688100Y-87384850D02*
X174466100Y-87003850D01*
X172688100Y-84844850D02*
X174466100Y-84463850D01*
X172688100Y-82304850D02*
X174466100Y-81923850D01*
X220948100Y-74684850D02*
X222472100Y-74303850D01*
X220948100Y-77224850D02*
X222472100Y-76843850D01*
X220948100Y-79764850D02*
X222472100Y-79383850D01*
X220948100Y-82304850D02*
X222472100Y-81923850D01*
X220948100Y-84844850D02*
X222472100Y-84463850D01*
X220948100Y-87384850D02*
X222472100Y-87003850D01*
X220948100Y-89924850D02*
X222472100Y-89543850D01*
X220948100Y-92464850D02*
X222472100Y-92083850D01*
X220948100Y-95004850D02*
X222472100Y-94623850D01*
X220948100Y-102624850D02*
X222472100Y-102243850D01*
X220948100Y-105164850D02*
X222472100Y-104783850D01*
X220948100Y-107704850D02*
X222472100Y-107323850D01*
X220948100Y-120404850D02*
X222472100Y-120023850D01*
X220948100Y-125484850D02*
X222472100Y-125103850D01*
X220948100Y-128024850D02*
X222472100Y-127643850D01*
X203295100Y-83066850D02*
X203295100Y-85352850D01*
X200755100Y-86241850D02*
X200755100Y-88781850D01*
D31*
X193389100Y-86241850D02*
X193262100Y-86241850D01*
X193389100Y-86495850D02*
X195675100Y-88781850D01*
X193389100Y-86241850D02*
X193389100Y-86495850D01*
D32*
X205835100Y-85987850D02*
X205835100Y-88781850D01*
D33*
X165957100Y-120023850D02*
X170148100Y-120404850D01*
D31*
X219678100Y-140851850D02*
X217646100Y-142883850D01*
X219678100Y-98560850D02*
X219932100Y-98814850D01*
D36*
X210788100Y-139454850D02*
X215106100Y-139454850D01*
D31*
X221710100Y-101354850D02*
X220186100Y-101354850D01*
D36*
X205835100Y-143518850D02*
X206724100Y-143518850D01*
D31*
X219678100Y-101862850D02*
X219678100Y-140851850D01*
X222091100Y-100973850D02*
X221710100Y-101354850D01*
D35*
X215527100Y-66429850D02*
X215527100Y-67612850D01*
D31*
X221710100Y-98814850D02*
X222091100Y-99195850D01*
D36*
X206724100Y-143518850D02*
X210788100Y-139454850D01*
X217646100Y-141994850D02*
X217646100Y-142883850D01*
D31*
X222091100Y-99195850D02*
X222091100Y-100973850D01*
D36*
X215106100Y-139454850D02*
X217646100Y-141994850D01*
D31*
X219678100Y-71763850D02*
X219678100Y-98560850D01*
D35*
X215527100Y-67612850D02*
X219678100Y-71763850D01*
D31*
X219932100Y-98814850D02*
X221710100Y-98814850D01*
D36*
X217646100Y-142883850D02*
X217646100Y-143478850D01*
D31*
X220186100Y-101354850D02*
X219678100Y-101862850D01*
D36*
X217646100Y-143478850D02*
X217606100Y-143518850D01*
M02*
