G04 #@! TF.GenerationSoftware,KiCad,Pcbnew,(6.0.9)*
G04 #@! TF.CreationDate,2022-12-31T07:10:20+09:00*
G04 #@! TF.ProjectId,osso,6f73736f-2e6b-4696-9361-645f70636258,rev?*
G04 #@! TF.SameCoordinates,Original*
G04 #@! TF.FileFunction,AssemblyDrawing,Top*
%FSLAX46Y46*%
G04 Gerber Fmt 4.6, Leading zero omitted, Abs format (unit mm)*
G04 Created by KiCad (PCBNEW (6.0.9)) date 2022-12-31 07:10:20*
%MOMM*%
%LPD*%
G01*
G04 APERTURE LIST*
%ADD10C,0.099060*%
%ADD11C,0.114300*%
%ADD12C,0.127000*%
%ADD13C,0.089154*%
%ADD14C,0.160020*%
%ADD15C,0.508000*%
%ADD16C,0.152400*%
%ADD17C,2.489200*%
%ADD18C,0.457200*%
%ADD19C,0.254000*%
%ADD20C,0.762000*%
G04 APERTURE END LIST*
D10*
X155272045Y-99112592D02*
X155272045Y-99622043D01*
X155272045Y-99367318D02*
X154380505Y-99367318D01*
X154507868Y-99452226D01*
X154592777Y-99537135D01*
X154635231Y-99622043D01*
X154380505Y-98560686D02*
X154380505Y-98475778D01*
X154422960Y-98390869D01*
X154465414Y-98348415D01*
X154550322Y-98305961D01*
X154720140Y-98263506D01*
X154932411Y-98263506D01*
X155102228Y-98305961D01*
X155187137Y-98348415D01*
X155229591Y-98390869D01*
X155272045Y-98475778D01*
X155272045Y-98560686D01*
X155229591Y-98645595D01*
X155187137Y-98688049D01*
X155102228Y-98730503D01*
X154932411Y-98772958D01*
X154720140Y-98772958D01*
X154550322Y-98730503D01*
X154465414Y-98688049D01*
X154422960Y-98645595D01*
X154380505Y-98560686D01*
X155272045Y-97881418D02*
X154380505Y-97881418D01*
X154932411Y-97796509D02*
X155272045Y-97541783D01*
X154677685Y-97541783D02*
X155017320Y-97881418D01*
D11*
D10*
X150192045Y-99366592D02*
X150192045Y-99876043D01*
X150192045Y-99621318D02*
X149300505Y-99621318D01*
X149427868Y-99706226D01*
X149512777Y-99791135D01*
X149555231Y-99876043D01*
X149300505Y-98814686D02*
X149300505Y-98729778D01*
X149342960Y-98644869D01*
X149385414Y-98602415D01*
X149470322Y-98559961D01*
X149640140Y-98517506D01*
X149852411Y-98517506D01*
X150022228Y-98559961D01*
X150107137Y-98602415D01*
X150149591Y-98644869D01*
X150192045Y-98729778D01*
X150192045Y-98814686D01*
X150149591Y-98899595D01*
X150107137Y-98942049D01*
X150022228Y-98984503D01*
X149852411Y-99026958D01*
X149640140Y-99026958D01*
X149470322Y-98984503D01*
X149385414Y-98942049D01*
X149342960Y-98899595D01*
X149300505Y-98814686D01*
X150192045Y-98135418D02*
X149300505Y-98135418D01*
X149852411Y-98050509D02*
X150192045Y-97795783D01*
X149597685Y-97795783D02*
X149937320Y-98135418D01*
D11*
X153350238Y-63142666D02*
X153350238Y-61986966D01*
X153900571Y-63142666D02*
X153900571Y-61986966D01*
X154560971Y-63142666D01*
X154560971Y-61986966D01*
X155606605Y-62372200D02*
X155606605Y-63142666D01*
X155331438Y-61931933D02*
X155056271Y-62757433D01*
X155771705Y-62757433D01*
D12*
D11*
X163510238Y-63142666D02*
X163510238Y-61986966D01*
X164060571Y-63142666D02*
X164060571Y-61986966D01*
X164720971Y-63142666D01*
X164720971Y-61986966D01*
X165161238Y-61986966D02*
X165876671Y-61986966D01*
X165491438Y-62427233D01*
X165656538Y-62427233D01*
X165766605Y-62482266D01*
X165821638Y-62537300D01*
X165876671Y-62647366D01*
X165876671Y-62922533D01*
X165821638Y-63032600D01*
X165766605Y-63087633D01*
X165656538Y-63142666D01*
X165326338Y-63142666D01*
X165216271Y-63087633D01*
X165161238Y-63032600D01*
X79484695Y-140213566D02*
X80255161Y-141369266D01*
X80255161Y-140213566D02*
X79484695Y-141369266D01*
X81245761Y-140213566D02*
X80695428Y-140213566D01*
X80640395Y-140763900D01*
X80695428Y-140708866D01*
X80805495Y-140653833D01*
X81080661Y-140653833D01*
X81190728Y-140708866D01*
X81245761Y-140763900D01*
X81300795Y-140873966D01*
X81300795Y-141149133D01*
X81245761Y-141259200D01*
X81190728Y-141314233D01*
X81080661Y-141369266D01*
X80805495Y-141369266D01*
X80695428Y-141314233D01*
X80640395Y-141259200D01*
D12*
X80459964Y-141866078D02*
X80514392Y-141811650D01*
X80623250Y-141757221D01*
X80895392Y-141757221D01*
X81004250Y-141811650D01*
X81058678Y-141866078D01*
X81113107Y-141974935D01*
X81113107Y-142083792D01*
X81058678Y-142247078D01*
X80405535Y-142900221D01*
X81113107Y-142900221D01*
X85409335Y-141706421D02*
X86116907Y-141706421D01*
X85735907Y-142141850D01*
X85899192Y-142141850D01*
X86008050Y-142196278D01*
X86062478Y-142250707D01*
X86116907Y-142359564D01*
X86116907Y-142631707D01*
X86062478Y-142740564D01*
X86008050Y-142794992D01*
X85899192Y-142849421D01*
X85572621Y-142849421D01*
X85463764Y-142794992D01*
X85409335Y-142740564D01*
X76058507Y-142849421D02*
X75405364Y-142849421D01*
X75731935Y-142849421D02*
X75731935Y-141706421D01*
X75623078Y-141869707D01*
X75514221Y-141978564D01*
X75405364Y-142032992D01*
D11*
X173670238Y-63142666D02*
X173670238Y-61986966D01*
X174220571Y-63142666D02*
X174220571Y-61986966D01*
X174880971Y-63142666D01*
X174880971Y-61986966D01*
X175376271Y-62097033D02*
X175431305Y-62042000D01*
X175541371Y-61986966D01*
X175816538Y-61986966D01*
X175926605Y-62042000D01*
X175981638Y-62097033D01*
X176036671Y-62207100D01*
X176036671Y-62317166D01*
X175981638Y-62482266D01*
X175321238Y-63142666D01*
X176036671Y-63142666D01*
D13*
X178960414Y-73196283D02*
X178960414Y-73797247D01*
X178745784Y-72852875D02*
X178531154Y-73496765D01*
X179089192Y-73496765D01*
X179475526Y-73797247D02*
X179647230Y-73797247D01*
X179733082Y-73754321D01*
X179776008Y-73711395D01*
X179861860Y-73582617D01*
X179904786Y-73410913D01*
X179904786Y-73067505D01*
X179861860Y-72981653D01*
X179818934Y-72938727D01*
X179733082Y-72895801D01*
X179561378Y-72895801D01*
X179475526Y-72938727D01*
X179432600Y-72981653D01*
X179389674Y-73067505D01*
X179389674Y-73282135D01*
X179432600Y-73367987D01*
X179475526Y-73410913D01*
X179561378Y-73453839D01*
X179733082Y-73453839D01*
X179818934Y-73410913D01*
X179861860Y-73367987D01*
X179904786Y-73282135D01*
D11*
X148119738Y-89799966D02*
X148339871Y-89799966D01*
X148449938Y-89855000D01*
X148560005Y-89965066D01*
X148615038Y-90185200D01*
X148615038Y-90570433D01*
X148560005Y-90790566D01*
X148449938Y-90900633D01*
X148339871Y-90955666D01*
X148119738Y-90955666D01*
X148009671Y-90900633D01*
X147899605Y-90790566D01*
X147844571Y-90570433D01*
X147844571Y-90185200D01*
X147899605Y-89965066D01*
X148009671Y-89855000D01*
X148119738Y-89799966D01*
X149110338Y-90955666D02*
X149110338Y-89799966D01*
X149550605Y-89799966D01*
X149660671Y-89855000D01*
X149715705Y-89910033D01*
X149770738Y-90020100D01*
X149770738Y-90185200D01*
X149715705Y-90295266D01*
X149660671Y-90350300D01*
X149550605Y-90405333D01*
X149110338Y-90405333D01*
X150100938Y-89799966D02*
X150761338Y-89799966D01*
X150431138Y-90955666D02*
X150431138Y-89799966D01*
X151366705Y-89799966D02*
X151586838Y-89799966D01*
X151696905Y-89855000D01*
X151806971Y-89965066D01*
X151862005Y-90185200D01*
X151862005Y-90570433D01*
X151806971Y-90790566D01*
X151696905Y-90900633D01*
X151586838Y-90955666D01*
X151366705Y-90955666D01*
X151256638Y-90900633D01*
X151146571Y-90790566D01*
X151091538Y-90570433D01*
X151091538Y-90185200D01*
X151146571Y-89965066D01*
X151256638Y-89855000D01*
X151366705Y-89799966D01*
X152357305Y-90955666D02*
X152357305Y-89799966D01*
X152852605Y-90900633D02*
X153017705Y-90955666D01*
X153292871Y-90955666D01*
X153402938Y-90900633D01*
X153457971Y-90845600D01*
X153513005Y-90735533D01*
X153513005Y-90625466D01*
X153457971Y-90515400D01*
X153402938Y-90460366D01*
X153292871Y-90405333D01*
X153072738Y-90350300D01*
X152962671Y-90295266D01*
X152907638Y-90240233D01*
X152852605Y-90130166D01*
X152852605Y-90020100D01*
X152907638Y-89910033D01*
X152962671Y-89855000D01*
X153072738Y-89799966D01*
X153347905Y-89799966D01*
X153513005Y-89855000D01*
X154228438Y-89799966D02*
X154448571Y-89799966D01*
X154558638Y-89855000D01*
X154668705Y-89965066D01*
X154723738Y-90185200D01*
X154723738Y-90570433D01*
X154668705Y-90790566D01*
X154558638Y-90900633D01*
X154448571Y-90955666D01*
X154228438Y-90955666D01*
X154118371Y-90900633D01*
X154008305Y-90790566D01*
X153953271Y-90570433D01*
X153953271Y-90185200D01*
X154008305Y-89965066D01*
X154118371Y-89855000D01*
X154228438Y-89799966D01*
X155769371Y-90955666D02*
X155219038Y-90955666D01*
X155219038Y-89799966D01*
X156099571Y-90625466D02*
X156649905Y-90625466D01*
X155989505Y-90955666D02*
X156374738Y-89799966D01*
X156759971Y-90955666D01*
X156980105Y-89799966D02*
X157640505Y-89799966D01*
X157310305Y-90955666D02*
X157310305Y-89799966D01*
X158245871Y-89799966D02*
X158466005Y-89799966D01*
X158576071Y-89855000D01*
X158686138Y-89965066D01*
X158741171Y-90185200D01*
X158741171Y-90570433D01*
X158686138Y-90790566D01*
X158576071Y-90900633D01*
X158466005Y-90955666D01*
X158245871Y-90955666D01*
X158135805Y-90900633D01*
X158025738Y-90790566D01*
X157970705Y-90570433D01*
X157970705Y-90185200D01*
X158025738Y-89965066D01*
X158135805Y-89855000D01*
X158245871Y-89799966D01*
X159896871Y-90955666D02*
X159511638Y-90405333D01*
X159236471Y-90955666D02*
X159236471Y-89799966D01*
X159676738Y-89799966D01*
X159786805Y-89855000D01*
X159841838Y-89910033D01*
X159896871Y-90020100D01*
X159896871Y-90185200D01*
X159841838Y-90295266D01*
X159786805Y-90350300D01*
X159676738Y-90405333D01*
X159236471Y-90405333D01*
X160392171Y-90350300D02*
X160777405Y-90350300D01*
X160942505Y-90955666D02*
X160392171Y-90955666D01*
X160392171Y-89799966D01*
X160942505Y-89799966D01*
X161162638Y-91065733D02*
X162043171Y-91065733D01*
X162318338Y-90955666D02*
X162318338Y-89799966D01*
X163419005Y-90955666D02*
X162868671Y-90955666D01*
X162868671Y-89799966D01*
X164574705Y-91065733D02*
X164464638Y-91010700D01*
X164354571Y-90900633D01*
X164189471Y-90735533D01*
X164079405Y-90680500D01*
X163969338Y-90680500D01*
X164024371Y-90955666D02*
X163914305Y-90900633D01*
X163804238Y-90790566D01*
X163749205Y-90570433D01*
X163749205Y-90185200D01*
X163804238Y-89965066D01*
X163914305Y-89855000D01*
X164024371Y-89799966D01*
X164244505Y-89799966D01*
X164354571Y-89855000D01*
X164464638Y-89965066D01*
X164519671Y-90185200D01*
X164519671Y-90570433D01*
X164464638Y-90790566D01*
X164354571Y-90900633D01*
X164244505Y-90955666D01*
X164024371Y-90955666D01*
X165510271Y-89799966D02*
X165290138Y-89799966D01*
X165180071Y-89855000D01*
X165125038Y-89910033D01*
X165014971Y-90075133D01*
X164959938Y-90295266D01*
X164959938Y-90735533D01*
X165014971Y-90845600D01*
X165070005Y-90900633D01*
X165180071Y-90955666D01*
X165400205Y-90955666D01*
X165510271Y-90900633D01*
X165565305Y-90845600D01*
X165620338Y-90735533D01*
X165620338Y-90460366D01*
X165565305Y-90350300D01*
X165510271Y-90295266D01*
X165400205Y-90240233D01*
X165180071Y-90240233D01*
X165070005Y-90295266D01*
X165014971Y-90350300D01*
X164959938Y-90460366D01*
X166060605Y-89910033D02*
X166115638Y-89855000D01*
X166225705Y-89799966D01*
X166500871Y-89799966D01*
X166610938Y-89855000D01*
X166665971Y-89910033D01*
X166721005Y-90020100D01*
X166721005Y-90130166D01*
X166665971Y-90295266D01*
X166005571Y-90955666D01*
X166721005Y-90955666D01*
X167436438Y-89799966D02*
X167546505Y-89799966D01*
X167656571Y-89855000D01*
X167711605Y-89910033D01*
X167766638Y-90020100D01*
X167821671Y-90240233D01*
X167821671Y-90515400D01*
X167766638Y-90735533D01*
X167711605Y-90845600D01*
X167656571Y-90900633D01*
X167546505Y-90955666D01*
X167436438Y-90955666D01*
X167326371Y-90900633D01*
X167271338Y-90845600D01*
X167216305Y-90735533D01*
X167161271Y-90515400D01*
X167161271Y-90240233D01*
X167216305Y-90020100D01*
X167271338Y-89910033D01*
X167326371Y-89855000D01*
X167436438Y-89799966D01*
D10*
X188241245Y-131319792D02*
X188241245Y-131829243D01*
X188241245Y-131574518D02*
X187349705Y-131574518D01*
X187477068Y-131659426D01*
X187561977Y-131744335D01*
X187604431Y-131829243D01*
X187349705Y-130767886D02*
X187349705Y-130682978D01*
X187392160Y-130598069D01*
X187434614Y-130555615D01*
X187519522Y-130513161D01*
X187689340Y-130470706D01*
X187901611Y-130470706D01*
X188071428Y-130513161D01*
X188156337Y-130555615D01*
X188198791Y-130598069D01*
X188241245Y-130682978D01*
X188241245Y-130767886D01*
X188198791Y-130852795D01*
X188156337Y-130895249D01*
X188071428Y-130937703D01*
X187901611Y-130980158D01*
X187689340Y-130980158D01*
X187519522Y-130937703D01*
X187434614Y-130895249D01*
X187392160Y-130852795D01*
X187349705Y-130767886D01*
X188241245Y-130088618D02*
X187349705Y-130088618D01*
X187901611Y-130003709D02*
X188241245Y-129748983D01*
X187646885Y-129748983D02*
X187986520Y-130088618D01*
D11*
X183830238Y-63142666D02*
X183830238Y-61986966D01*
X184380571Y-63142666D02*
X184380571Y-61986966D01*
X185040971Y-63142666D01*
X185040971Y-61986966D01*
X186196671Y-63142666D02*
X185536271Y-63142666D01*
X185866471Y-63142666D02*
X185866471Y-61986966D01*
X185756405Y-62152066D01*
X185646338Y-62262133D01*
X185536271Y-62317166D01*
D10*
X176862045Y-79427592D02*
X176862045Y-79937043D01*
X176862045Y-79682318D02*
X175970505Y-79682318D01*
X176097868Y-79767226D01*
X176182777Y-79852135D01*
X176225231Y-79937043D01*
X175970505Y-78875686D02*
X175970505Y-78790778D01*
X176012960Y-78705869D01*
X176055414Y-78663415D01*
X176140322Y-78620961D01*
X176310140Y-78578506D01*
X176522411Y-78578506D01*
X176692228Y-78620961D01*
X176777137Y-78663415D01*
X176819591Y-78705869D01*
X176862045Y-78790778D01*
X176862045Y-78875686D01*
X176819591Y-78960595D01*
X176777137Y-79003049D01*
X176692228Y-79045503D01*
X176522411Y-79087958D01*
X176310140Y-79087958D01*
X176140322Y-79045503D01*
X176055414Y-79003049D01*
X176012960Y-78960595D01*
X175970505Y-78875686D01*
X176862045Y-78196418D02*
X175970505Y-78196418D01*
X176522411Y-78111509D02*
X176862045Y-77856783D01*
X176267685Y-77856783D02*
X176607320Y-78196418D01*
D11*
X169140561Y-147851666D02*
X169140561Y-146695966D01*
X169690895Y-147851666D02*
X169690895Y-146695966D01*
X170351295Y-147851666D01*
X170351295Y-146695966D01*
X170791561Y-146695966D02*
X171562028Y-146695966D01*
X171066728Y-147851666D01*
X119240371Y-68469366D02*
X120010838Y-69625066D01*
X120010838Y-68469366D02*
X119240371Y-69625066D01*
X120396071Y-68579433D02*
X120451105Y-68524400D01*
X120561171Y-68469366D01*
X120836338Y-68469366D01*
X120946405Y-68524400D01*
X121001438Y-68579433D01*
X121056471Y-68689500D01*
X121056471Y-68799566D01*
X121001438Y-68964666D01*
X120341038Y-69625066D01*
X121056471Y-69625066D01*
D12*
X115678535Y-65847421D02*
X116386107Y-65847421D01*
X116005107Y-66282850D01*
X116168392Y-66282850D01*
X116277250Y-66337278D01*
X116331678Y-66391707D01*
X116386107Y-66500564D01*
X116386107Y-66772707D01*
X116331678Y-66881564D01*
X116277250Y-66935992D01*
X116168392Y-66990421D01*
X115841821Y-66990421D01*
X115732964Y-66935992D01*
X115678535Y-66881564D01*
X126444507Y-66990421D02*
X125791364Y-66990421D01*
X126117935Y-66990421D02*
X126117935Y-65847421D01*
X126009078Y-66010707D01*
X125900221Y-66119564D01*
X125791364Y-66173992D01*
X120736764Y-65905478D02*
X120791192Y-65851050D01*
X120900050Y-65796621D01*
X121172192Y-65796621D01*
X121281050Y-65851050D01*
X121335478Y-65905478D01*
X121389907Y-66014335D01*
X121389907Y-66123192D01*
X121335478Y-66286478D01*
X120682335Y-66939621D01*
X121389907Y-66939621D01*
D10*
X149176045Y-76506592D02*
X149176045Y-77016043D01*
X149176045Y-76761318D02*
X148284505Y-76761318D01*
X148411868Y-76846226D01*
X148496777Y-76931135D01*
X148539231Y-77016043D01*
X148284505Y-75954686D02*
X148284505Y-75869778D01*
X148326960Y-75784869D01*
X148369414Y-75742415D01*
X148454322Y-75699961D01*
X148624140Y-75657506D01*
X148836411Y-75657506D01*
X149006228Y-75699961D01*
X149091137Y-75742415D01*
X149133591Y-75784869D01*
X149176045Y-75869778D01*
X149176045Y-75954686D01*
X149133591Y-76039595D01*
X149091137Y-76082049D01*
X149006228Y-76124503D01*
X148836411Y-76166958D01*
X148624140Y-76166958D01*
X148454322Y-76124503D01*
X148369414Y-76082049D01*
X148326960Y-76039595D01*
X148284505Y-75954686D01*
X149176045Y-75275418D02*
X148284505Y-75275418D01*
X148836411Y-75190509D02*
X149176045Y-74935783D01*
X148581685Y-74935783D02*
X148921320Y-75275418D01*
D14*
X83670540Y-72114793D02*
X83131213Y-71344326D01*
X82745980Y-72114793D02*
X82745980Y-70496813D01*
X83362353Y-70496813D01*
X83516447Y-70573860D01*
X83593493Y-70650906D01*
X83670540Y-70805000D01*
X83670540Y-71036140D01*
X83593493Y-71190233D01*
X83516447Y-71267280D01*
X83362353Y-71344326D01*
X82745980Y-71344326D01*
X84363960Y-71267280D02*
X84903287Y-71267280D01*
X85134427Y-72114793D02*
X84363960Y-72114793D01*
X84363960Y-70496813D01*
X85134427Y-70496813D01*
X86598313Y-72114793D02*
X85827847Y-72114793D01*
X85827847Y-70496813D01*
X87060593Y-71652513D02*
X87831060Y-71652513D01*
X86906500Y-72114793D02*
X87445827Y-70496813D01*
X87985153Y-72114793D01*
X88832667Y-71344326D02*
X88832667Y-72114793D01*
X88293340Y-70496813D02*
X88832667Y-71344326D01*
X89371993Y-70496813D01*
D11*
X158980561Y-147851666D02*
X158980561Y-146695966D01*
X159530895Y-147851666D02*
X159530895Y-146695966D01*
X160191295Y-147851666D01*
X160191295Y-146695966D01*
X161236928Y-146695966D02*
X161016795Y-146695966D01*
X160906728Y-146751000D01*
X160851695Y-146806033D01*
X160741628Y-146971133D01*
X160686595Y-147191266D01*
X160686595Y-147631533D01*
X160741628Y-147741600D01*
X160796661Y-147796633D01*
X160906728Y-147851666D01*
X161126861Y-147851666D01*
X161236928Y-147796633D01*
X161291961Y-147741600D01*
X161346995Y-147631533D01*
X161346995Y-147356366D01*
X161291961Y-147246300D01*
X161236928Y-147191266D01*
X161126861Y-147136233D01*
X160906728Y-147136233D01*
X160796661Y-147191266D01*
X160741628Y-147246300D01*
X160686595Y-147356366D01*
D10*
D11*
X116314695Y-140213566D02*
X117085161Y-141369266D01*
X117085161Y-140213566D02*
X116314695Y-141369266D01*
X117415361Y-140213566D02*
X118185828Y-140213566D01*
X117690528Y-141369266D01*
D12*
X112888507Y-142849421D02*
X112235364Y-142849421D01*
X112561935Y-142849421D02*
X112561935Y-141706421D01*
X112453078Y-141869707D01*
X112344221Y-141978564D01*
X112235364Y-142032992D01*
X117289964Y-141866078D02*
X117344392Y-141811650D01*
X117453250Y-141757221D01*
X117725392Y-141757221D01*
X117834250Y-141811650D01*
X117888678Y-141866078D01*
X117943107Y-141974935D01*
X117943107Y-142083792D01*
X117888678Y-142247078D01*
X117235535Y-142900221D01*
X117943107Y-142900221D01*
X122239335Y-141706421D02*
X122946907Y-141706421D01*
X122565907Y-142141850D01*
X122729192Y-142141850D01*
X122838050Y-142196278D01*
X122892478Y-142250707D01*
X122946907Y-142359564D01*
X122946907Y-142631707D01*
X122892478Y-142740564D01*
X122838050Y-142794992D01*
X122729192Y-142849421D01*
X122402621Y-142849421D01*
X122293764Y-142794992D01*
X122239335Y-142740564D01*
D10*
X183024249Y-136506635D02*
X183024249Y-137100995D01*
X182811977Y-136167001D02*
X182599706Y-136803815D01*
X183151611Y-136803815D01*
X183533700Y-137100995D02*
X183703517Y-137100995D01*
X183788426Y-137058541D01*
X183830880Y-137016087D01*
X183915789Y-136888724D01*
X183958243Y-136718907D01*
X183958243Y-136379272D01*
X183915789Y-136294364D01*
X183873334Y-136251910D01*
X183788426Y-136209455D01*
X183618609Y-136209455D01*
X183533700Y-136251910D01*
X183491246Y-136294364D01*
X183448791Y-136379272D01*
X183448791Y-136591544D01*
X183491246Y-136676452D01*
X183533700Y-136718907D01*
X183618609Y-136761361D01*
X183788426Y-136761361D01*
X183873334Y-136718907D01*
X183915789Y-136676452D01*
X183958243Y-136591544D01*
D14*
X94091906Y-139297793D02*
X93552579Y-138527326D01*
X93167346Y-139297793D02*
X93167346Y-137679813D01*
X93783719Y-137679813D01*
X93937813Y-137756860D01*
X94014859Y-137833906D01*
X94091906Y-137988000D01*
X94091906Y-138219140D01*
X94014859Y-138373233D01*
X93937813Y-138450280D01*
X93783719Y-138527326D01*
X93167346Y-138527326D01*
X94785326Y-138450280D02*
X95324653Y-138450280D01*
X95555793Y-139297793D02*
X94785326Y-139297793D01*
X94785326Y-137679813D01*
X95555793Y-137679813D01*
X97019679Y-139297793D02*
X96249213Y-139297793D01*
X96249213Y-137679813D01*
X97481959Y-138835513D02*
X98252426Y-138835513D01*
X97327866Y-139297793D02*
X97867193Y-137679813D01*
X98406519Y-139297793D01*
X99254033Y-138527326D02*
X99254033Y-139297793D01*
X98714706Y-137679813D02*
X99254033Y-138527326D01*
X99793359Y-137679813D01*
D11*
X134475695Y-140213566D02*
X135246161Y-141369266D01*
X135246161Y-140213566D02*
X134475695Y-141369266D01*
X135851528Y-140708866D02*
X135741461Y-140653833D01*
X135686428Y-140598800D01*
X135631395Y-140488733D01*
X135631395Y-140433700D01*
X135686428Y-140323633D01*
X135741461Y-140268600D01*
X135851528Y-140213566D01*
X136071661Y-140213566D01*
X136181728Y-140268600D01*
X136236761Y-140323633D01*
X136291795Y-140433700D01*
X136291795Y-140488733D01*
X136236761Y-140598800D01*
X136181728Y-140653833D01*
X136071661Y-140708866D01*
X135851528Y-140708866D01*
X135741461Y-140763900D01*
X135686428Y-140818933D01*
X135631395Y-140929000D01*
X135631395Y-141149133D01*
X135686428Y-141259200D01*
X135741461Y-141314233D01*
X135851528Y-141369266D01*
X136071661Y-141369266D01*
X136181728Y-141314233D01*
X136236761Y-141259200D01*
X136291795Y-141149133D01*
X136291795Y-140929000D01*
X136236761Y-140818933D01*
X136181728Y-140763900D01*
X136071661Y-140708866D01*
D12*
X140400335Y-141706421D02*
X141107907Y-141706421D01*
X140726907Y-142141850D01*
X140890192Y-142141850D01*
X140999050Y-142196278D01*
X141053478Y-142250707D01*
X141107907Y-142359564D01*
X141107907Y-142631707D01*
X141053478Y-142740564D01*
X140999050Y-142794992D01*
X140890192Y-142849421D01*
X140563621Y-142849421D01*
X140454764Y-142794992D01*
X140400335Y-142740564D01*
X135450964Y-141866078D02*
X135505392Y-141811650D01*
X135614250Y-141757221D01*
X135886392Y-141757221D01*
X135995250Y-141811650D01*
X136049678Y-141866078D01*
X136104107Y-141974935D01*
X136104107Y-142083792D01*
X136049678Y-142247078D01*
X135396535Y-142900221D01*
X136104107Y-142900221D01*
X131049507Y-142849421D02*
X130396364Y-142849421D01*
X130722935Y-142849421D02*
X130722935Y-141706421D01*
X130614078Y-141869707D01*
X130505221Y-141978564D01*
X130396364Y-142032992D01*
D11*
X180623695Y-114691966D02*
X180843828Y-114691966D01*
X180953895Y-114747000D01*
X181063961Y-114857066D01*
X181118995Y-115077200D01*
X181118995Y-115462433D01*
X181063961Y-115682566D01*
X180953895Y-115792633D01*
X180843828Y-115847666D01*
X180623695Y-115847666D01*
X180513628Y-115792633D01*
X180403561Y-115682566D01*
X180348528Y-115462433D01*
X180348528Y-115077200D01*
X180403561Y-114857066D01*
X180513628Y-114747000D01*
X180623695Y-114691966D01*
X181614295Y-115847666D02*
X181614295Y-114691966D01*
X182054561Y-114691966D01*
X182164628Y-114747000D01*
X182219661Y-114802033D01*
X182274695Y-114912100D01*
X182274695Y-115077200D01*
X182219661Y-115187266D01*
X182164628Y-115242300D01*
X182054561Y-115297333D01*
X181614295Y-115297333D01*
X182604895Y-114691966D02*
X183265295Y-114691966D01*
X182935095Y-115847666D02*
X182935095Y-114691966D01*
X183870661Y-114691966D02*
X184090795Y-114691966D01*
X184200861Y-114747000D01*
X184310928Y-114857066D01*
X184365961Y-115077200D01*
X184365961Y-115462433D01*
X184310928Y-115682566D01*
X184200861Y-115792633D01*
X184090795Y-115847666D01*
X183870661Y-115847666D01*
X183760595Y-115792633D01*
X183650528Y-115682566D01*
X183595495Y-115462433D01*
X183595495Y-115077200D01*
X183650528Y-114857066D01*
X183760595Y-114747000D01*
X183870661Y-114691966D01*
X184861261Y-115847666D02*
X184861261Y-114691966D01*
X185356561Y-115792633D02*
X185521661Y-115847666D01*
X185796828Y-115847666D01*
X185906895Y-115792633D01*
X185961928Y-115737600D01*
X186016961Y-115627533D01*
X186016961Y-115517466D01*
X185961928Y-115407400D01*
X185906895Y-115352366D01*
X185796828Y-115297333D01*
X185576695Y-115242300D01*
X185466628Y-115187266D01*
X185411595Y-115132233D01*
X185356561Y-115022166D01*
X185356561Y-114912100D01*
X185411595Y-114802033D01*
X185466628Y-114747000D01*
X185576695Y-114691966D01*
X185851861Y-114691966D01*
X186016961Y-114747000D01*
X186732395Y-114691966D02*
X186952528Y-114691966D01*
X187062595Y-114747000D01*
X187172661Y-114857066D01*
X187227695Y-115077200D01*
X187227695Y-115462433D01*
X187172661Y-115682566D01*
X187062595Y-115792633D01*
X186952528Y-115847666D01*
X186732395Y-115847666D01*
X186622328Y-115792633D01*
X186512261Y-115682566D01*
X186457228Y-115462433D01*
X186457228Y-115077200D01*
X186512261Y-114857066D01*
X186622328Y-114747000D01*
X186732395Y-114691966D01*
X188273328Y-115847666D02*
X187722995Y-115847666D01*
X187722995Y-114691966D01*
X188603528Y-115517466D02*
X189153861Y-115517466D01*
X188493461Y-115847666D02*
X188878695Y-114691966D01*
X189263928Y-115847666D01*
X189484061Y-114691966D02*
X190144461Y-114691966D01*
X189814261Y-115847666D02*
X189814261Y-114691966D01*
X190749828Y-114691966D02*
X190969961Y-114691966D01*
X191080028Y-114747000D01*
X191190095Y-114857066D01*
X191245128Y-115077200D01*
X191245128Y-115462433D01*
X191190095Y-115682566D01*
X191080028Y-115792633D01*
X190969961Y-115847666D01*
X190749828Y-115847666D01*
X190639761Y-115792633D01*
X190529695Y-115682566D01*
X190474661Y-115462433D01*
X190474661Y-115077200D01*
X190529695Y-114857066D01*
X190639761Y-114747000D01*
X190749828Y-114691966D01*
X192400828Y-115847666D02*
X192015595Y-115297333D01*
X191740428Y-115847666D02*
X191740428Y-114691966D01*
X192180695Y-114691966D01*
X192290761Y-114747000D01*
X192345795Y-114802033D01*
X192400828Y-114912100D01*
X192400828Y-115077200D01*
X192345795Y-115187266D01*
X192290761Y-115242300D01*
X192180695Y-115297333D01*
X191740428Y-115297333D01*
X192896128Y-115242300D02*
X193281361Y-115242300D01*
X193446461Y-115847666D02*
X192896128Y-115847666D01*
X192896128Y-114691966D01*
X193446461Y-114691966D01*
X193666595Y-115957733D02*
X194547128Y-115957733D01*
X194822295Y-115847666D02*
X194822295Y-114691966D01*
X195922961Y-115847666D02*
X195372628Y-115847666D01*
X195372628Y-114691966D01*
X197078661Y-115957733D02*
X196968595Y-115902700D01*
X196858528Y-115792633D01*
X196693428Y-115627533D01*
X196583361Y-115572500D01*
X196473295Y-115572500D01*
X196528328Y-115847666D02*
X196418261Y-115792633D01*
X196308195Y-115682566D01*
X196253161Y-115462433D01*
X196253161Y-115077200D01*
X196308195Y-114857066D01*
X196418261Y-114747000D01*
X196528328Y-114691966D01*
X196748461Y-114691966D01*
X196858528Y-114747000D01*
X196968595Y-114857066D01*
X197023628Y-115077200D01*
X197023628Y-115462433D01*
X196968595Y-115682566D01*
X196858528Y-115792633D01*
X196748461Y-115847666D01*
X196528328Y-115847666D01*
X198014228Y-114691966D02*
X197794095Y-114691966D01*
X197684028Y-114747000D01*
X197628995Y-114802033D01*
X197518928Y-114967133D01*
X197463895Y-115187266D01*
X197463895Y-115627533D01*
X197518928Y-115737600D01*
X197573961Y-115792633D01*
X197684028Y-115847666D01*
X197904161Y-115847666D01*
X198014228Y-115792633D01*
X198069261Y-115737600D01*
X198124295Y-115627533D01*
X198124295Y-115352366D01*
X198069261Y-115242300D01*
X198014228Y-115187266D01*
X197904161Y-115132233D01*
X197684028Y-115132233D01*
X197573961Y-115187266D01*
X197518928Y-115242300D01*
X197463895Y-115352366D01*
X198564561Y-114802033D02*
X198619595Y-114747000D01*
X198729661Y-114691966D01*
X199004828Y-114691966D01*
X199114895Y-114747000D01*
X199169928Y-114802033D01*
X199224961Y-114912100D01*
X199224961Y-115022166D01*
X199169928Y-115187266D01*
X198509528Y-115847666D01*
X199224961Y-115847666D01*
X199940395Y-114691966D02*
X200050461Y-114691966D01*
X200160528Y-114747000D01*
X200215561Y-114802033D01*
X200270595Y-114912100D01*
X200325628Y-115132233D01*
X200325628Y-115407400D01*
X200270595Y-115627533D01*
X200215561Y-115737600D01*
X200160528Y-115792633D01*
X200050461Y-115847666D01*
X199940395Y-115847666D01*
X199830328Y-115792633D01*
X199775295Y-115737600D01*
X199720261Y-115627533D01*
X199665228Y-115407400D01*
X199665228Y-115132233D01*
X199720261Y-114912100D01*
X199775295Y-114802033D01*
X199830328Y-114747000D01*
X199940395Y-114691966D01*
X148820561Y-147851666D02*
X148820561Y-146695966D01*
X149370895Y-147851666D02*
X149370895Y-146695966D01*
X150031295Y-147851666D01*
X150031295Y-146695966D01*
X151131961Y-146695966D02*
X150581628Y-146695966D01*
X150526595Y-147246300D01*
X150581628Y-147191266D01*
X150691695Y-147136233D01*
X150966861Y-147136233D01*
X151076928Y-147191266D01*
X151131961Y-147246300D01*
X151186995Y-147356366D01*
X151186995Y-147631533D01*
X151131961Y-147741600D01*
X151076928Y-147796633D01*
X150966861Y-147851666D01*
X150691695Y-147851666D01*
X150581628Y-147796633D01*
X150526595Y-147741600D01*
D14*
X120246540Y-72114793D02*
X119707213Y-71344326D01*
X119321980Y-72114793D02*
X119321980Y-70496813D01*
X119938353Y-70496813D01*
X120092447Y-70573860D01*
X120169493Y-70650906D01*
X120246540Y-70805000D01*
X120246540Y-71036140D01*
X120169493Y-71190233D01*
X120092447Y-71267280D01*
X119938353Y-71344326D01*
X119321980Y-71344326D01*
X120939960Y-71267280D02*
X121479287Y-71267280D01*
X121710427Y-72114793D02*
X120939960Y-72114793D01*
X120939960Y-70496813D01*
X121710427Y-70496813D01*
X123174313Y-72114793D02*
X122403847Y-72114793D01*
X122403847Y-70496813D01*
X123636593Y-71652513D02*
X124407060Y-71652513D01*
X123482500Y-72114793D02*
X124021827Y-70496813D01*
X124561153Y-72114793D01*
X125408667Y-71344326D02*
X125408667Y-72114793D01*
X124869340Y-70496813D02*
X125408667Y-71344326D01*
X125947993Y-70496813D01*
D11*
X211630528Y-147521466D02*
X212180861Y-147521466D01*
X211520461Y-147851666D02*
X211905695Y-146695966D01*
X212290928Y-147851666D01*
X212841261Y-147851666D02*
X212731195Y-147796633D01*
X212676161Y-147686566D01*
X212676161Y-146695966D01*
X213281528Y-147851666D02*
X213281528Y-147081200D01*
X213281528Y-146695966D02*
X213226495Y-146751000D01*
X213281528Y-146806033D01*
X213336561Y-146751000D01*
X213281528Y-146695966D01*
X213281528Y-146806033D01*
X213831861Y-147851666D02*
X213831861Y-147081200D01*
X213831861Y-147191266D02*
X213886895Y-147136233D01*
X213996961Y-147081200D01*
X214162061Y-147081200D01*
X214272128Y-147136233D01*
X214327161Y-147246300D01*
X214327161Y-147851666D01*
X214327161Y-147246300D02*
X214382195Y-147136233D01*
X214492261Y-147081200D01*
X214657361Y-147081200D01*
X214767428Y-147136233D01*
X214822461Y-147246300D01*
X214822461Y-147851666D01*
X218255705Y-62812466D02*
X218806038Y-62812466D01*
X218145638Y-63142666D02*
X218530871Y-61986966D01*
X218916105Y-63142666D01*
X219466438Y-63142666D02*
X219356371Y-63087633D01*
X219301338Y-62977566D01*
X219301338Y-61986966D01*
X219906705Y-63142666D02*
X219906705Y-62372200D01*
X219906705Y-61986966D02*
X219851671Y-62042000D01*
X219906705Y-62097033D01*
X219961738Y-62042000D01*
X219906705Y-61986966D01*
X219906705Y-62097033D01*
X220457038Y-63142666D02*
X220457038Y-62372200D01*
X220457038Y-62482266D02*
X220512071Y-62427233D01*
X220622138Y-62372200D01*
X220787238Y-62372200D01*
X220897305Y-62427233D01*
X220952338Y-62537300D01*
X220952338Y-63142666D01*
X220952338Y-62537300D02*
X221007371Y-62427233D01*
X221117438Y-62372200D01*
X221282538Y-62372200D01*
X221392605Y-62427233D01*
X221447638Y-62537300D01*
X221447638Y-63142666D01*
X97772695Y-140213566D02*
X98543161Y-141369266D01*
X98543161Y-140213566D02*
X97772695Y-141369266D01*
X99478728Y-140213566D02*
X99258595Y-140213566D01*
X99148528Y-140268600D01*
X99093495Y-140323633D01*
X98983428Y-140488733D01*
X98928395Y-140708866D01*
X98928395Y-141149133D01*
X98983428Y-141259200D01*
X99038461Y-141314233D01*
X99148528Y-141369266D01*
X99368661Y-141369266D01*
X99478728Y-141314233D01*
X99533761Y-141259200D01*
X99588795Y-141149133D01*
X99588795Y-140873966D01*
X99533761Y-140763900D01*
X99478728Y-140708866D01*
X99368661Y-140653833D01*
X99148528Y-140653833D01*
X99038461Y-140708866D01*
X98983428Y-140763900D01*
X98928395Y-140873966D01*
D12*
X94346507Y-142849421D02*
X93693364Y-142849421D01*
X94019935Y-142849421D02*
X94019935Y-141706421D01*
X93911078Y-141869707D01*
X93802221Y-141978564D01*
X93693364Y-142032992D01*
X103697335Y-141706421D02*
X104404907Y-141706421D01*
X104023907Y-142141850D01*
X104187192Y-142141850D01*
X104296050Y-142196278D01*
X104350478Y-142250707D01*
X104404907Y-142359564D01*
X104404907Y-142631707D01*
X104350478Y-142740564D01*
X104296050Y-142794992D01*
X104187192Y-142849421D01*
X103860621Y-142849421D01*
X103751764Y-142794992D01*
X103697335Y-142740564D01*
X98747964Y-141866078D02*
X98802392Y-141811650D01*
X98911250Y-141757221D01*
X99183392Y-141757221D01*
X99292250Y-141811650D01*
X99346678Y-141866078D01*
X99401107Y-141974935D01*
X99401107Y-142083792D01*
X99346678Y-142247078D01*
X98693535Y-142900221D01*
X99401107Y-142900221D01*
D11*
X137528371Y-68469366D02*
X138298838Y-69625066D01*
X138298838Y-68469366D02*
X137528371Y-69625066D01*
X139344471Y-69625066D02*
X138684071Y-69625066D01*
X139014271Y-69625066D02*
X139014271Y-68469366D01*
X138904205Y-68634466D01*
X138794138Y-68744533D01*
X138684071Y-68799566D01*
D12*
X144732507Y-66990421D02*
X144079364Y-66990421D01*
X144405935Y-66990421D02*
X144405935Y-65847421D01*
X144297078Y-66010707D01*
X144188221Y-66119564D01*
X144079364Y-66173992D01*
X133966535Y-65847421D02*
X134674107Y-65847421D01*
X134293107Y-66282850D01*
X134456392Y-66282850D01*
X134565250Y-66337278D01*
X134619678Y-66391707D01*
X134674107Y-66500564D01*
X134674107Y-66772707D01*
X134619678Y-66881564D01*
X134565250Y-66935992D01*
X134456392Y-66990421D01*
X134129821Y-66990421D01*
X134020964Y-66935992D01*
X133966535Y-66881564D01*
X139024764Y-65905478D02*
X139079192Y-65851050D01*
X139188050Y-65796621D01*
X139460192Y-65796621D01*
X139569050Y-65851050D01*
X139623478Y-65905478D01*
X139677907Y-66014335D01*
X139677907Y-66123192D01*
X139623478Y-66286478D01*
X138970335Y-66939621D01*
X139677907Y-66939621D01*
D14*
X114792906Y-129010793D02*
X114253579Y-128240326D01*
X113868346Y-129010793D02*
X113868346Y-127392813D01*
X114484719Y-127392813D01*
X114638813Y-127469860D01*
X114715859Y-127546906D01*
X114792906Y-127701000D01*
X114792906Y-127932140D01*
X114715859Y-128086233D01*
X114638813Y-128163280D01*
X114484719Y-128240326D01*
X113868346Y-128240326D01*
X115486326Y-128163280D02*
X116025653Y-128163280D01*
X116256793Y-129010793D02*
X115486326Y-129010793D01*
X115486326Y-127392813D01*
X116256793Y-127392813D01*
X117720679Y-129010793D02*
X116950213Y-129010793D01*
X116950213Y-127392813D01*
X118182959Y-128548513D02*
X118953426Y-128548513D01*
X118028866Y-129010793D02*
X118568193Y-127392813D01*
X119107519Y-129010793D01*
X119955033Y-128240326D02*
X119955033Y-129010793D01*
X119415706Y-127392813D02*
X119955033Y-128240326D01*
X120494359Y-127392813D01*
D12*
X96986121Y-106507421D02*
X96986121Y-107432707D01*
X97040550Y-107541564D01*
X97094978Y-107595992D01*
X97203835Y-107650421D01*
X97421550Y-107650421D01*
X97530407Y-107595992D01*
X97584835Y-107541564D01*
X97639264Y-107432707D01*
X97639264Y-106507421D01*
X98727835Y-107650421D02*
X98183550Y-107650421D01*
X98183550Y-106507421D01*
X99108835Y-107650421D02*
X99108835Y-106507421D01*
X99761978Y-107650421D01*
X99761978Y-106507421D01*
X100251835Y-106616278D02*
X100306264Y-106561850D01*
X100415121Y-106507421D01*
X100687264Y-106507421D01*
X100796121Y-106561850D01*
X100850550Y-106616278D01*
X100904978Y-106725135D01*
X100904978Y-106833992D01*
X100850550Y-106997278D01*
X100197407Y-107650421D01*
X100904978Y-107650421D01*
X101612550Y-106507421D02*
X101721407Y-106507421D01*
X101830264Y-106561850D01*
X101884692Y-106616278D01*
X101939121Y-106725135D01*
X101993550Y-106942850D01*
X101993550Y-107214992D01*
X101939121Y-107432707D01*
X101884692Y-107541564D01*
X101830264Y-107595992D01*
X101721407Y-107650421D01*
X101612550Y-107650421D01*
X101503692Y-107595992D01*
X101449264Y-107541564D01*
X101394835Y-107432707D01*
X101340407Y-107214992D01*
X101340407Y-106942850D01*
X101394835Y-106725135D01*
X101449264Y-106616278D01*
X101503692Y-106561850D01*
X101612550Y-106507421D01*
X102701121Y-106507421D02*
X102809978Y-106507421D01*
X102918835Y-106561850D01*
X102973264Y-106616278D01*
X103027692Y-106725135D01*
X103082121Y-106942850D01*
X103082121Y-107214992D01*
X103027692Y-107432707D01*
X102973264Y-107541564D01*
X102918835Y-107595992D01*
X102809978Y-107650421D01*
X102701121Y-107650421D01*
X102592264Y-107595992D01*
X102537835Y-107541564D01*
X102483407Y-107432707D01*
X102428978Y-107214992D01*
X102428978Y-106942850D01*
X102483407Y-106725135D01*
X102537835Y-106616278D01*
X102592264Y-106561850D01*
X102701121Y-106507421D01*
X103463121Y-106507421D02*
X104170692Y-106507421D01*
X103789692Y-106942850D01*
X103952978Y-106942850D01*
X104061835Y-106997278D01*
X104116264Y-107051707D01*
X104170692Y-107160564D01*
X104170692Y-107432707D01*
X104116264Y-107541564D01*
X104061835Y-107595992D01*
X103952978Y-107650421D01*
X103626407Y-107650421D01*
X103517550Y-107595992D01*
X103463121Y-107541564D01*
X104606121Y-107323850D02*
X105150407Y-107323850D01*
X104497264Y-107650421D02*
X104878264Y-106507421D01*
X105259264Y-107650421D01*
X105640264Y-107650421D02*
X105640264Y-106507421D01*
X106293407Y-107650421D01*
X106293407Y-106507421D01*
D11*
D10*
D12*
D11*
D10*
X162831249Y-136506635D02*
X162831249Y-137100995D01*
X162618977Y-136167001D02*
X162406706Y-136803815D01*
X162958611Y-136803815D01*
X163340700Y-137100995D02*
X163510517Y-137100995D01*
X163595426Y-137058541D01*
X163637880Y-137016087D01*
X163722789Y-136888724D01*
X163765243Y-136718907D01*
X163765243Y-136379272D01*
X163722789Y-136294364D01*
X163680334Y-136251910D01*
X163595426Y-136209455D01*
X163425609Y-136209455D01*
X163340700Y-136251910D01*
X163298246Y-136294364D01*
X163255791Y-136379272D01*
X163255791Y-136591544D01*
X163298246Y-136676452D01*
X163340700Y-136718907D01*
X163425609Y-136761361D01*
X163595426Y-136761361D01*
X163680334Y-136718907D01*
X163722789Y-136676452D01*
X163765243Y-136591544D01*
D12*
D10*
X152544249Y-136506635D02*
X152544249Y-137100995D01*
X152331977Y-136167001D02*
X152119706Y-136803815D01*
X152671611Y-136803815D01*
X153053700Y-137100995D02*
X153223517Y-137100995D01*
X153308426Y-137058541D01*
X153350880Y-137016087D01*
X153435789Y-136888724D01*
X153478243Y-136718907D01*
X153478243Y-136379272D01*
X153435789Y-136294364D01*
X153393334Y-136251910D01*
X153308426Y-136209455D01*
X153138609Y-136209455D01*
X153053700Y-136251910D01*
X153011246Y-136294364D01*
X152968791Y-136379272D01*
X152968791Y-136591544D01*
X153011246Y-136676452D01*
X153053700Y-136718907D01*
X153138609Y-136761361D01*
X153308426Y-136761361D01*
X153393334Y-136718907D01*
X153435789Y-136676452D01*
X153478243Y-136591544D01*
D11*
D14*
X130667906Y-139297793D02*
X130128579Y-138527326D01*
X129743346Y-139297793D02*
X129743346Y-137679813D01*
X130359719Y-137679813D01*
X130513813Y-137756860D01*
X130590859Y-137833906D01*
X130667906Y-137988000D01*
X130667906Y-138219140D01*
X130590859Y-138373233D01*
X130513813Y-138450280D01*
X130359719Y-138527326D01*
X129743346Y-138527326D01*
X131361326Y-138450280D02*
X131900653Y-138450280D01*
X132131793Y-139297793D02*
X131361326Y-139297793D01*
X131361326Y-137679813D01*
X132131793Y-137679813D01*
X133595679Y-139297793D02*
X132825213Y-139297793D01*
X132825213Y-137679813D01*
X134057959Y-138835513D02*
X134828426Y-138835513D01*
X133903866Y-139297793D02*
X134443193Y-137679813D01*
X134982519Y-139297793D01*
X135830033Y-138527326D02*
X135830033Y-139297793D01*
X135290706Y-137679813D02*
X135830033Y-138527326D01*
X136369359Y-137679813D01*
D10*
X182780245Y-106427792D02*
X182780245Y-106937243D01*
X182780245Y-106682518D02*
X181888705Y-106682518D01*
X182016068Y-106767426D01*
X182100977Y-106852335D01*
X182143431Y-106937243D01*
X181888705Y-105875886D02*
X181888705Y-105790978D01*
X181931160Y-105706069D01*
X181973614Y-105663615D01*
X182058522Y-105621161D01*
X182228340Y-105578706D01*
X182440611Y-105578706D01*
X182610428Y-105621161D01*
X182695337Y-105663615D01*
X182737791Y-105706069D01*
X182780245Y-105790978D01*
X182780245Y-105875886D01*
X182737791Y-105960795D01*
X182695337Y-106003249D01*
X182610428Y-106045703D01*
X182440611Y-106088158D01*
X182228340Y-106088158D01*
X182058522Y-106045703D01*
X181973614Y-106003249D01*
X181931160Y-105960795D01*
X181888705Y-105875886D01*
X182780245Y-105196618D02*
X181888705Y-105196618D01*
X182440611Y-105111709D02*
X182780245Y-104856983D01*
X182185885Y-104856983D02*
X182525520Y-105196618D01*
D14*
X75803906Y-139297793D02*
X75264579Y-138527326D01*
X74879346Y-139297793D02*
X74879346Y-137679813D01*
X75495719Y-137679813D01*
X75649813Y-137756860D01*
X75726859Y-137833906D01*
X75803906Y-137988000D01*
X75803906Y-138219140D01*
X75726859Y-138373233D01*
X75649813Y-138450280D01*
X75495719Y-138527326D01*
X74879346Y-138527326D01*
X76497326Y-138450280D02*
X77036653Y-138450280D01*
X77267793Y-139297793D02*
X76497326Y-139297793D01*
X76497326Y-137679813D01*
X77267793Y-137679813D01*
X78731679Y-139297793D02*
X77961213Y-139297793D01*
X77961213Y-137679813D01*
X79193959Y-138835513D02*
X79964426Y-138835513D01*
X79039866Y-139297793D02*
X79579193Y-137679813D01*
X80118519Y-139297793D01*
X80966033Y-138527326D02*
X80966033Y-139297793D01*
X80426706Y-137679813D02*
X80966033Y-138527326D01*
X81505359Y-137679813D01*
D13*
X164612297Y-101801166D02*
X164612297Y-102316278D01*
X164612297Y-102058722D02*
X163710851Y-102058722D01*
X163839629Y-102144574D01*
X163925481Y-102230426D01*
X163968407Y-102316278D01*
X163710851Y-101243128D02*
X163710851Y-101157276D01*
X163753777Y-101071424D01*
X163796703Y-101028498D01*
X163882555Y-100985572D01*
X164054259Y-100942646D01*
X164268889Y-100942646D01*
X164440593Y-100985572D01*
X164526445Y-101028498D01*
X164569371Y-101071424D01*
X164612297Y-101157276D01*
X164612297Y-101243128D01*
X164569371Y-101328980D01*
X164526445Y-101371906D01*
X164440593Y-101414832D01*
X164268889Y-101457758D01*
X164054259Y-101457758D01*
X163882555Y-101414832D01*
X163796703Y-101371906D01*
X163753777Y-101328980D01*
X163710851Y-101243128D01*
X164612297Y-100556312D02*
X163710851Y-100556312D01*
X164268889Y-100470460D02*
X164612297Y-100212904D01*
X164011333Y-100212904D02*
X164354741Y-100556312D01*
D10*
X178208245Y-130684792D02*
X178208245Y-131194243D01*
X178208245Y-130939518D02*
X177316705Y-130939518D01*
X177444068Y-131024426D01*
X177528977Y-131109335D01*
X177571431Y-131194243D01*
X177316705Y-130132886D02*
X177316705Y-130047978D01*
X177359160Y-129963069D01*
X177401614Y-129920615D01*
X177486522Y-129878161D01*
X177656340Y-129835706D01*
X177868611Y-129835706D01*
X178038428Y-129878161D01*
X178123337Y-129920615D01*
X178165791Y-129963069D01*
X178208245Y-130047978D01*
X178208245Y-130132886D01*
X178165791Y-130217795D01*
X178123337Y-130260249D01*
X178038428Y-130302703D01*
X177868611Y-130345158D01*
X177656340Y-130345158D01*
X177486522Y-130302703D01*
X177401614Y-130260249D01*
X177359160Y-130217795D01*
X177316705Y-130132886D01*
X178208245Y-129453618D02*
X177316705Y-129453618D01*
X177868611Y-129368709D02*
X178208245Y-129113983D01*
X177613885Y-129113983D02*
X177953520Y-129453618D01*
X163112499Y-72424975D02*
X163112499Y-73019335D01*
X162900228Y-72085341D02*
X162687956Y-72722155D01*
X163239862Y-72722155D01*
X163621951Y-73019335D02*
X163791768Y-73019335D01*
X163876676Y-72976881D01*
X163919131Y-72934427D01*
X164004039Y-72807064D01*
X164046493Y-72637247D01*
X164046493Y-72297612D01*
X164004039Y-72212704D01*
X163961585Y-72170250D01*
X163876676Y-72127795D01*
X163706859Y-72127795D01*
X163621951Y-72170250D01*
X163579496Y-72212704D01*
X163537042Y-72297612D01*
X163537042Y-72509884D01*
X163579496Y-72594792D01*
X163621951Y-72637247D01*
X163706859Y-72679701D01*
X163876676Y-72679701D01*
X163961585Y-72637247D01*
X164004039Y-72594792D01*
X164046493Y-72509884D01*
D11*
X100952371Y-68469366D02*
X101722838Y-69625066D01*
X101722838Y-68469366D02*
X100952371Y-69625066D01*
X102053038Y-68469366D02*
X102768471Y-68469366D01*
X102383238Y-68909633D01*
X102548338Y-68909633D01*
X102658405Y-68964666D01*
X102713438Y-69019700D01*
X102768471Y-69129766D01*
X102768471Y-69404933D01*
X102713438Y-69515000D01*
X102658405Y-69570033D01*
X102548338Y-69625066D01*
X102218138Y-69625066D01*
X102108071Y-69570033D01*
X102053038Y-69515000D01*
D12*
X108156507Y-66990421D02*
X107503364Y-66990421D01*
X107829935Y-66990421D02*
X107829935Y-65847421D01*
X107721078Y-66010707D01*
X107612221Y-66119564D01*
X107503364Y-66173992D01*
X97390535Y-65847421D02*
X98098107Y-65847421D01*
X97717107Y-66282850D01*
X97880392Y-66282850D01*
X97989250Y-66337278D01*
X98043678Y-66391707D01*
X98098107Y-66500564D01*
X98098107Y-66772707D01*
X98043678Y-66881564D01*
X97989250Y-66935992D01*
X97880392Y-66990421D01*
X97553821Y-66990421D01*
X97444964Y-66935992D01*
X97390535Y-66881564D01*
X102448764Y-65905478D02*
X102503192Y-65851050D01*
X102612050Y-65796621D01*
X102884192Y-65796621D01*
X102993050Y-65851050D01*
X103047478Y-65905478D01*
X103101907Y-66014335D01*
X103101907Y-66123192D01*
X103047478Y-66286478D01*
X102394335Y-66939621D01*
X103101907Y-66939621D01*
D11*
X197675561Y-145438666D02*
X197675561Y-144282966D01*
X197950728Y-144282966D01*
X198115828Y-144338000D01*
X198225895Y-144448066D01*
X198280928Y-144558133D01*
X198335961Y-144778266D01*
X198335961Y-144943366D01*
X198280928Y-145163500D01*
X198225895Y-145273566D01*
X198115828Y-145383633D01*
X197950728Y-145438666D01*
X197675561Y-145438666D01*
X198831261Y-145438666D02*
X198831261Y-144282966D01*
X199601728Y-144282966D02*
X199821861Y-144282966D01*
X199931928Y-144338000D01*
X200041995Y-144448066D01*
X200097028Y-144668200D01*
X200097028Y-145053433D01*
X200041995Y-145273566D01*
X199931928Y-145383633D01*
X199821861Y-145438666D01*
X199601728Y-145438666D01*
X199491661Y-145383633D01*
X199381595Y-145273566D01*
X199326561Y-145053433D01*
X199326561Y-144668200D01*
X199381595Y-144448066D01*
X199491661Y-144338000D01*
X199601728Y-144282966D01*
X200592328Y-145438666D02*
X200592328Y-144282966D01*
X200867495Y-144282966D01*
X201032595Y-144338000D01*
X201142661Y-144448066D01*
X201197695Y-144558133D01*
X201252728Y-144778266D01*
X201252728Y-144943366D01*
X201197695Y-145163500D01*
X201142661Y-145273566D01*
X201032595Y-145383633D01*
X200867495Y-145438666D01*
X200592328Y-145438666D01*
X201748028Y-144833300D02*
X202133261Y-144833300D01*
X202298361Y-145438666D02*
X201748028Y-145438666D01*
X201748028Y-144282966D01*
X202298361Y-144282966D01*
D13*
X167863497Y-131445683D02*
X167863497Y-131960795D01*
X167863497Y-131703239D02*
X166962051Y-131703239D01*
X167090829Y-131789091D01*
X167176681Y-131874943D01*
X167219607Y-131960795D01*
X166962051Y-130887645D02*
X166962051Y-130801793D01*
X167004977Y-130715941D01*
X167047903Y-130673015D01*
X167133755Y-130630089D01*
X167305459Y-130587163D01*
X167520089Y-130587163D01*
X167691793Y-130630089D01*
X167777645Y-130673015D01*
X167820571Y-130715941D01*
X167863497Y-130801793D01*
X167863497Y-130887645D01*
X167820571Y-130973497D01*
X167777645Y-131016423D01*
X167691793Y-131059349D01*
X167520089Y-131102275D01*
X167305459Y-131102275D01*
X167133755Y-131059349D01*
X167047903Y-131016423D01*
X167004977Y-130973497D01*
X166962051Y-130887645D01*
X167863497Y-130200829D02*
X166962051Y-130200829D01*
X167520089Y-130114977D02*
X167863497Y-129857421D01*
X167262533Y-129857421D02*
X167605941Y-130200829D01*
D11*
X179300561Y-147851666D02*
X179300561Y-146695966D01*
X179850895Y-147851666D02*
X179850895Y-146695966D01*
X180511295Y-147851666D01*
X180511295Y-146695966D01*
X181226728Y-147191266D02*
X181116661Y-147136233D01*
X181061628Y-147081200D01*
X181006595Y-146971133D01*
X181006595Y-146916100D01*
X181061628Y-146806033D01*
X181116661Y-146751000D01*
X181226728Y-146695966D01*
X181446861Y-146695966D01*
X181556928Y-146751000D01*
X181611961Y-146806033D01*
X181666995Y-146916100D01*
X181666995Y-146971133D01*
X181611961Y-147081200D01*
X181556928Y-147136233D01*
X181446861Y-147191266D01*
X181226728Y-147191266D01*
X181116661Y-147246300D01*
X181061628Y-147301333D01*
X181006595Y-147411400D01*
X181006595Y-147631533D01*
X181061628Y-147741600D01*
X181116661Y-147796633D01*
X181226728Y-147851666D01*
X181446861Y-147851666D01*
X181556928Y-147796633D01*
X181611961Y-147741600D01*
X181666995Y-147631533D01*
X181666995Y-147411400D01*
X181611961Y-147301333D01*
X181556928Y-147246300D01*
X181446861Y-147191266D01*
D13*
X172991414Y-136950283D02*
X172991414Y-137551247D01*
X172776784Y-136606875D02*
X172562154Y-137250765D01*
X173120192Y-137250765D01*
X173506526Y-137551247D02*
X173678230Y-137551247D01*
X173764082Y-137508321D01*
X173807008Y-137465395D01*
X173892860Y-137336617D01*
X173935786Y-137164913D01*
X173935786Y-136821505D01*
X173892860Y-136735653D01*
X173849934Y-136692727D01*
X173764082Y-136649801D01*
X173592378Y-136649801D01*
X173506526Y-136692727D01*
X173463600Y-136735653D01*
X173420674Y-136821505D01*
X173420674Y-137036135D01*
X173463600Y-137121987D01*
X173506526Y-137164913D01*
X173592378Y-137207839D01*
X173764082Y-137207839D01*
X173849934Y-137164913D01*
X173892860Y-137121987D01*
X173935786Y-137036135D01*
D12*
X115892792Y-103332421D02*
X115892792Y-104257707D01*
X115947221Y-104366564D01*
X116001650Y-104420992D01*
X116110507Y-104475421D01*
X116328221Y-104475421D01*
X116437078Y-104420992D01*
X116491507Y-104366564D01*
X116545935Y-104257707D01*
X116545935Y-103332421D01*
X117634507Y-104475421D02*
X117090221Y-104475421D01*
X117090221Y-103332421D01*
X118015507Y-104475421D02*
X118015507Y-103332421D01*
X118668650Y-104475421D01*
X118668650Y-103332421D01*
X119158507Y-103441278D02*
X119212935Y-103386850D01*
X119321792Y-103332421D01*
X119593935Y-103332421D01*
X119702792Y-103386850D01*
X119757221Y-103441278D01*
X119811650Y-103550135D01*
X119811650Y-103658992D01*
X119757221Y-103822278D01*
X119104078Y-104475421D01*
X119811650Y-104475421D01*
X120519221Y-103332421D02*
X120628078Y-103332421D01*
X120736935Y-103386850D01*
X120791364Y-103441278D01*
X120845792Y-103550135D01*
X120900221Y-103767850D01*
X120900221Y-104039992D01*
X120845792Y-104257707D01*
X120791364Y-104366564D01*
X120736935Y-104420992D01*
X120628078Y-104475421D01*
X120519221Y-104475421D01*
X120410364Y-104420992D01*
X120355935Y-104366564D01*
X120301507Y-104257707D01*
X120247078Y-104039992D01*
X120247078Y-103767850D01*
X120301507Y-103550135D01*
X120355935Y-103441278D01*
X120410364Y-103386850D01*
X120519221Y-103332421D01*
X121607792Y-103332421D02*
X121716650Y-103332421D01*
X121825507Y-103386850D01*
X121879935Y-103441278D01*
X121934364Y-103550135D01*
X121988792Y-103767850D01*
X121988792Y-104039992D01*
X121934364Y-104257707D01*
X121879935Y-104366564D01*
X121825507Y-104420992D01*
X121716650Y-104475421D01*
X121607792Y-104475421D01*
X121498935Y-104420992D01*
X121444507Y-104366564D01*
X121390078Y-104257707D01*
X121335650Y-104039992D01*
X121335650Y-103767850D01*
X121390078Y-103550135D01*
X121444507Y-103441278D01*
X121498935Y-103386850D01*
X121607792Y-103332421D01*
X122369792Y-103332421D02*
X123077364Y-103332421D01*
X122696364Y-103767850D01*
X122859650Y-103767850D01*
X122968507Y-103822278D01*
X123022935Y-103876707D01*
X123077364Y-103985564D01*
X123077364Y-104257707D01*
X123022935Y-104366564D01*
X122968507Y-104420992D01*
X122859650Y-104475421D01*
X122533078Y-104475421D01*
X122424221Y-104420992D01*
X122369792Y-104366564D01*
X123512792Y-104148850D02*
X124057078Y-104148850D01*
X123403935Y-104475421D02*
X123784935Y-103332421D01*
X124165935Y-104475421D01*
X124546935Y-104475421D02*
X124546935Y-103332421D01*
X125200078Y-104475421D01*
X125200078Y-103332421D01*
D10*
X183212045Y-79427592D02*
X183212045Y-79937043D01*
X183212045Y-79682318D02*
X182320505Y-79682318D01*
X182447868Y-79767226D01*
X182532777Y-79852135D01*
X182575231Y-79937043D01*
X182320505Y-78875686D02*
X182320505Y-78790778D01*
X182362960Y-78705869D01*
X182405414Y-78663415D01*
X182490322Y-78620961D01*
X182660140Y-78578506D01*
X182872411Y-78578506D01*
X183042228Y-78620961D01*
X183127137Y-78663415D01*
X183169591Y-78705869D01*
X183212045Y-78790778D01*
X183212045Y-78875686D01*
X183169591Y-78960595D01*
X183127137Y-79003049D01*
X183042228Y-79045503D01*
X182872411Y-79087958D01*
X182660140Y-79087958D01*
X182490322Y-79045503D01*
X182405414Y-79003049D01*
X182362960Y-78960595D01*
X182320505Y-78875686D01*
X183212045Y-78196418D02*
X182320505Y-78196418D01*
X182872411Y-78111509D02*
X183212045Y-77856783D01*
X182617685Y-77856783D02*
X182957320Y-78196418D01*
D11*
X197107871Y-92479666D02*
X197107871Y-91323966D01*
X197493105Y-92149466D01*
X197878338Y-91323966D01*
X197878338Y-92479666D01*
X198373638Y-92149466D02*
X198923971Y-92149466D01*
X198263571Y-92479666D02*
X198648805Y-91323966D01*
X199034038Y-92479666D01*
X199309205Y-91323966D02*
X200079671Y-92479666D01*
X200079671Y-91323966D02*
X199309205Y-92479666D01*
X200464905Y-91434033D02*
X200519938Y-91379000D01*
X200630005Y-91323966D01*
X200905171Y-91323966D01*
X201015238Y-91379000D01*
X201070271Y-91434033D01*
X201125305Y-91544100D01*
X201125305Y-91654166D01*
X201070271Y-91819266D01*
X200409871Y-92479666D01*
X201125305Y-92479666D01*
X201840738Y-91323966D02*
X201950805Y-91323966D01*
X202060871Y-91379000D01*
X202115905Y-91434033D01*
X202170938Y-91544100D01*
X202225971Y-91764233D01*
X202225971Y-92039400D01*
X202170938Y-92259533D01*
X202115905Y-92369600D01*
X202060871Y-92424633D01*
X201950805Y-92479666D01*
X201840738Y-92479666D01*
X201730671Y-92424633D01*
X201675638Y-92369600D01*
X201620605Y-92259533D01*
X201565571Y-92039400D01*
X201565571Y-91764233D01*
X201620605Y-91544100D01*
X201675638Y-91434033D01*
X201730671Y-91379000D01*
X201840738Y-91323966D01*
X202666238Y-91434033D02*
X202721271Y-91379000D01*
X202831338Y-91323966D01*
X203106505Y-91323966D01*
X203216571Y-91379000D01*
X203271605Y-91434033D01*
X203326638Y-91544100D01*
X203326638Y-91654166D01*
X203271605Y-91819266D01*
X202611205Y-92479666D01*
X203326638Y-92479666D01*
X204482338Y-92369600D02*
X204427305Y-92424633D01*
X204262205Y-92479666D01*
X204152138Y-92479666D01*
X203987038Y-92424633D01*
X203876971Y-92314566D01*
X203821938Y-92204500D01*
X203766905Y-91984366D01*
X203766905Y-91819266D01*
X203821938Y-91599133D01*
X203876971Y-91489066D01*
X203987038Y-91379000D01*
X204152138Y-91323966D01*
X204262205Y-91323966D01*
X204427305Y-91379000D01*
X204482338Y-91434033D01*
X204977638Y-92479666D02*
X204977638Y-91323966D01*
X205417905Y-91323966D01*
X205527971Y-91379000D01*
X205583005Y-91434033D01*
X205638038Y-91544100D01*
X205638038Y-91709200D01*
X205583005Y-91819266D01*
X205527971Y-91874300D01*
X205417905Y-91929333D01*
X204977638Y-91929333D01*
X206133338Y-91874300D02*
X206518571Y-91874300D01*
X206683671Y-92479666D02*
X206133338Y-92479666D01*
X206133338Y-91323966D01*
X206683671Y-91323966D01*
X194045271Y-63142666D02*
X194045271Y-61986966D01*
X194540571Y-62097033D02*
X194595605Y-62042000D01*
X194705671Y-61986966D01*
X194980838Y-61986966D01*
X195090905Y-62042000D01*
X195145938Y-62097033D01*
X195200971Y-62207100D01*
X195200971Y-62317166D01*
X195145938Y-62482266D01*
X194485538Y-63142666D01*
X195200971Y-63142666D01*
X196356671Y-63032600D02*
X196301638Y-63087633D01*
X196136538Y-63142666D01*
X196026471Y-63142666D01*
X195861371Y-63087633D01*
X195751305Y-62977566D01*
X195696271Y-62867500D01*
X195641238Y-62647366D01*
X195641238Y-62482266D01*
X195696271Y-62262133D01*
X195751305Y-62152066D01*
X195861371Y-62042000D01*
X196026471Y-61986966D01*
X196136538Y-61986966D01*
X196301638Y-62042000D01*
X196356671Y-62097033D01*
D13*
X181775673Y-74771083D02*
X181775673Y-75372047D01*
X181561043Y-74427675D02*
X181346413Y-75071565D01*
X181904451Y-75071565D01*
X182290785Y-75372047D02*
X182462489Y-75372047D01*
X182548341Y-75329121D01*
X182591267Y-75286195D01*
X182677119Y-75157417D01*
X182720045Y-74985713D01*
X182720045Y-74642305D01*
X182677119Y-74556453D01*
X182634193Y-74513527D01*
X182548341Y-74470601D01*
X182376637Y-74470601D01*
X182290785Y-74513527D01*
X182247859Y-74556453D01*
X182204933Y-74642305D01*
X182204933Y-74856935D01*
X182247859Y-74942787D01*
X182290785Y-74985713D01*
X182376637Y-75028639D01*
X182548341Y-75028639D01*
X182634193Y-74985713D01*
X182677119Y-74942787D01*
X182720045Y-74856935D01*
D11*
X82664371Y-68469366D02*
X83434838Y-69625066D01*
X83434838Y-68469366D02*
X82664371Y-69625066D01*
X84370405Y-68854600D02*
X84370405Y-69625066D01*
X84095238Y-68414333D02*
X83820071Y-69239833D01*
X84535505Y-69239833D01*
D12*
X79102535Y-65847421D02*
X79810107Y-65847421D01*
X79429107Y-66282850D01*
X79592392Y-66282850D01*
X79701250Y-66337278D01*
X79755678Y-66391707D01*
X79810107Y-66500564D01*
X79810107Y-66772707D01*
X79755678Y-66881564D01*
X79701250Y-66935992D01*
X79592392Y-66990421D01*
X79265821Y-66990421D01*
X79156964Y-66935992D01*
X79102535Y-66881564D01*
X84160764Y-65905478D02*
X84215192Y-65851050D01*
X84324050Y-65796621D01*
X84596192Y-65796621D01*
X84705050Y-65851050D01*
X84759478Y-65905478D01*
X84813907Y-66014335D01*
X84813907Y-66123192D01*
X84759478Y-66286478D01*
X84106335Y-66939621D01*
X84813907Y-66939621D01*
X89868507Y-66990421D02*
X89215364Y-66990421D01*
X89541935Y-66990421D02*
X89541935Y-65847421D01*
X89433078Y-66010707D01*
X89324221Y-66119564D01*
X89215364Y-66173992D01*
D14*
X138534540Y-72114793D02*
X137995213Y-71344326D01*
X137609980Y-72114793D02*
X137609980Y-70496813D01*
X138226353Y-70496813D01*
X138380447Y-70573860D01*
X138457493Y-70650906D01*
X138534540Y-70805000D01*
X138534540Y-71036140D01*
X138457493Y-71190233D01*
X138380447Y-71267280D01*
X138226353Y-71344326D01*
X137609980Y-71344326D01*
X139227960Y-71267280D02*
X139767287Y-71267280D01*
X139998427Y-72114793D02*
X139227960Y-72114793D01*
X139227960Y-70496813D01*
X139998427Y-70496813D01*
X141462313Y-72114793D02*
X140691847Y-72114793D01*
X140691847Y-70496813D01*
X141924593Y-71652513D02*
X142695060Y-71652513D01*
X141770500Y-72114793D02*
X142309827Y-70496813D01*
X142849153Y-72114793D01*
X143696667Y-71344326D02*
X143696667Y-72114793D01*
X143157340Y-70496813D02*
X143696667Y-71344326D01*
X144235993Y-70496813D01*
X101958540Y-72114793D02*
X101419213Y-71344326D01*
X101033980Y-72114793D02*
X101033980Y-70496813D01*
X101650353Y-70496813D01*
X101804447Y-70573860D01*
X101881493Y-70650906D01*
X101958540Y-70805000D01*
X101958540Y-71036140D01*
X101881493Y-71190233D01*
X101804447Y-71267280D01*
X101650353Y-71344326D01*
X101033980Y-71344326D01*
X102651960Y-71267280D02*
X103191287Y-71267280D01*
X103422427Y-72114793D02*
X102651960Y-72114793D01*
X102651960Y-70496813D01*
X103422427Y-70496813D01*
X104886313Y-72114793D02*
X104115847Y-72114793D01*
X104115847Y-70496813D01*
X105348593Y-71652513D02*
X106119060Y-71652513D01*
X105194500Y-72114793D02*
X105733827Y-70496813D01*
X106273153Y-72114793D01*
X107120667Y-71344326D02*
X107120667Y-72114793D01*
X106581340Y-70496813D02*
X107120667Y-71344326D01*
X107659993Y-70496813D01*
D10*
X152698499Y-72424975D02*
X152698499Y-73019335D01*
X152486228Y-72085341D02*
X152273956Y-72722155D01*
X152825862Y-72722155D01*
X153207951Y-73019335D02*
X153377768Y-73019335D01*
X153462676Y-72976881D01*
X153505131Y-72934427D01*
X153590039Y-72807064D01*
X153632493Y-72637247D01*
X153632493Y-72297612D01*
X153590039Y-72212704D01*
X153547585Y-72170250D01*
X153462676Y-72127795D01*
X153292859Y-72127795D01*
X153207951Y-72170250D01*
X153165496Y-72212704D01*
X153123042Y-72297612D01*
X153123042Y-72509884D01*
X153165496Y-72594792D01*
X153207951Y-72637247D01*
X153292859Y-72679701D01*
X153462676Y-72679701D01*
X153547585Y-72637247D01*
X153590039Y-72594792D01*
X153632493Y-72509884D01*
X192940245Y-106427792D02*
X192940245Y-106937243D01*
X192940245Y-106682518D02*
X192048705Y-106682518D01*
X192176068Y-106767426D01*
X192260977Y-106852335D01*
X192303431Y-106937243D01*
X192048705Y-105875886D02*
X192048705Y-105790978D01*
X192091160Y-105706069D01*
X192133614Y-105663615D01*
X192218522Y-105621161D01*
X192388340Y-105578706D01*
X192600611Y-105578706D01*
X192770428Y-105621161D01*
X192855337Y-105663615D01*
X192897791Y-105706069D01*
X192940245Y-105790978D01*
X192940245Y-105875886D01*
X192897791Y-105960795D01*
X192855337Y-106003249D01*
X192770428Y-106045703D01*
X192600611Y-106088158D01*
X192388340Y-106088158D01*
X192218522Y-106045703D01*
X192133614Y-106003249D01*
X192091160Y-105960795D01*
X192048705Y-105875886D01*
X192940245Y-105196618D02*
X192048705Y-105196618D01*
X192600611Y-105111709D02*
X192940245Y-104856983D01*
X192345885Y-104856983D02*
X192685520Y-105196618D01*
D11*
D12*
X202546535Y-65847421D02*
X203254107Y-65847421D01*
X202873107Y-66282850D01*
X203036392Y-66282850D01*
X203145250Y-66337278D01*
X203199678Y-66391707D01*
X203254107Y-66500564D01*
X203254107Y-66772707D01*
X203199678Y-66881564D01*
X203145250Y-66935992D01*
X203036392Y-66990421D01*
X202709821Y-66990421D01*
X202600964Y-66935992D01*
X202546535Y-66881564D01*
X213312507Y-66990421D02*
X212659364Y-66990421D01*
X212985935Y-66990421D02*
X212985935Y-65847421D01*
X212877078Y-66010707D01*
X212768221Y-66119564D01*
X212659364Y-66173992D01*
X207604764Y-65905478D02*
X207659192Y-65851050D01*
X207768050Y-65796621D01*
X208040192Y-65796621D01*
X208149050Y-65851050D01*
X208203478Y-65905478D01*
X208257907Y-66014335D01*
X208257907Y-66123192D01*
X208203478Y-66286478D01*
X207550335Y-66939621D01*
X208257907Y-66939621D01*
X198823792Y-79837421D02*
X198823792Y-78694421D01*
X199204792Y-79510850D01*
X199585792Y-78694421D01*
X199585792Y-79837421D01*
X200075650Y-79510850D02*
X200619935Y-79510850D01*
X199966792Y-79837421D02*
X200347792Y-78694421D01*
X200728792Y-79837421D01*
X201000935Y-78694421D02*
X201762935Y-79837421D01*
X201762935Y-78694421D02*
X201000935Y-79837421D01*
X202688221Y-79075421D02*
X202688221Y-79837421D01*
X202416078Y-78639992D02*
X202143935Y-79456421D01*
X202851507Y-79456421D01*
X203450221Y-79184278D02*
X203341364Y-79129850D01*
X203286935Y-79075421D01*
X203232507Y-78966564D01*
X203232507Y-78912135D01*
X203286935Y-78803278D01*
X203341364Y-78748850D01*
X203450221Y-78694421D01*
X203667935Y-78694421D01*
X203776792Y-78748850D01*
X203831221Y-78803278D01*
X203885650Y-78912135D01*
X203885650Y-78966564D01*
X203831221Y-79075421D01*
X203776792Y-79129850D01*
X203667935Y-79184278D01*
X203450221Y-79184278D01*
X203341364Y-79238707D01*
X203286935Y-79293135D01*
X203232507Y-79401992D01*
X203232507Y-79619707D01*
X203286935Y-79728564D01*
X203341364Y-79782992D01*
X203450221Y-79837421D01*
X203667935Y-79837421D01*
X203776792Y-79782992D01*
X203831221Y-79728564D01*
X203885650Y-79619707D01*
X203885650Y-79401992D01*
X203831221Y-79293135D01*
X203776792Y-79238707D01*
X203667935Y-79184278D01*
X204974221Y-79837421D02*
X204321078Y-79837421D01*
X204647650Y-79837421D02*
X204647650Y-78694421D01*
X204538792Y-78857707D01*
X204429935Y-78966564D01*
X204321078Y-79020992D01*
X206117221Y-79728564D02*
X206062792Y-79782992D01*
X205899507Y-79837421D01*
X205790650Y-79837421D01*
X205627364Y-79782992D01*
X205518507Y-79674135D01*
X205464078Y-79565278D01*
X205409650Y-79347564D01*
X205409650Y-79184278D01*
X205464078Y-78966564D01*
X205518507Y-78857707D01*
X205627364Y-78748850D01*
X205790650Y-78694421D01*
X205899507Y-78694421D01*
X206062792Y-78748850D01*
X206117221Y-78803278D01*
X206607078Y-79837421D02*
X206607078Y-78694421D01*
X207042507Y-78694421D01*
X207151364Y-78748850D01*
X207205792Y-78803278D01*
X207260221Y-78912135D01*
X207260221Y-79075421D01*
X207205792Y-79184278D01*
X207151364Y-79238707D01*
X207042507Y-79293135D01*
X206607078Y-79293135D01*
X207695650Y-79510850D02*
X208239935Y-79510850D01*
X207586792Y-79837421D02*
X207967792Y-78694421D01*
X208348792Y-79837421D01*
D10*
X198020245Y-106427792D02*
X198020245Y-106937243D01*
X198020245Y-106682518D02*
X197128705Y-106682518D01*
X197256068Y-106767426D01*
X197340977Y-106852335D01*
X197383431Y-106937243D01*
X197128705Y-105875886D02*
X197128705Y-105790978D01*
X197171160Y-105706069D01*
X197213614Y-105663615D01*
X197298522Y-105621161D01*
X197468340Y-105578706D01*
X197680611Y-105578706D01*
X197850428Y-105621161D01*
X197935337Y-105663615D01*
X197977791Y-105706069D01*
X198020245Y-105790978D01*
X198020245Y-105875886D01*
X197977791Y-105960795D01*
X197935337Y-106003249D01*
X197850428Y-106045703D01*
X197680611Y-106088158D01*
X197468340Y-106088158D01*
X197298522Y-106045703D01*
X197213614Y-106003249D01*
X197171160Y-105960795D01*
X197128705Y-105875886D01*
X198020245Y-105196618D02*
X197128705Y-105196618D01*
X197680611Y-105111709D02*
X198020245Y-104856983D01*
X197425885Y-104856983D02*
X197765520Y-105196618D01*
X159844045Y-99112592D02*
X159844045Y-99622043D01*
X159844045Y-99367318D02*
X158952505Y-99367318D01*
X159079868Y-99452226D01*
X159164777Y-99537135D01*
X159207231Y-99622043D01*
X158952505Y-98560686D02*
X158952505Y-98475778D01*
X158994960Y-98390869D01*
X159037414Y-98348415D01*
X159122322Y-98305961D01*
X159292140Y-98263506D01*
X159504411Y-98263506D01*
X159674228Y-98305961D01*
X159759137Y-98348415D01*
X159801591Y-98390869D01*
X159844045Y-98475778D01*
X159844045Y-98560686D01*
X159801591Y-98645595D01*
X159759137Y-98688049D01*
X159674228Y-98730503D01*
X159504411Y-98772958D01*
X159292140Y-98772958D01*
X159122322Y-98730503D01*
X159037414Y-98688049D01*
X158994960Y-98645595D01*
X158952505Y-98560686D01*
X159844045Y-97881418D02*
X158952505Y-97881418D01*
X159504411Y-97796509D02*
X159844045Y-97541783D01*
X159249685Y-97541783D02*
X159589320Y-97881418D01*
D15*
X155797100Y-97671850D02*
X155797100Y-98560850D01*
X155797100Y-105291850D02*
X155797100Y-104402850D01*
D16*
X223234100Y-84463850D02*
G75*
G03*
X223234100Y-84463850I-762000J0D01*
G01*
G36*
X222802300Y-84794050D02*
G01*
X222141900Y-84794050D01*
X222141900Y-84133650D01*
X222802300Y-84133650D01*
X222802300Y-84794050D01*
G37*
X223234100Y-125103850D02*
G75*
G03*
X223234100Y-125103850I-762000J0D01*
G01*
G36*
X222802300Y-125434050D02*
G01*
X222141900Y-125434050D01*
X222141900Y-124773650D01*
X222802300Y-124773650D01*
X222802300Y-125434050D01*
G37*
D17*
X84296100Y-97163850D02*
G75*
G03*
X86455100Y-99322850I2158998J-2D01*
G01*
X88614100Y-97163850D02*
G75*
G03*
X86455100Y-95004850I-2158998J2D01*
G01*
D18*
X87217100Y-97163850D02*
G75*
G03*
X87217100Y-97163850I-762000J0D01*
G01*
D16*
X204057100Y-85352850D02*
G75*
G03*
X204057100Y-85352850I-762000J0D01*
G01*
G36*
X203625300Y-85683050D02*
G01*
X202964900Y-85683050D01*
X202964900Y-85022650D01*
X203625300Y-85022650D01*
X203625300Y-85683050D01*
G37*
X223234100Y-79383850D02*
G75*
G03*
X223234100Y-79383850I-762000J0D01*
G01*
G36*
X222802300Y-79714050D02*
G01*
X222141900Y-79714050D01*
X222141900Y-79053650D01*
X222802300Y-79053650D01*
X222802300Y-79714050D01*
G37*
X223234100Y-81923850D02*
G75*
G03*
X223234100Y-81923850I-762000J0D01*
G01*
G36*
X222802300Y-82254050D02*
G01*
X222141900Y-82254050D01*
X222141900Y-81593650D01*
X222802300Y-81593650D01*
X222802300Y-82254050D01*
G37*
X217392100Y-84463850D02*
G75*
G03*
X217392100Y-84463850I-762000J0D01*
G01*
G36*
X216960300Y-84794050D02*
G01*
X216299900Y-84794050D01*
X216299900Y-84133650D01*
X216960300Y-84133650D01*
X216960300Y-84794050D01*
G37*
X169132100Y-117483850D02*
G75*
G03*
X169132100Y-117483850I-762000J0D01*
G01*
G36*
X168700300Y-117814050D02*
G01*
X168039900Y-117814050D01*
X168039900Y-117153650D01*
X168700300Y-117153650D01*
X168700300Y-117814050D01*
G37*
D15*
X150717100Y-97925850D02*
X150717100Y-98814850D01*
X150717100Y-105545850D02*
X150717100Y-104656850D01*
D16*
X217392100Y-92083850D02*
G75*
G03*
X217392100Y-92083850I-762000J0D01*
G01*
G36*
X216960300Y-92414050D02*
G01*
X216299900Y-92414050D01*
X216299900Y-91753650D01*
X216960300Y-91753650D01*
X216960300Y-92414050D01*
G37*
X84677100Y-104656850D02*
G75*
G03*
X84677100Y-104656850I-762000J0D01*
G01*
G36*
X84245300Y-104987050D02*
G01*
X83584900Y-104987050D01*
X83584900Y-104326650D01*
X84245300Y-104326650D01*
X84245300Y-104987050D01*
G37*
X169132100Y-92083850D02*
G75*
G03*
X169132100Y-92083850I-762000J0D01*
G01*
G36*
X168700300Y-92414050D02*
G01*
X168039900Y-92414050D01*
X168039900Y-91753650D01*
X168700300Y-91753650D01*
X168700300Y-92414050D01*
G37*
X223234100Y-97163850D02*
G75*
G03*
X223234100Y-97163850I-762000J0D01*
G01*
G36*
X222802300Y-97494050D02*
G01*
X222141900Y-97494050D01*
X222141900Y-96833650D01*
X222802300Y-96833650D01*
X222802300Y-97494050D01*
G37*
X175228100Y-81923850D02*
G75*
G03*
X175228100Y-81923850I-762000J0D01*
G01*
G36*
X174796300Y-82254050D02*
G01*
X174135900Y-82254050D01*
X174135900Y-81593650D01*
X174796300Y-81593650D01*
X174796300Y-82254050D01*
G37*
D19*
X155732100Y-65413850D02*
X153725100Y-67420850D01*
X150753100Y-65438850D02*
X148772100Y-67445850D01*
D16*
X156239700Y-66429850D02*
G75*
G03*
X156239700Y-66429850I-1498600J0D01*
G01*
X151235900Y-66429850D02*
G75*
G03*
X151235900Y-66429850I-1498600J0D01*
G01*
X175228100Y-92083850D02*
G75*
G03*
X175228100Y-92083850I-762000J0D01*
G01*
G36*
X174796300Y-92414050D02*
G01*
X174135900Y-92414050D01*
X174135900Y-91753650D01*
X174796300Y-91753650D01*
X174796300Y-92414050D01*
G37*
X175228100Y-84463850D02*
G75*
G03*
X175228100Y-84463850I-762000J0D01*
G01*
G36*
X174796300Y-84794050D02*
G01*
X174135900Y-84794050D01*
X174135900Y-84133650D01*
X174796300Y-84133650D01*
X174796300Y-84794050D01*
G37*
X167989100Y-122563850D02*
G75*
G03*
X167989100Y-122563850I-762000J0D01*
G01*
G36*
X167557300Y-122894050D02*
G01*
X166896900Y-122894050D01*
X166896900Y-122233650D01*
X167557300Y-122233650D01*
X167557300Y-122894050D01*
G37*
X217392100Y-127643850D02*
G75*
G03*
X217392100Y-127643850I-762000J0D01*
G01*
G36*
X216960300Y-127974050D02*
G01*
X216299900Y-127974050D01*
X216299900Y-127313650D01*
X216960300Y-127313650D01*
X216960300Y-127974050D01*
G37*
X217392100Y-89543850D02*
G75*
G03*
X217392100Y-89543850I-762000J0D01*
G01*
G36*
X216960300Y-89874050D02*
G01*
X216299900Y-89874050D01*
X216299900Y-89213650D01*
X216960300Y-89213650D01*
X216960300Y-89874050D01*
G37*
D17*
X206089100Y-105164850D02*
G75*
G03*
X208248100Y-107323850I2158998J-2D01*
G01*
X210407100Y-105164850D02*
G75*
G03*
X208248100Y-103005850I-2158998J2D01*
G01*
D18*
X209010100Y-105164850D02*
G75*
G03*
X209010100Y-105164850I-762000J0D01*
G01*
D16*
X217392100Y-97163850D02*
G75*
G03*
X217392100Y-97163850I-762000J0D01*
G01*
G36*
X216960300Y-97494050D02*
G01*
X216299900Y-97494050D01*
X216299900Y-96833650D01*
X216960300Y-96833650D01*
X216960300Y-97494050D01*
G37*
D19*
X165892100Y-65413850D02*
X163885100Y-67420850D01*
X160913100Y-65438850D02*
X158932100Y-67445850D01*
D16*
X161395900Y-66429850D02*
G75*
G03*
X161395900Y-66429850I-1498600J0D01*
G01*
X166399700Y-66429850D02*
G75*
G03*
X166399700Y-66429850I-1498600J0D01*
G01*
X223234100Y-127643850D02*
G75*
G03*
X223234100Y-127643850I-762000J0D01*
G01*
G36*
X222802300Y-127974050D02*
G01*
X222141900Y-127974050D01*
X222141900Y-127313650D01*
X222802300Y-127313650D01*
X222802300Y-127974050D01*
G37*
D19*
X86103100Y-144503850D02*
X87907100Y-142547850D01*
X81099100Y-144579850D02*
X83004100Y-142547850D01*
X76019100Y-144554850D02*
X78026100Y-142547850D01*
D16*
X88516300Y-143538850D02*
G75*
G03*
X88516300Y-143538850I-1498600J0D01*
G01*
X83512500Y-143538850D02*
G75*
G03*
X83512500Y-143538850I-1498600J0D01*
G01*
X78508700Y-143538850D02*
G75*
G03*
X78508700Y-143538850I-1498600J0D01*
G01*
D19*
X176052100Y-65413850D02*
X174045100Y-67420850D01*
X171073100Y-65438850D02*
X169092100Y-67445850D01*
D16*
X171555900Y-66429850D02*
G75*
G03*
X171555900Y-66429850I-1498600J0D01*
G01*
X176559700Y-66429850D02*
G75*
G03*
X176559700Y-66429850I-1498600J0D01*
G01*
D15*
X183737100Y-72906850D02*
X182848100Y-72906850D01*
X176117100Y-72906850D02*
X177006100Y-72906850D01*
D17*
X213836100Y-76335850D02*
G75*
G03*
X211677100Y-74176850I-2158998J2D01*
G01*
X209518100Y-76335850D02*
G75*
G03*
X211677100Y-78494850I2158998J-2D01*
G01*
D18*
X212439100Y-76335850D02*
G75*
G03*
X212439100Y-76335850I-762000J0D01*
G01*
D16*
X175228100Y-120023850D02*
G75*
G03*
X175228100Y-120023850I-762000J0D01*
G01*
G36*
X174796300Y-120354050D02*
G01*
X174135900Y-120354050D01*
X174135900Y-119693650D01*
X174796300Y-119693650D01*
X174796300Y-120354050D01*
G37*
X217392100Y-79383850D02*
G75*
G03*
X217392100Y-79383850I-762000J0D01*
G01*
G36*
X216960300Y-79714050D02*
G01*
X216299900Y-79714050D01*
X216299900Y-79053650D01*
X216960300Y-79053650D01*
X216960300Y-79714050D01*
G37*
D15*
X187801100Y-126627850D02*
X187801100Y-127516850D01*
X187801100Y-134247850D02*
X187801100Y-133358850D01*
D16*
X167989100Y-114943850D02*
G75*
G03*
X167989100Y-114943850I-762000J0D01*
G01*
G36*
X167557300Y-115274050D02*
G01*
X166896900Y-115274050D01*
X166896900Y-114613650D01*
X167557300Y-114613650D01*
X167557300Y-115274050D01*
G37*
D19*
X181233100Y-65438850D02*
X179252100Y-67445850D01*
X186212100Y-65413850D02*
X184205100Y-67420850D01*
D16*
X186719700Y-66429850D02*
G75*
G03*
X186719700Y-66429850I-1498600J0D01*
G01*
X181715900Y-66429850D02*
G75*
G03*
X181715900Y-66429850I-1498600J0D01*
G01*
X175228100Y-104783850D02*
G75*
G03*
X175228100Y-104783850I-762000J0D01*
G01*
G36*
X174796300Y-105114050D02*
G01*
X174135900Y-105114050D01*
X174135900Y-104453650D01*
X174796300Y-104453650D01*
X174796300Y-105114050D01*
G37*
D15*
X177387100Y-85606850D02*
X177387100Y-84717850D01*
X177387100Y-77986850D02*
X177387100Y-78875850D01*
D16*
X175228100Y-114943850D02*
G75*
G03*
X175228100Y-114943850I-762000J0D01*
G01*
G36*
X174796300Y-115274050D02*
G01*
X174135900Y-115274050D01*
X174135900Y-114613650D01*
X174796300Y-114613650D01*
X174796300Y-115274050D01*
G37*
X223234100Y-94623850D02*
G75*
G03*
X223234100Y-94623850I-762000J0D01*
G01*
G36*
X222802300Y-94954050D02*
G01*
X222141900Y-94954050D01*
X222141900Y-94293650D01*
X222802300Y-94293650D01*
X222802300Y-94954050D01*
G37*
D19*
X169070100Y-144534850D02*
X171077100Y-142527850D01*
X174049100Y-144509850D02*
X176030100Y-142502850D01*
D16*
X176563500Y-143518850D02*
G75*
G03*
X176563500Y-143518850I-1498600J0D01*
G01*
X171559700Y-143518850D02*
G75*
G03*
X171559700Y-143518850I-1498600J0D01*
G01*
X217392100Y-102243850D02*
G75*
G03*
X217392100Y-102243850I-762000J0D01*
G01*
G36*
X216960300Y-102574050D02*
G01*
X216299900Y-102574050D01*
X216299900Y-101913650D01*
X216960300Y-101913650D01*
X216960300Y-102574050D01*
G37*
X217392100Y-81923850D02*
G75*
G03*
X217392100Y-81923850I-762000J0D01*
G01*
G36*
X216960300Y-82254050D02*
G01*
X216299900Y-82254050D01*
X216299900Y-81593650D01*
X216960300Y-81593650D01*
X216960300Y-82254050D01*
G37*
D19*
X119497100Y-65368850D02*
X117592100Y-67400850D01*
X114493100Y-65444850D02*
X112689100Y-67400850D01*
X124577100Y-65393850D02*
X122570100Y-67400850D01*
D16*
X120080900Y-66409850D02*
G75*
G03*
X120080900Y-66409850I-1498600J0D01*
G01*
X115077100Y-66409850D02*
G75*
G03*
X115077100Y-66409850I-1498600J0D01*
G01*
X125084700Y-66409850D02*
G75*
G03*
X125084700Y-66409850I-1498600J0D01*
G01*
X84677100Y-112403850D02*
G75*
G03*
X84677100Y-112403850I-762000J0D01*
G01*
G36*
X84245300Y-112734050D02*
G01*
X83584900Y-112734050D01*
X83584900Y-112073650D01*
X84245300Y-112073650D01*
X84245300Y-112734050D01*
G37*
D15*
X149701100Y-75065850D02*
X149701100Y-75954850D01*
X149701100Y-82685850D02*
X149701100Y-81796850D01*
D19*
X158910100Y-144534850D02*
X160917100Y-142527850D01*
X163889100Y-144509850D02*
X165870100Y-142502850D01*
D16*
X166403500Y-143518850D02*
G75*
G03*
X166403500Y-143518850I-1498600J0D01*
G01*
X161399700Y-143518850D02*
G75*
G03*
X161399700Y-143518850I-1498600J0D01*
G01*
X223234100Y-76843850D02*
G75*
G03*
X223234100Y-76843850I-762000J0D01*
G01*
G36*
X222802300Y-77174050D02*
G01*
X222141900Y-77174050D01*
X222141900Y-76513650D01*
X222802300Y-76513650D01*
X222802300Y-77174050D01*
G37*
D15*
X158845100Y-82685850D02*
X158845100Y-81796850D01*
X158845100Y-75065850D02*
X158845100Y-75954850D01*
D19*
X122933100Y-144503850D02*
X124737100Y-142547850D01*
X117929100Y-144579850D02*
X119834100Y-142547850D01*
X112849100Y-144554850D02*
X114856100Y-142547850D01*
D16*
X115338700Y-143538850D02*
G75*
G03*
X115338700Y-143538850I-1498600J0D01*
G01*
X120342500Y-143538850D02*
G75*
G03*
X120342500Y-143538850I-1498600J0D01*
G01*
X125346300Y-143538850D02*
G75*
G03*
X125346300Y-143538850I-1498600J0D01*
G01*
X167989100Y-104402850D02*
G75*
G03*
X167989100Y-104402850I-762000J0D01*
G01*
G36*
X167557300Y-104733050D02*
G01*
X166896900Y-104733050D01*
X166896900Y-104072650D01*
X167557300Y-104072650D01*
X167557300Y-104733050D01*
G37*
D15*
X180181100Y-136660850D02*
X181070100Y-136660850D01*
X187801100Y-136660850D02*
X186912100Y-136660850D01*
D16*
X84677100Y-102497850D02*
G75*
G03*
X84677100Y-102497850I-762000J0D01*
G01*
G36*
X84245300Y-102828050D02*
G01*
X83584900Y-102828050D01*
X83584900Y-102167650D01*
X84245300Y-102167650D01*
X84245300Y-102828050D01*
G37*
X169132100Y-84463850D02*
G75*
G03*
X169132100Y-84463850I-762000J0D01*
G01*
G36*
X168700300Y-84794050D02*
G01*
X168039900Y-84794050D01*
X168039900Y-84133650D01*
X168700300Y-84133650D01*
X168700300Y-84794050D01*
G37*
X223234100Y-107323850D02*
G75*
G03*
X223234100Y-107323850I-762000J0D01*
G01*
G36*
X222802300Y-107654050D02*
G01*
X222141900Y-107654050D01*
X222141900Y-106993650D01*
X222802300Y-106993650D01*
X222802300Y-107654050D01*
G37*
X223234100Y-87003850D02*
G75*
G03*
X223234100Y-87003850I-762000J0D01*
G01*
G36*
X222802300Y-87334050D02*
G01*
X222141900Y-87334050D01*
X222141900Y-86673650D01*
X222802300Y-86673650D01*
X222802300Y-87334050D01*
G37*
D17*
X151352100Y-130945850D02*
G75*
G03*
X149193100Y-128786850I-2158998J2D01*
G01*
X147034100Y-130945850D02*
G75*
G03*
X149193100Y-133104850I2158998J-2D01*
G01*
D18*
X149955100Y-130945850D02*
G75*
G03*
X149955100Y-130945850I-762000J0D01*
G01*
D19*
X141094100Y-144503850D02*
X142898100Y-142547850D01*
X136090100Y-144579850D02*
X137995100Y-142547850D01*
X131010100Y-144554850D02*
X133017100Y-142547850D01*
D16*
X133499700Y-143538850D02*
G75*
G03*
X133499700Y-143538850I-1498600J0D01*
G01*
X143507300Y-143538850D02*
G75*
G03*
X143507300Y-143538850I-1498600J0D01*
G01*
X138503500Y-143538850D02*
G75*
G03*
X138503500Y-143538850I-1498600J0D01*
G01*
X217392100Y-76843850D02*
G75*
G03*
X217392100Y-76843850I-762000J0D01*
G01*
G36*
X216960300Y-77174050D02*
G01*
X216299900Y-77174050D01*
X216299900Y-76513650D01*
X216960300Y-76513650D01*
X216960300Y-77174050D01*
G37*
X223234100Y-74303850D02*
G75*
G03*
X223234100Y-74303850I-762000J0D01*
G01*
G36*
X222802300Y-74634050D02*
G01*
X222141900Y-74634050D01*
X222141900Y-73973650D01*
X222802300Y-73973650D01*
X222802300Y-74634050D01*
G37*
X169132100Y-89543850D02*
G75*
G03*
X169132100Y-89543850I-762000J0D01*
G01*
G36*
X168700300Y-89874050D02*
G01*
X168039900Y-89874050D01*
X168039900Y-89213650D01*
X168700300Y-89213650D01*
X168700300Y-89874050D01*
G37*
D19*
X148750100Y-144534850D02*
X150757100Y-142527850D01*
X153729100Y-144509850D02*
X155710100Y-142502850D01*
D16*
X151239700Y-143518850D02*
G75*
G03*
X151239700Y-143518850I-1498600J0D01*
G01*
X156243500Y-143518850D02*
G75*
G03*
X156243500Y-143518850I-1498600J0D01*
G01*
D19*
X216594100Y-144509850D02*
X218575100Y-142502850D01*
X211615100Y-144534850D02*
X213622100Y-142527850D01*
D16*
X214104700Y-143518850D02*
G75*
G03*
X214104700Y-143518850I-1498600J0D01*
G01*
X219108500Y-143518850D02*
G75*
G03*
X219108500Y-143518850I-1498600J0D01*
G01*
X217392100Y-87003850D02*
G75*
G03*
X217392100Y-87003850I-762000J0D01*
G01*
G36*
X216960300Y-87334050D02*
G01*
X216299900Y-87334050D01*
X216299900Y-86673650D01*
X216960300Y-86673650D01*
X216960300Y-87334050D01*
G37*
X167989100Y-99703850D02*
G75*
G03*
X167989100Y-99703850I-762000J0D01*
G01*
G36*
X167557300Y-100034050D02*
G01*
X166896900Y-100034050D01*
X166896900Y-99373650D01*
X167557300Y-99373650D01*
X167557300Y-100034050D01*
G37*
D19*
X221518100Y-65413850D02*
X219511100Y-67420850D01*
X216539100Y-65438850D02*
X214558100Y-67445850D01*
D16*
X217021900Y-66429850D02*
G75*
G03*
X217021900Y-66429850I-1498600J0D01*
G01*
X222025700Y-66429850D02*
G75*
G03*
X222025700Y-66429850I-1498600J0D01*
G01*
X167735100Y-106307850D02*
G75*
G03*
X167735100Y-106307850I-762000J0D01*
G01*
G36*
X167303300Y-106638050D02*
G01*
X166642900Y-106638050D01*
X166642900Y-105977650D01*
X167303300Y-105977650D01*
X167303300Y-106638050D01*
G37*
X175228100Y-97163850D02*
G75*
G03*
X175228100Y-97163850I-762000J0D01*
G01*
G36*
X174796300Y-97494050D02*
G01*
X174135900Y-97494050D01*
X174135900Y-96833650D01*
X174796300Y-96833650D01*
X174796300Y-97494050D01*
G37*
D19*
X94307100Y-144554850D02*
X96314100Y-142547850D01*
X104391100Y-144503850D02*
X106195100Y-142547850D01*
X99387100Y-144579850D02*
X101292100Y-142547850D01*
D16*
X96796700Y-143538850D02*
G75*
G03*
X96796700Y-143538850I-1498600J0D01*
G01*
X106804300Y-143538850D02*
G75*
G03*
X106804300Y-143538850I-1498600J0D01*
G01*
X101800500Y-143538850D02*
G75*
G03*
X101800500Y-143538850I-1498600J0D01*
G01*
D19*
X142865100Y-65393850D02*
X140858100Y-67400850D01*
X132781100Y-65444850D02*
X130977100Y-67400850D01*
X137785100Y-65368850D02*
X135880100Y-67400850D01*
D16*
X133365100Y-66409850D02*
G75*
G03*
X133365100Y-66409850I-1498600J0D01*
G01*
X143372700Y-66409850D02*
G75*
G03*
X143372700Y-66409850I-1498600J0D01*
G01*
X138368900Y-66409850D02*
G75*
G03*
X138368900Y-66409850I-1498600J0D01*
G01*
D19*
X79572100Y-98342850D02*
X77565100Y-96361850D01*
X79597100Y-103321850D02*
X77590100Y-101314850D01*
D16*
X80079700Y-97327050D02*
G75*
G03*
X80079700Y-97327050I-1498600J0D01*
G01*
X80079700Y-102330850D02*
G75*
G03*
X80079700Y-102330850I-1498600J0D01*
G01*
X223234100Y-102243850D02*
G75*
G03*
X223234100Y-102243850I-762000J0D01*
G01*
G36*
X222802300Y-102574050D02*
G01*
X222141900Y-102574050D01*
X222141900Y-101913650D01*
X222802300Y-101913650D01*
X222802300Y-102574050D01*
G37*
X175228100Y-89543850D02*
G75*
G03*
X175228100Y-89543850I-762000J0D01*
G01*
G36*
X174796300Y-89874050D02*
G01*
X174135900Y-89874050D01*
X174135900Y-89213650D01*
X174796300Y-89213650D01*
X174796300Y-89874050D01*
G37*
X217392100Y-114943850D02*
G75*
G03*
X217392100Y-114943850I-762000J0D01*
G01*
G36*
X216960300Y-115274050D02*
G01*
X216299900Y-115274050D01*
X216299900Y-114613650D01*
X216960300Y-114613650D01*
X216960300Y-115274050D01*
G37*
D15*
X153384100Y-120404850D02*
X153384100Y-121293850D01*
X153384100Y-128024850D02*
X153384100Y-127135850D01*
D19*
X79597100Y-113481850D02*
X77590100Y-111474850D01*
X79572100Y-108502850D02*
X77565100Y-106521850D01*
D16*
X80079700Y-112490850D02*
G75*
G03*
X80079700Y-112490850I-1498600J0D01*
G01*
X80079700Y-107487050D02*
G75*
G03*
X80079700Y-107487050I-1498600J0D01*
G01*
D15*
X167608100Y-136660850D02*
X166719100Y-136660850D01*
X159988100Y-136660850D02*
X160877100Y-136660850D01*
D16*
X167989100Y-81923850D02*
G75*
G03*
X167989100Y-81923850I-762000J0D01*
G01*
G36*
X167557300Y-82254050D02*
G01*
X166896900Y-82254050D01*
X166896900Y-81593650D01*
X167557300Y-81593650D01*
X167557300Y-82254050D01*
G37*
X217392100Y-120023850D02*
G75*
G03*
X217392100Y-120023850I-762000J0D01*
G01*
G36*
X216960300Y-120354050D02*
G01*
X216299900Y-120354050D01*
X216299900Y-119693650D01*
X216960300Y-119693650D01*
X216960300Y-120354050D01*
G37*
X217392100Y-107323850D02*
G75*
G03*
X217392100Y-107323850I-762000J0D01*
G01*
G36*
X216960300Y-107654050D02*
G01*
X216299900Y-107654050D01*
X216299900Y-106993650D01*
X216960300Y-106993650D01*
X216960300Y-107654050D01*
G37*
X223234100Y-92083850D02*
G75*
G03*
X223234100Y-92083850I-762000J0D01*
G01*
G36*
X222802300Y-92414050D02*
G01*
X222141900Y-92414050D01*
X222141900Y-91753650D01*
X222802300Y-91753650D01*
X222802300Y-92414050D01*
G37*
X167735100Y-108339850D02*
G75*
G03*
X167735100Y-108339850I-762000J0D01*
G01*
G36*
X167303300Y-108670050D02*
G01*
X166642900Y-108670050D01*
X166642900Y-108009650D01*
X167303300Y-108009650D01*
X167303300Y-108670050D01*
G37*
D15*
X149701100Y-136660850D02*
X150590100Y-136660850D01*
X157321100Y-136660850D02*
X156432100Y-136660850D01*
D16*
X169132100Y-94623850D02*
G75*
G03*
X169132100Y-94623850I-762000J0D01*
G01*
G36*
X168700300Y-94954050D02*
G01*
X168039900Y-94954050D01*
X168039900Y-94293650D01*
X168700300Y-94293650D01*
X168700300Y-94954050D01*
G37*
X217392100Y-104783850D02*
G75*
G03*
X217392100Y-104783850I-762000J0D01*
G01*
G36*
X216960300Y-105114050D02*
G01*
X216299900Y-105114050D01*
X216299900Y-104453650D01*
X216960300Y-104453650D01*
X216960300Y-105114050D01*
G37*
D15*
X182340100Y-109355850D02*
X182340100Y-108466850D01*
X182340100Y-101735850D02*
X182340100Y-102624850D01*
D16*
X217392100Y-94623850D02*
G75*
G03*
X217392100Y-94623850I-762000J0D01*
G01*
G36*
X216960300Y-94954050D02*
G01*
X216299900Y-94954050D01*
X216299900Y-94293650D01*
X216960300Y-94293650D01*
X216960300Y-94954050D01*
G37*
D15*
X164687100Y-105418850D02*
X164687100Y-104529850D01*
X164687100Y-97798850D02*
X164687100Y-98687850D01*
D16*
X223234100Y-120023850D02*
G75*
G03*
X223234100Y-120023850I-762000J0D01*
G01*
G36*
X222802300Y-120354050D02*
G01*
X222141900Y-120354050D01*
X222141900Y-119693650D01*
X222802300Y-119693650D01*
X222802300Y-120354050D01*
G37*
X175228100Y-122563850D02*
G75*
G03*
X175228100Y-122563850I-762000J0D01*
G01*
G36*
X174796300Y-122894050D02*
G01*
X174135900Y-122894050D01*
X174135900Y-122233650D01*
X174796300Y-122233650D01*
X174796300Y-122894050D01*
G37*
X175228100Y-112403850D02*
G75*
G03*
X175228100Y-112403850I-762000J0D01*
G01*
G36*
X174796300Y-112734050D02*
G01*
X174135900Y-112734050D01*
X174135900Y-112073650D01*
X174796300Y-112073650D01*
X174796300Y-112734050D01*
G37*
D15*
X177768100Y-133612850D02*
X177768100Y-132723850D01*
X177768100Y-125992850D02*
X177768100Y-126881850D01*
D17*
X214471100Y-133612850D02*
G75*
G03*
X212312100Y-131453850I-2158998J2D01*
G01*
X210153100Y-133612850D02*
G75*
G03*
X212312100Y-135771850I2158998J-2D01*
G01*
D18*
X213074100Y-133612850D02*
G75*
G03*
X213074100Y-133612850I-762000J0D01*
G01*
D15*
X158845100Y-72652850D02*
X159734100Y-72652850D01*
X166465100Y-72652850D02*
X165576100Y-72652850D01*
D16*
X223234100Y-104783850D02*
G75*
G03*
X223234100Y-104783850I-762000J0D01*
G01*
G36*
X222802300Y-105114050D02*
G01*
X222141900Y-105114050D01*
X222141900Y-104453650D01*
X222802300Y-104453650D01*
X222802300Y-105114050D01*
G37*
X217392100Y-74303850D02*
G75*
G03*
X217392100Y-74303850I-762000J0D01*
G01*
G36*
X216960300Y-74634050D02*
G01*
X216299900Y-74634050D01*
X216299900Y-73973650D01*
X216960300Y-73973650D01*
X216960300Y-74634050D01*
G37*
X169132100Y-87003850D02*
G75*
G03*
X169132100Y-87003850I-762000J0D01*
G01*
G36*
X168700300Y-87334050D02*
G01*
X168039900Y-87334050D01*
X168039900Y-86673650D01*
X168700300Y-86673650D01*
X168700300Y-87334050D01*
G37*
D19*
X101209100Y-65368850D02*
X99304100Y-67400850D01*
X106289100Y-65393850D02*
X104282100Y-67400850D01*
X96205100Y-65444850D02*
X94401100Y-67400850D01*
D16*
X101792900Y-66409850D02*
G75*
G03*
X101792900Y-66409850I-1498600J0D01*
G01*
X106796700Y-66409850D02*
G75*
G03*
X106796700Y-66409850I-1498600J0D01*
G01*
X96789100Y-66409850D02*
G75*
G03*
X96789100Y-66409850I-1498600J0D01*
G01*
D20*
X193135100Y-143518850D02*
X194151100Y-143518850D01*
X205835100Y-143518850D02*
X204819100Y-143518850D01*
D16*
X84677100Y-107450850D02*
G75*
G03*
X84677100Y-107450850I-762000J0D01*
G01*
G36*
X84245300Y-107781050D02*
G01*
X83584900Y-107781050D01*
X83584900Y-107120650D01*
X84245300Y-107120650D01*
X84245300Y-107781050D01*
G37*
D15*
X166973100Y-134374850D02*
X166973100Y-133485850D01*
X166973100Y-126754850D02*
X166973100Y-127643850D01*
G36*
X166261900Y-117788650D02*
G01*
X165652300Y-117788650D01*
X165652300Y-117179050D01*
X166261900Y-117179050D01*
X166261900Y-117788650D01*
G37*
G36*
X166261900Y-120328650D02*
G01*
X165652300Y-120328650D01*
X165652300Y-119719050D01*
X166261900Y-119719050D01*
X166261900Y-120328650D01*
G37*
D16*
X223234100Y-89543850D02*
G75*
G03*
X223234100Y-89543850I-762000J0D01*
G01*
G36*
X222802300Y-89874050D02*
G01*
X222141900Y-89874050D01*
X222141900Y-89213650D01*
X222802300Y-89213650D01*
X222802300Y-89874050D01*
G37*
D19*
X179230100Y-144534850D02*
X181237100Y-142527850D01*
X184209100Y-144509850D02*
X186190100Y-142502850D01*
D16*
X181719700Y-143518850D02*
G75*
G03*
X181719700Y-143518850I-1498600J0D01*
G01*
X186723500Y-143518850D02*
G75*
G03*
X186723500Y-143518850I-1498600J0D01*
G01*
X175228100Y-87003850D02*
G75*
G03*
X175228100Y-87003850I-762000J0D01*
G01*
G36*
X174796300Y-87334050D02*
G01*
X174135900Y-87334050D01*
X174135900Y-86673650D01*
X174796300Y-86673650D01*
X174796300Y-87334050D01*
G37*
D15*
X177768100Y-136660850D02*
X176879100Y-136660850D01*
X170148100Y-136660850D02*
X171037100Y-136660850D01*
D16*
X217392100Y-125103850D02*
G75*
G03*
X217392100Y-125103850I-762000J0D01*
G01*
G36*
X216960300Y-125434050D02*
G01*
X216299900Y-125434050D01*
X216299900Y-124773650D01*
X216960300Y-124773650D01*
X216960300Y-125434050D01*
G37*
D15*
X198977100Y-72652850D02*
X199866100Y-72652850D01*
X206597100Y-72652850D02*
X205708100Y-72652850D01*
D16*
X175228100Y-94623850D02*
G75*
G03*
X175228100Y-94623850I-762000J0D01*
G01*
G36*
X174796300Y-94954050D02*
G01*
X174135900Y-94954050D01*
X174135900Y-94293650D01*
X174796300Y-94293650D01*
X174796300Y-94954050D01*
G37*
D15*
X183737100Y-77986850D02*
X183737100Y-78875850D01*
X183737100Y-85606850D02*
X183737100Y-84717850D01*
D16*
X217392100Y-99830850D02*
G75*
G03*
X217392100Y-99830850I-762000J0D01*
G01*
G36*
X216960300Y-100161050D02*
G01*
X216299900Y-100161050D01*
X216299900Y-99500650D01*
X216960300Y-99500650D01*
X216960300Y-100161050D01*
G37*
D19*
X191393100Y-65438850D02*
X189412100Y-67445850D01*
X196372100Y-65413850D02*
X194365100Y-67420850D01*
D16*
X196879700Y-66429850D02*
G75*
G03*
X196879700Y-66429850I-1498600J0D01*
G01*
X191875900Y-66429850D02*
G75*
G03*
X191875900Y-66429850I-1498600J0D01*
G01*
D15*
X177514100Y-75446850D02*
X178403100Y-75446850D01*
X185134100Y-75446850D02*
X184245100Y-75446850D01*
D19*
X77917100Y-65444850D02*
X76113100Y-67400850D01*
X82921100Y-65368850D02*
X81016100Y-67400850D01*
X88001100Y-65393850D02*
X85994100Y-67400850D01*
D16*
X78501100Y-66409850D02*
G75*
G03*
X78501100Y-66409850I-1498600J0D01*
G01*
X83504900Y-66409850D02*
G75*
G03*
X83504900Y-66409850I-1498600J0D01*
G01*
X88508700Y-66409850D02*
G75*
G03*
X88508700Y-66409850I-1498600J0D01*
G01*
D15*
X156051100Y-72652850D02*
X155162100Y-72652850D01*
X148431100Y-72652850D02*
X149320100Y-72652850D01*
X192500100Y-109355850D02*
X192500100Y-108466850D01*
X192500100Y-101735850D02*
X192500100Y-102624850D01*
D19*
X211445100Y-65393850D02*
X209438100Y-67400850D01*
X201361100Y-65444850D02*
X199557100Y-67400850D01*
X206365100Y-65368850D02*
X204460100Y-67400850D01*
D16*
X211952700Y-66409850D02*
G75*
G03*
X211952700Y-66409850I-1498600J0D01*
G01*
X206948900Y-66409850D02*
G75*
G03*
X206948900Y-66409850I-1498600J0D01*
G01*
X201945100Y-66409850D02*
G75*
G03*
X201945100Y-66409850I-1498600J0D01*
G01*
D15*
X187420100Y-101735850D02*
X187420100Y-102624850D01*
X187420100Y-109355850D02*
X187420100Y-108466850D01*
X197580100Y-109355850D02*
X197580100Y-108466850D01*
X197580100Y-101735850D02*
X197580100Y-102624850D01*
X160369100Y-97671850D02*
X160369100Y-98560850D01*
X160369100Y-105291850D02*
X160369100Y-104402850D01*
M02*
